<svg xmlns="http://www.w3.org/2000/svg" width="1200" height="600" fill="none" shape-rendering="crispEdges">
<rect x="440" y="550" width="220" height="50" fill="rgba(255,255,255,0.05)"/>
<rect x="720" y="550" width="240" height="50" fill="rgba(255,255,255,0.05)"/>
<rect x="120" y="550" width="320" height="50" fill="rgba(255,255,255,0.05)"/>
<rect x="660" y="550" width="200" height="50" fill="rgba(255,255,255,0.05)"/>
<rect x="1040" y="550" width="460" height="50" fill="rgba(255,255,255,0.05)"/>
<rect x="580" y="550" width="360" height="50" fill="rgba(255,255,255,0.05)"/>
<rect x="220" y="550" width="220" height="50" fill="rgba(255,255,255,0.05)"/>
<rect x="580" y="550" width="260" height="50" fill="rgba(255,255,255,0.05)"/>
<rect x="580" y="550" width="480" height="50" fill="rgba(255,255,255,0.05)"/>
<rect x="220" y="550" width="320" height="50" fill="rgba(255,255,255,0.05)"/>
<rect x="780" y="550" width="200" height="50" fill="rgba(255,255,255,0.05)"/>
<rect x="660" y="550" width="240" height="50" fill="rgba(255,255,255,0.05)"/>
<rect x="-100" y="550" width="220" height="50" fill="rgba(255,255,255,0.05)"/>
<rect x="800" y="550" width="360" height="50" fill="rgba(255,255,255,0.05)"/>
<rect x="-20" y="550" width="240" height="50" fill="rgba(255,255,255,0.05)"/>
<rect x="180" y="500" width="240" height="100" fill="rgba(255,255,255,0.04)"/>
<rect x="-60" y="500" width="260" height="100" fill="rgba(255,255,255,0.04)"/>
<rect x="780" y="500" width="340" height="100" fill="rgba(255,255,255,0.04)"/>
<rect x="860" y="500" width="480" height="100" fill="rgba(255,255,255,0.04)"/>
<rect x="860" y="500" width="320" height="100" fill="rgba(255,255,255,0.04)"/>
<rect x="520" y="500" width="200" height="100" fill="rgba(255,255,255,0.04)"/>
<rect x="960" y="500" width="360" height="100" fill="rgba(255,255,255,0.04)"/>
<rect x="320" y="500" width="440" height="100" fill="rgba(255,255,255,0.04)"/>
<rect x="1040" y="500" width="460" height="100" fill="rgba(255,255,255,0.04)"/>
<rect x="-80" y="500" width="360" height="100" fill="rgba(255,255,255,0.04)"/>
<rect x="940" y="500" width="400" height="100" fill="rgba(255,255,255,0.04)"/>
<rect x="1000" y="500" width="420" height="100" fill="rgba(255,255,255,0.04)"/>
<rect x="960" y="500" width="440" height="100" fill="rgba(255,255,255,0.04)"/>
<rect x="660" y="500" width="400" height="100" fill="rgba(255,255,255,0.04)"/>
<rect x="-40" y="500" width="460" height="100" fill="rgba(255,255,255,0.04)"/>
<rect x="60" y="450" width="280" height="150" fill="rgba(255,255,255,0.03)"/>
<rect x="420" y="450" width="440" height="150" fill="rgba(255,255,255,0.03)"/>
<rect x="580" y="450" width="280" height="150" fill="rgba(255,255,255,0.03)"/>
<rect x="1020" y="450" width="360" height="150" fill="rgba(255,255,255,0.03)"/>
<rect x="40" y="450" width="400" height="150" fill="rgba(255,255,255,0.03)"/>
<rect x="680" y="450" width="420" height="150" fill="rgba(255,255,255,0.03)"/>
<rect x="580" y="450" width="480" height="150" fill="rgba(255,255,255,0.03)"/>
<rect x="280" y="450" width="200" height="150" fill="rgba(255,255,255,0.03)"/>
<rect x="80" y="450" width="500" height="150" fill="rgba(255,255,255,0.03)"/>
<rect x="-80" y="450" width="380" height="150" fill="rgba(255,255,255,0.03)"/>
<rect x="360" y="450" width="380" height="150" fill="rgba(255,255,255,0.03)"/>
<rect x="980" y="450" width="400" height="150" fill="rgba(255,255,255,0.03)"/>
<rect x="20" y="450" width="440" height="150" fill="rgba(255,255,255,0.03)"/>
<rect x="900" y="450" width="340" height="150" fill="rgba(255,255,255,0.03)"/>
<rect x="1000" y="450" width="300" height="150" fill="rgba(255,255,255,0.03)"/>
<rect x="260" y="400" width="440" height="200" fill="rgba(255,255,255,0.02)"/>
<rect x="980" y="400" width="260" height="200" fill="rgba(255,255,255,0.02)"/>
<rect x="660" y="400" width="420" height="200" fill="rgba(255,255,255,0.02)"/>
<rect x="-20" y="400" width="420" height="200" fill="rgba(255,255,255,0.02)"/>
<rect x="160" y="400" width="200" height="200" fill="rgba(255,255,255,0.02)"/>
<rect x="280" y="400" width="420" height="200" fill="rgba(255,255,255,0.02)"/>
<rect x="420" y="400" width="200" height="200" fill="rgba(255,255,255,0.02)"/>
<rect x="440" y="400" width="380" height="200" fill="rgba(255,255,255,0.02)"/>
<rect x="760" y="400" width="420" height="200" fill="rgba(255,255,255,0.02)"/>
<rect x="120" y="400" width="200" height="200" fill="rgba(255,255,255,0.02)"/>
<rect x="940" y="400" width="220" height="200" fill="rgba(255,255,255,0.02)"/>
<rect x="80" y="400" width="380" height="200" fill="rgba(255,255,255,0.02)"/>
<rect x="780" y="400" width="240" height="200" fill="rgba(255,255,255,0.02)"/>
<rect x="980" y="400" width="200" height="200" fill="rgba(255,255,255,0.02)"/>
<rect x="40" y="400" width="380" height="200" fill="rgba(255,255,255,0.02)"/>
<rect x="720" y="350" width="460" height="250" fill="rgba(255,255,255,0.015)"/>
<rect x="560" y="350" width="200" height="250" fill="rgba(255,255,255,0.015)"/>
<rect x="860" y="350" width="320" height="250" fill="rgba(255,255,255,0.015)"/>
<rect x="1040" y="350" width="200" height="250" fill="rgba(255,255,255,0.015)"/>
<rect x="740" y="350" width="360" height="250" fill="rgba(255,255,255,0.015)"/>
<rect x="-60" y="350" width="360" height="250" fill="rgba(255,255,255,0.015)"/>
<rect x="740" y="350" width="280" height="250" fill="rgba(255,255,255,0.015)"/>
<rect x="180" y="350" width="220" height="250" fill="rgba(255,255,255,0.015)"/>
<rect x="380" y="350" width="380" height="250" fill="rgba(255,255,255,0.015)"/>
<rect x="0" y="350" width="240" height="250" fill="rgba(255,255,255,0.015)"/>
<rect x="680" y="350" width="460" height="250" fill="rgba(255,255,255,0.015)"/>
<rect x="520" y="350" width="460" height="250" fill="rgba(255,255,255,0.015)"/>
<rect x="480" y="350" width="260" height="250" fill="rgba(255,255,255,0.015)"/>
<rect x="640" y="350" width="380" height="250" fill="rgba(255,255,255,0.015)"/>
<rect x="980" y="350" width="260" height="250" fill="rgba(255,255,255,0.015)"/>
</svg>