<svg xmlns="http://www.w3.org/2000/svg" width="1600" height="400" fill="none" shape-rendering="crispEdges">
<path d="M 0 400 L 0 80 L 0 80 L 0 80 L 20 80 L 20 80 L 40 80 L 40 80 L 60 80 L 60 80 L 80 80 L 80 80 L 100 80 L 100 80 L 120 80 L 120 80 L 140 80 L 140 100 L 160 100 L 160 100 L 180 100 L 180 100 L 200 100 L 200 100 L 220 100 L 220 100 L 240 100 L 240 100 L 260 100 L 260 100 L 280 100 L 280 100 L 300 100 L 300 100 L 320 100 L 320 100 L 340 100 L 340 100 L 360 100 L 360 100 L 380 100 L 380 100 L 400 100 L 400 100 L 420 100 L 420 100 L 440 100 L 440 80 L 460 80 L 460 80 L 480 80 L 480 80 L 500 80 L 500 80 L 520 80 L 520 80 L 540 80 L 540 80 L 560 80 L 560 80 L 580 80 L 580 80 L 600 80 L 600 80 L 620 80 L 620 80 L 640 80 L 640 80 L 660 80 L 660 80 L 680 80 L 680 80 L 700 80 L 700 60 L 720 60 L 720 60 L 740 60 L 740 60 L 760 60 L 760 60 L 780 60 L 780 60 L 800 60 L 800 60 L 820 60 L 820 60 L 840 60 L 840 60 L 860 60 L 860 60 L 880 60 L 880 60 L 900 60 L 900 60 L 920 60 L 920 60 L 940 60 L 940 60 L 960 60 L 960 60 L 980 60 L 980 60 L 1000 60 L 1000 80 L 1020 80 L 1020 80 L 1040 80 L 1040 80 L 1060 80 L 1060 80 L 1080 80 L 1080 80 L 1100 80 L 1100 80 L 1120 80 L 1120 80 L 1140 80 L 1140 80 L 1160 80 L 1160 80 L 1180 80 L 1180 80 L 1200 80 L 1200 80 L 1220 80 L 1220 80 L 1240 80 L 1240 80 L 1260 80 L 1260 80 L 1280 80 L 1280 100 L 1300 100 L 1300 100 L 1320 100 L 1320 100 L 1340 100 L 1340 100 L 1360 100 L 1360 100 L 1380 100 L 1380 100 L 1400 100 L 1400 100 L 1420 100 L 1420 100 L 1440 100 L 1440 100 L 1460 100 L 1460 100 L 1480 100 L 1480 100 L 1500 100 L 1500 100 L 1520 100 L 1520 100 L 1540 100 L 1540 100 L 1560 100 L 1560 100 L 1580 100 L 1580 80 L 1600 80 L 1600 80 L 1600 400 Z" fill="#1f1e3f"/>
<path d="M 0 400 L 0 130 L 0 130 L 0 150 L 20 150 L 20 150 L 40 150 L 40 150 L 60 150 L 60 150 L 80 150 L 80 150 L 100 150 L 100 150 L 120 150 L 120 150 L 140 150 L 140 150 L 160 150 L 160 150 L 180 150 L 180 150 L 200 150 L 200 150 L 220 150 L 220 150 L 240 150 L 240 150 L 260 150 L 260 150 L 280 150 L 280 150 L 300 150 L 300 150 L 320 150 L 320 150 L 340 150 L 340 130 L 360 130 L 360 130 L 380 130 L 380 130 L 400 130 L 400 130 L 420 130 L 420 130 L 440 130 L 440 130 L 460 130 L 460 130 L 480 130 L 480 130 L 500 130 L 500 130 L 520 130 L 520 130 L 540 130 L 540 130 L 560 130 L 560 110 L 580 110 L 580 110 L 600 110 L 600 110 L 620 110 L 620 110 L 640 110 L 640 110 L 660 110 L 660 110 L 680 110 L 680 110 L 700 110 L 700 110 L 720 110 L 720 110 L 740 110 L 740 110 L 760 110 L 760 110 L 780 110 L 780 110 L 800 110 L 800 110 L 820 110 L 820 110 L 840 110 L 840 110 L 860 110 L 860 110 L 880 110 L 880 110 L 900 110 L 900 110 L 920 110 L 920 110 L 940 110 L 940 110 L 960 110 L 960 110 L 980 110 L 980 110 L 1000 110 L 1000 110 L 1020 110 L 1020 130 L 1040 130 L 1040 130 L 1060 130 L 1060 130 L 1080 130 L 1080 130 L 1100 130 L 1100 130 L 1120 130 L 1120 130 L 1140 130 L 1140 130 L 1160 130 L 1160 130 L 1180 130 L 1180 130 L 1200 130 L 1200 130 L 1220 130 L 1220 130 L 1240 130 L 1240 130 L 1260 130 L 1260 150 L 1280 150 L 1280 150 L 1300 150 L 1300 150 L 1320 150 L 1320 150 L 1340 150 L 1340 150 L 1360 150 L 1360 150 L 1380 150 L 1380 150 L 1400 150 L 1400 150 L 1420 150 L 1420 150 L 1440 150 L 1440 150 L 1460 150 L 1460 150 L 1480 150 L 1480 150 L 1500 150 L 1500 150 L 1520 150 L 1520 150 L 1540 150 L 1540 150 L 1560 150 L 1560 150 L 1580 150 L 1580 150 L 1600 150 L 1600 150 L 1600 400 Z" fill="#2a2750"/>
<path d="M 0 400 L 0 180 L 0 180 L 0 220 L 20 220 L 20 220 L 40 220 L 40 220 L 60 220 L 60 220 L 80 220 L 80 200 L 100 200 L 100 200 L 120 200 L 120 200 L 140 200 L 140 200 L 160 200 L 160 200 L 180 200 L 180 200 L 200 200 L 200 200 L 220 200 L 220 180 L 240 180 L 240 180 L 260 180 L 260 180 L 280 180 L 280 180 L 300 180 L 300 180 L 320 180 L 320 180 L 340 180 L 340 180 L 360 180 L 360 180 L 380 180 L 380 180 L 400 180 L 400 180 L 420 180 L 420 180 L 440 180 L 440 160 L 460 160 L 460 160 L 480 160 L 480 160 L 500 160 L 500 160 L 520 160 L 520 160 L 540 160 L 540 160 L 560 160 L 560 140 L 580 140 L 580 140 L 600 140 L 600 140 L 620 140 L 620 140 L 640 140 L 640 140 L 660 140 L 660 140 L 680 140 L 680 140 L 700 140 L 700 140 L 720 140 L 720 140 L 740 140 L 740 140 L 760 140 L 760 140 L 780 140 L 780 140 L 800 140 L 800 140 L 820 140 L 820 140 L 840 140 L 840 140 L 860 140 L 860 140 L 880 140 L 880 140 L 900 140 L 900 160 L 920 160 L 920 160 L 940 160 L 940 160 L 960 160 L 960 160 L 980 160 L 980 160 L 1000 160 L 1000 160 L 1020 160 L 1020 160 L 1040 160 L 1040 180 L 1060 180 L 1060 180 L 1080 180 L 1080 180 L 1100 180 L 1100 180 L 1120 180 L 1120 180 L 1140 180 L 1140 180 L 1160 180 L 1160 180 L 1180 180 L 1180 180 L 1200 180 L 1200 180 L 1220 180 L 1220 180 L 1240 180 L 1240 180 L 1260 180 L 1260 200 L 1280 200 L 1280 200 L 1300 200 L 1300 200 L 1320 200 L 1320 200 L 1340 200 L 1340 200 L 1360 200 L 1360 200 L 1380 200 L 1380 220 L 1400 220 L 1400 220 L 1420 220 L 1420 220 L 1440 220 L 1440 220 L 1460 220 L 1460 220 L 1480 220 L 1480 220 L 1500 220 L 1500 220 L 1520 220 L 1520 220 L 1540 220 L 1540 220 L 1560 220 L 1560 220 L 1580 220 L 1580 220 L 1600 220 L 1600 220 L 1600 400 Z" fill="#322f5c"/>
<path d="M 0 400 L 0 230 L 0 230 L 0 250 L 20 250 L 20 250 L 40 250 L 40 250 L 60 250 L 60 250 L 80 250 L 80 250 L 100 250 L 100 230 L 120 230 L 120 230 L 140 230 L 140 230 L 160 230 L 160 230 L 180 230 L 180 230 L 200 230 L 200 230 L 220 230 L 220 230 L 240 230 L 240 230 L 260 230 L 260 230 L 280 230 L 280 230 L 300 230 L 300 210 L 320 210 L 320 210 L 340 210 L 340 210 L 360 210 L 360 210 L 380 210 L 380 210 L 400 210 L 400 210 L 420 210 L 420 190 L 440 190 L 440 190 L 460 190 L 460 190 L 480 190 L 480 190 L 500 190 L 500 190 L 520 190 L 520 190 L 540 190 L 540 190 L 560 190 L 560 190 L 580 190 L 580 190 L 600 190 L 600 190 L 620 190 L 620 190 L 640 190 L 640 190 L 660 190 L 660 190 L 680 190 L 680 190 L 700 190 L 700 190 L 720 190 L 720 190 L 740 190 L 740 190 L 760 190 L 760 190 L 780 190 L 780 190 L 800 190 L 800 190 L 820 190 L 820 190 L 840 190 L 840 190 L 860 190 L 860 190 L 880 190 L 880 190 L 900 190 L 900 190 L 920 190 L 920 210 L 940 210 L 940 210 L 960 210 L 960 210 L 980 210 L 980 210 L 1000 210 L 1000 210 L 1020 210 L 1020 210 L 1040 210 L 1040 230 L 1060 230 L 1060 230 L 1080 230 L 1080 230 L 1100 230 L 1100 230 L 1120 230 L 1120 230 L 1140 230 L 1140 230 L 1160 230 L 1160 230 L 1180 230 L 1180 230 L 1200 230 L 1200 230 L 1220 230 L 1220 230 L 1240 230 L 1240 250 L 1260 250 L 1260 250 L 1280 250 L 1280 250 L 1300 250 L 1300 250 L 1320 250 L 1320 250 L 1340 250 L 1340 250 L 1360 250 L 1360 270 L 1380 270 L 1380 270 L 1400 270 L 1400 270 L 1420 270 L 1420 270 L 1440 270 L 1440 270 L 1460 270 L 1460 270 L 1480 270 L 1480 270 L 1500 270 L 1500 270 L 1520 270 L 1520 270 L 1540 270 L 1540 270 L 1560 270 L 1560 270 L 1580 270 L 1580 270 L 1600 270 L 1600 270 L 1600 400 Z" fill="#3e396c"/>
</svg>