<svg xmlns="http://www.w3.org/2000/svg" width="1600" height="900" style="background: linear-gradient(180deg, #181c3c 0%, #292850 60%, #3e3860 100%);" shape-rendering="crispEdges">
<circle cx="1300" cy="500" r="300" fill="none" stroke="rgba(255,255,255,0.04)" stroke-width="4"/>
<circle cx="1300" cy="500" r="280" fill="none" stroke="rgba(255,255,255,0.02)" stroke-width="8"/>
<rect x="1309" y="842" width="2" height="2" fill="rgba(255,255,255,0.6932403998078663)"/>
<rect x="285" y="345" width="2" height="2" fill="rgba(255,255,255,0.6413595899383291)"/>
<rect x="178" y="474" width="2" height="2" fill="rgba(255,255,255,0.1254261435854269)"/>
<rect x="476" y="547" width="2" height="2" fill="rgba(255,255,255,0.1212287757470909)"/>
<rect x="1330" y="377" width="2" height="2" fill="rgba(255,255,255,0.435615856769327)"/>
<rect x="569" y="279" width="2" height="2" fill="rgba(255,255,255,0.10519900774244882)"/>
<rect x="1429" y="615" width="2" height="2" fill="rgba(255,255,255,0.3222970733373135)"/>
<rect x="1563" y="683" width="2" height="2" fill="rgba(255,255,255,0.17419667470411832)"/>
<rect x="704" y="463" width="2" height="2" fill="rgba(255,255,255,0.7457026186195042)"/>
<rect x="1098" y="834" width="2" height="2" fill="rgba(255,255,255,0.837836297622528)"/>
<rect x="600" y="260" width="2" height="2" fill="rgba(255,255,255,0.5948158018913968)"/>
<rect x="1182" y="789" width="2" height="2" fill="rgba(255,255,255,0.15564411905899275)"/>
<rect x="1583" y="719" width="2" height="2" fill="rgba(255,255,255,0.16383358153890198)"/>
<rect x="206" y="649" width="2" height="2" fill="rgba(255,255,255,0.46272824189474837)"/>
<rect x="333" y="657" width="2" height="2" fill="rgba(255,255,255,0.2676056246171902)"/>
<rect x="1399" y="424" width="2" height="2" fill="rgba(255,255,255,0.5873048045335906)"/>
<rect x="1493" y="752" width="2" height="2" fill="rgba(255,255,255,0.46980816948089266)"/>
<rect x="1310" y="389" width="2" height="2" fill="rgba(255,255,255,0.27569213917621516)"/>
<rect x="1573" y="309" width="2" height="2" fill="rgba(255,255,255,0.2832384575712835)"/>
<rect x="1569" y="309" width="10" height="2" fill="rgba(255,255,255,0.2832384575712835)"/>
<rect x="1573" y="305" width="2" height="10" fill="rgba(255,255,255,0.2832384575712835)"/>
<rect x="646" y="632" width="2" height="2" fill="rgba(255,255,255,0.1529508841692378)"/>
<rect x="1161" y="217" width="2" height="2" fill="rgba(255,255,255,0.3517423046387823)"/>
<rect x="810" y="209" width="2" height="2" fill="rgba(255,255,255,0.6142814961603393)"/>
<rect x="285" y="750" width="2" height="2" fill="rgba(255,255,255,0.5490945073305207)"/>
<rect x="1197" y="610" width="2" height="2" fill="rgba(255,255,255,0.566826339956525)"/>
<rect x="283" y="543" width="2" height="2" fill="rgba(255,255,255,0.1727275297390351)"/>
<rect x="279" y="543" width="10" height="2" fill="rgba(255,255,255,0.1727275297390351)"/>
<rect x="283" y="539" width="2" height="10" fill="rgba(255,255,255,0.1727275297390351)"/>
<rect x="224" y="816" width="2" height="2" fill="rgba(255,255,255,0.2279856013779602)"/>
<rect x="1221" y="870" width="2" height="2" fill="rgba(255,255,255,0.40529542920522943)"/>
<rect x="1083" y="747" width="2" height="2" fill="rgba(255,255,255,0.54258071697223)"/>
<rect x="1393" y="359" width="2" height="2" fill="rgba(255,255,255,0.6453682952212598)"/>
<rect x="546" y="316" width="2" height="2" fill="rgba(255,255,255,0.37214037842483616)"/>
<rect x="323" y="590" width="2" height="2" fill="rgba(255,255,255,0.8630527420168641)"/>
<rect x="539" y="126" width="2" height="2" fill="rgba(255,255,255,0.7095697592416518)"/>
<rect x="217" y="222" width="2" height="2" fill="rgba(255,255,255,0.33875583315890634)"/>
<rect x="1247" y="784" width="2" height="2" fill="rgba(255,255,255,0.39913108207291836)"/>
<rect x="1594" y="173" width="2" height="2" fill="rgba(255,255,255,0.8347947955165619)"/>
<rect x="1000" y="892" width="2" height="2" fill="rgba(255,255,255,0.8432788930116937)"/>
<rect x="629" y="756" width="2" height="2" fill="rgba(255,255,255,0.2926972739577865)"/>
<rect x="161" y="858" width="2" height="2" fill="rgba(255,255,255,0.48879237065329106)"/>
<rect x="1557" y="524" width="2" height="2" fill="rgba(255,255,255,0.20060840921635306)"/>
<rect x="1125" y="807" width="2" height="2" fill="rgba(255,255,255,0.5221390299346033)"/>
<rect x="433" y="167" width="2" height="2" fill="rgba(255,255,255,0.7042121573086444)"/>
<rect x="1460" y="702" width="2" height="2" fill="rgba(255,255,255,0.8961194853287158)"/>
<rect x="897" y="195" width="2" height="2" fill="rgba(255,255,255,0.4611889131129038)"/>
<rect x="131" y="682" width="2" height="2" fill="rgba(255,255,255,0.5706469747657866)"/>
<rect x="451" y="897" width="2" height="2" fill="rgba(255,255,255,0.6662727572387632)"/>
<rect x="138" y="189" width="2" height="2" fill="rgba(255,255,255,0.7877083202029972)"/>
<rect x="487" y="727" width="2" height="2" fill="rgba(255,255,255,0.4883315993203926)"/>
<rect x="1481" y="161" width="2" height="2" fill="rgba(255,255,255,0.5568344746602276)"/>
<rect x="968" y="281" width="2" height="2" fill="rgba(255,255,255,0.25232793148950217)"/>
<rect x="882" y="669" width="2" height="2" fill="rgba(255,255,255,0.42888182083979043)"/>
<rect x="110" y="402" width="2" height="2" fill="rgba(255,255,255,0.8873321690927729)"/>
<rect x="824" y="353" width="2" height="2" fill="rgba(255,255,255,0.7404740086893591)"/>
<rect x="392" y="790" width="2" height="2" fill="rgba(255,255,255,0.45889083826650556)"/>
<rect x="570" y="582" width="2" height="2" fill="rgba(255,255,255,0.799588763256464)"/>
<rect x="1127" y="850" width="2" height="2" fill="rgba(255,255,255,0.6217159151988176)"/>
<rect x="30" y="129" width="2" height="2" fill="rgba(255,255,255,0.8410935864065021)"/>
<rect x="340" y="628" width="2" height="2" fill="rgba(255,255,255,0.4850867343768316)"/>
<rect x="120" y="808" width="2" height="2" fill="rgba(255,255,255,0.10172430268114115)"/>
<rect x="931" y="722" width="2" height="2" fill="rgba(255,255,255,0.65727320288013)"/>
<rect x="1138" y="412" width="2" height="2" fill="rgba(255,255,255,0.4893371293234636)"/>
<rect x="445" y="129" width="2" height="2" fill="rgba(255,255,255,0.563344232653005)"/>
<rect x="1531" y="701" width="2" height="2" fill="rgba(255,255,255,0.14011386981116286)"/>
<rect x="1087" y="812" width="2" height="2" fill="rgba(255,255,255,0.8686231226195603)"/>
<rect x="380" y="867" width="2" height="2" fill="rgba(255,255,255,0.1543686907006058)"/>
<rect x="826" y="837" width="2" height="2" fill="rgba(255,255,255,0.8122298513035501)"/>
<rect x="1217" y="883" width="2" height="2" fill="rgba(255,255,255,0.1655867243959004)"/>
<rect x="1157" y="532" width="2" height="2" fill="rgba(255,255,255,0.8477650061891419)"/>
<rect x="1466" y="700" width="2" height="2" fill="rgba(255,255,255,0.3124916100250831)"/>
<rect x="1321" y="711" width="2" height="2" fill="rgba(255,255,255,0.3529417570174832)"/>
<rect x="148" y="897" width="2" height="2" fill="rgba(255,255,255,0.5969274043944742)"/>
<rect x="204" y="865" width="2" height="2" fill="rgba(255,255,255,0.2705234498136323)"/>
<rect x="714" y="212" width="2" height="2" fill="rgba(255,255,255,0.8034161939876342)"/>
<rect x="323" y="602" width="2" height="2" fill="rgba(255,255,255,0.5345743698092694)"/>
<rect x="1339" y="527" width="2" height="2" fill="rgba(255,255,255,0.6342905629700668)"/>
<rect x="1358" y="847" width="2" height="2" fill="rgba(255,255,255,0.8025015719788737)"/>
<rect x="219" y="340" width="2" height="2" fill="rgba(255,255,255,0.22435832781999238)"/>
<rect x="431" y="362" width="2" height="2" fill="rgba(255,255,255,0.2628778498619624)"/>
<rect x="540" y="547" width="2" height="2" fill="rgba(255,255,255,0.30089700165591526)"/>
<rect x="104" y="854" width="2" height="2" fill="rgba(255,255,255,0.4388606180509811)"/>
<rect x="7" y="685" width="2" height="2" fill="rgba(255,255,255,0.20465572856136183)"/>
<rect x="330" y="341" width="2" height="2" fill="rgba(255,255,255,0.541344336901113)"/>
<rect x="19" y="842" width="2" height="2" fill="rgba(255,255,255,0.8560407512373113)"/>
<rect x="305" y="513" width="2" height="2" fill="rgba(255,255,255,0.7676760159088134)"/>
<rect x="303" y="609" width="2" height="2" fill="rgba(255,255,255,0.1334630865350863)"/>
<rect x="81" y="196" width="2" height="2" fill="rgba(255,255,255,0.2680612306718032)"/>
<rect x="210" y="670" width="2" height="2" fill="rgba(255,255,255,0.5479068153150958)"/>
<rect x="1271" y="334" width="2" height="2" fill="rgba(255,255,255,0.8406110580556453)"/>
<rect x="332" y="122" width="2" height="2" fill="rgba(255,255,255,0.7486173759523175)"/>
<rect x="50" y="798" width="2" height="2" fill="rgba(255,255,255,0.8395898361932365)"/>
<rect x="843" y="285" width="2" height="2" fill="rgba(255,255,255,0.7912512227002235)"/>
<rect x="546" y="811" width="2" height="2" fill="rgba(255,255,255,0.66102255051193)"/>
<rect x="79" y="233" width="2" height="2" fill="rgba(255,255,255,0.27794697403653157)"/>
<rect x="942" y="673" width="2" height="2" fill="rgba(255,255,255,0.7564291047772497)"/>
<rect x="456" y="891" width="2" height="2" fill="rgba(255,255,255,0.254503830662167)"/>
<rect x="142" y="131" width="2" height="2" fill="rgba(255,255,255,0.3232999941774971)"/>
<rect x="818" y="396" width="2" height="2" fill="rgba(255,255,255,0.7749289306176647)"/>
<rect x="56" y="840" width="2" height="2" fill="rgba(255,255,255,0.8763204888177824)"/>
<rect x="543" y="884" width="2" height="2" fill="rgba(255,255,255,0.5772570039901957)"/>
<rect x="642" y="604" width="2" height="2" fill="rgba(255,255,255,0.8873886794532719)"/>
<rect x="1180" y="790" width="2" height="2" fill="rgba(255,255,255,0.13550922697058487)"/>
<rect x="1064" y="170" width="2" height="2" fill="rgba(255,255,255,0.5307615976742336)"/>
<rect x="1519" y="345" width="2" height="2" fill="rgba(255,255,255,0.2576281032813875)"/>
<rect x="1360" y="175" width="2" height="2" fill="rgba(255,255,255,0.5985243279571274)"/>
<rect x="255" y="360" width="2" height="2" fill="rgba(255,255,255,0.3402578145690114)"/>
<rect x="836" y="691" width="2" height="2" fill="rgba(255,255,255,0.6577667313555192)"/>
<rect x="392" y="617" width="2" height="2" fill="rgba(255,255,255,0.8522909365841465)"/>
<rect x="356" y="453" width="2" height="2" fill="rgba(255,255,255,0.34075989965245224)"/>
<rect x="0" y="708" width="2" height="2" fill="rgba(255,255,255,0.2681461479061136)"/>
<rect x="1242" y="418" width="2" height="2" fill="rgba(255,255,255,0.47199055219761143)"/>
<rect x="437" y="542" width="2" height="2" fill="rgba(255,255,255,0.7349883192848016)"/>
<rect x="1507" y="804" width="2" height="2" fill="rgba(255,255,255,0.1678364293800974)"/>
<rect x="1296" y="449" width="2" height="2" fill="rgba(255,255,255,0.17470976006045014)"/>
<rect x="481" y="402" width="2" height="2" fill="rgba(255,255,255,0.2797125327978306)"/>
<rect x="50" y="880" width="2" height="2" fill="rgba(255,255,255,0.8871488182254812)"/>
<rect x="1573" y="865" width="2" height="2" fill="rgba(255,255,255,0.4315528087981755)"/>
<rect x="398" y="362" width="2" height="2" fill="rgba(255,255,255,0.4071827739142011)"/>
<rect x="302" y="417" width="2" height="2" fill="rgba(255,255,255,0.10443585451042542)"/>
<rect x="1577" y="208" width="2" height="2" fill="rgba(255,255,255,0.72273632541386)"/>
<rect x="1425" y="536" width="2" height="2" fill="rgba(255,255,255,0.14017470811251276)"/>
<rect x="248" y="587" width="2" height="2" fill="rgba(255,255,255,0.7411332813778116)"/>
<rect x="1144" y="470" width="2" height="2" fill="rgba(255,255,255,0.8600316867545248)"/>
<rect x="1254" y="274" width="2" height="2" fill="rgba(255,255,255,0.8136162370728145)"/>
<rect x="1122" y="596" width="2" height="2" fill="rgba(255,255,255,0.22732632603439945)"/>
<rect x="921" y="741" width="2" height="2" fill="rgba(255,255,255,0.29779179000772765)"/>
<rect x="1568" y="308" width="2" height="2" fill="rgba(255,255,255,0.4876776136562134)"/>
<rect x="900" y="862" width="2" height="2" fill="rgba(255,255,255,0.328582520690522)"/>
<rect x="654" y="201" width="2" height="2" fill="rgba(255,255,255,0.16446212612613476)"/>
<rect x="784" y="383" width="2" height="2" fill="rgba(255,255,255,0.6651353133556418)"/>
<rect x="834" y="687" width="2" height="2" fill="rgba(255,255,255,0.4727394426809205)"/>
<rect x="860" y="641" width="2" height="2" fill="rgba(255,255,255,0.7158366178517306)"/>
<rect x="40" y="235" width="2" height="2" fill="rgba(255,255,255,0.7124756608944556)"/>
<rect x="12" y="154" width="2" height="2" fill="rgba(255,255,255,0.3388901218979068)"/>
<rect x="858" y="519" width="2" height="2" fill="rgba(255,255,255,0.6877072486050861)"/>
<rect x="451" y="561" width="2" height="2" fill="rgba(255,255,255,0.31834824941060524)"/>
<rect x="796" y="683" width="2" height="2" fill="rgba(255,255,255,0.6433135080226797)"/>
<rect x="338" y="250" width="2" height="2" fill="rgba(255,255,255,0.8356332965351808)"/>
<rect x="1093" y="889" width="2" height="2" fill="rgba(255,255,255,0.4152162050717638)"/>
<rect x="55" y="859" width="2" height="2" fill="rgba(255,255,255,0.4428902157288759)"/>
<rect x="372" y="877" width="2" height="2" fill="rgba(255,255,255,0.40328309135051166)"/>
<rect x="669" y="682" width="2" height="2" fill="rgba(255,255,255,0.8037119888015164)"/>
<rect x="863" y="746" width="2" height="2" fill="rgba(255,255,255,0.16552498620931405)"/>
<rect x="859" y="746" width="10" height="2" fill="rgba(255,255,255,0.16552498620931405)"/>
<rect x="863" y="742" width="2" height="10" fill="rgba(255,255,255,0.16552498620931405)"/>
<rect x="1104" y="876" width="2" height="2" fill="rgba(255,255,255,0.8615357539055368)"/>
<rect x="140" y="305" width="2" height="2" fill="rgba(255,255,255,0.6214037241951116)"/>
<rect x="506" y="784" width="2" height="2" fill="rgba(255,255,255,0.11630401385626588)"/>
<rect x="258" y="573" width="2" height="2" fill="rgba(255,255,255,0.19151155688744526)"/>
<rect x="952" y="379" width="2" height="2" fill="rgba(255,255,255,0.7135184786849926)"/>
<rect x="1243" y="134" width="2" height="2" fill="rgba(255,255,255,0.6746857828768066)"/>
<rect x="335" y="133" width="2" height="2" fill="rgba(255,255,255,0.18647899972608528)"/>
<rect x="331" y="133" width="10" height="2" fill="rgba(255,255,255,0.18647899972608528)"/>
<rect x="335" y="129" width="2" height="10" fill="rgba(255,255,255,0.18647899972608528)"/>
<rect x="638" y="487" width="2" height="2" fill="rgba(255,255,255,0.8264209208379557)"/>
<rect x="1464" y="785" width="2" height="2" fill="rgba(255,255,255,0.5736782889998818)"/>
<rect x="497" y="848" width="2" height="2" fill="rgba(255,255,255,0.7179847079609792)"/>
<rect x="1229" y="282" width="2" height="2" fill="rgba(255,255,255,0.7369817732801697)"/>
<rect x="84" y="675" width="2" height="2" fill="rgba(255,255,255,0.4427024105877956)"/>
<rect x="1036" y="425" width="2" height="2" fill="rgba(255,255,255,0.11012172013268247)"/>
<rect x="1003" y="846" width="2" height="2" fill="rgba(255,255,255,0.8686300537716629)"/>
<rect x="941" y="372" width="2" height="2" fill="rgba(255,255,255,0.44838971600614164)"/>
<rect x="1332" y="733" width="2" height="2" fill="rgba(255,255,255,0.7465593750454048)"/>
<rect x="990" y="580" width="2" height="2" fill="rgba(255,255,255,0.7605876787366045)"/>
<rect x="660" y="240" width="2" height="2" fill="rgba(255,255,255,0.7645848151124828)"/>
<rect x="923" y="752" width="2" height="2" fill="rgba(255,255,255,0.4717667732825854)"/>
<rect x="776" y="683" width="2" height="2" fill="rgba(255,255,255,0.49544520289273764)"/>
<rect x="998" y="775" width="2" height="2" fill="rgba(255,255,255,0.7382658854624772)"/>
<rect x="1220" y="377" width="2" height="2" fill="rgba(255,255,255,0.32101486060494794)"/>
<rect x="1216" y="377" width="10" height="2" fill="rgba(255,255,255,0.32101486060494794)"/>
<rect x="1220" y="373" width="2" height="10" fill="rgba(255,255,255,0.32101486060494794)"/>
<rect x="391" y="858" width="2" height="2" fill="rgba(255,255,255,0.6760597312833554)"/>
<rect x="1552" y="755" width="2" height="2" fill="rgba(255,255,255,0.48087448862733184)"/>
<rect x="917" y="294" width="2" height="2" fill="rgba(255,255,255,0.17444268044373734)"/>
<rect x="1416" y="753" width="2" height="2" fill="rgba(255,255,255,0.6311680172774528)"/>
<rect x="1133" y="525" width="2" height="2" fill="rgba(255,255,255,0.4404030501641718)"/>
<rect x="677" y="671" width="2" height="2" fill="rgba(255,255,255,0.4629962102825428)"/>
<rect x="472" y="836" width="2" height="2" fill="rgba(255,255,255,0.25406743476121396)"/>
<rect x="1097" y="146" width="2" height="2" fill="rgba(255,255,255,0.6521308433124413)"/>
<rect x="1512" y="564" width="2" height="2" fill="rgba(255,255,255,0.6796680008744412)"/>
<rect x="1074" y="469" width="2" height="2" fill="rgba(255,255,255,0.8844085043700105)"/>
<rect x="606" y="764" width="2" height="2" fill="rgba(255,255,255,0.24355323494832268)"/>
<rect x="602" y="764" width="10" height="2" fill="rgba(255,255,255,0.24355323494832268)"/>
<rect x="606" y="760" width="2" height="10" fill="rgba(255,255,255,0.24355323494832268)"/>
<rect x="1093" y="833" width="2" height="2" fill="rgba(255,255,255,0.13641256078657468)"/>
<rect x="598" y="380" width="2" height="2" fill="rgba(255,255,255,0.20102359436672712)"/>
<rect x="1005" y="847" width="2" height="2" fill="rgba(255,255,255,0.10981232270040638)"/>
<rect x="980" y="600" width="2" height="2" fill="rgba(255,255,255,0.2474909363120654)"/>
<rect x="978" y="840" width="2" height="2" fill="rgba(255,255,255,0.152274748091146)"/>
<rect x="1181" y="440" width="2" height="2" fill="rgba(255,255,255,0.14288725943402653)"/>
<rect x="1152" y="148" width="2" height="2" fill="rgba(255,255,255,0.16814472671698405)"/>
<rect x="1142" y="320" width="2" height="2" fill="rgba(255,255,255,0.5850541209943703)"/>
<rect x="462" y="310" width="2" height="2" fill="rgba(255,255,255,0.40430242091723956)"/>
<rect x="608" y="232" width="2" height="2" fill="rgba(255,255,255,0.8920250083734383)"/>
<rect x="1271" y="872" width="2" height="2" fill="rgba(255,255,255,0.8680870219474394)"/>
<rect x="1562" y="778" width="2" height="2" fill="rgba(255,255,255,0.26882015624431443)"/>
<rect x="321" y="755" width="2" height="2" fill="rgba(255,255,255,0.5415937964622073)"/>
<rect x="836" y="592" width="2" height="2" fill="rgba(255,255,255,0.5750489560956507)"/>
<rect x="474" y="720" width="2" height="2" fill="rgba(255,255,255,0.3261746984898302)"/>
<rect x="145" y="389" width="2" height="2" fill="rgba(255,255,255,0.839128835586039)"/>
<rect x="1280" y="475" width="2" height="2" fill="rgba(255,255,255,0.7431245442251471)"/>
<rect x="235" y="514" width="2" height="2" fill="rgba(255,255,255,0.6181077787219846)"/>
<rect x="291" y="866" width="2" height="2" fill="rgba(255,255,255,0.23273823137657976)"/>
<rect x="1533" y="265" width="2" height="2" fill="rgba(255,255,255,0.8369540231741105)"/>
<rect x="959" y="388" width="2" height="2" fill="rgba(255,255,255,0.6597869479805738)"/>
<rect x="1024" y="518" width="2" height="2" fill="rgba(255,255,255,0.4502070908572784)"/>
<rect x="884" y="347" width="2" height="2" fill="rgba(255,255,255,0.5829709127567285)"/>
<rect x="880" y="347" width="10" height="2" fill="rgba(255,255,255,0.5829709127567285)"/>
<rect x="884" y="343" width="2" height="10" fill="rgba(255,255,255,0.5829709127567285)"/>
<rect x="468" y="136" width="2" height="2" fill="rgba(255,255,255,0.7687668911249451)"/>
<rect x="42" y="100" width="2" height="2" fill="rgba(255,255,255,0.6378252674425914)"/>
<rect x="82" y="321" width="2" height="2" fill="rgba(255,255,255,0.24015258235037812)"/>
<rect x="905" y="179" width="2" height="2" fill="rgba(255,255,255,0.24519131777850076)"/>
<rect x="1300" y="274" width="2" height="2" fill="rgba(255,255,255,0.8752441888525629)"/>
<rect x="836" y="685" width="2" height="2" fill="rgba(255,255,255,0.6361068076169484)"/>
<rect x="675" y="624" width="2" height="2" fill="rgba(255,255,255,0.49637521677147023)"/>
<rect x="820" y="275" width="2" height="2" fill="rgba(255,255,255,0.5400772871774263)"/>
<rect x="644" y="746" width="2" height="2" fill="rgba(255,255,255,0.1927372811447663)"/>
<rect x="1053" y="264" width="2" height="2" fill="rgba(255,255,255,0.10092085395848978)"/>
<rect x="946" y="622" width="2" height="2" fill="rgba(255,255,255,0.2500660331156217)"/>
<rect x="1549" y="553" width="2" height="2" fill="rgba(255,255,255,0.4536327645778092)"/>
<rect x="546" y="510" width="2" height="2" fill="rgba(255,255,255,0.8421382086755582)"/>
<rect x="1430" y="564" width="2" height="2" fill="rgba(255,255,255,0.12309555395333059)"/>
<rect x="490" y="369" width="2" height="2" fill="rgba(255,255,255,0.3486001107146681)"/>
<rect x="486" y="369" width="10" height="2" fill="rgba(255,255,255,0.3486001107146681)"/>
<rect x="490" y="365" width="2" height="10" fill="rgba(255,255,255,0.3486001107146681)"/>
<rect x="835" y="853" width="2" height="2" fill="rgba(255,255,255,0.8938057115161757)"/>
<rect x="945" y="150" width="2" height="2" fill="rgba(255,255,255,0.6181677510270069)"/>
<rect x="1467" y="717" width="2" height="2" fill="rgba(255,255,255,0.664329303940683)"/>
<rect x="988" y="118" width="2" height="2" fill="rgba(255,255,255,0.29498472486011074)"/>
<rect x="785" y="790" width="2" height="2" fill="rgba(255,255,255,0.57950207893992)"/>
<rect x="279" y="228" width="2" height="2" fill="rgba(255,255,255,0.3209979222576328)"/>
<rect x="849" y="680" width="2" height="2" fill="rgba(255,255,255,0.7301739246114354)"/>
<rect x="5" y="724" width="2" height="2" fill="rgba(255,255,255,0.33884467981741373)"/>
<rect x="1351" y="560" width="2" height="2" fill="rgba(255,255,255,0.2188763347062313)"/>
<rect x="706" y="686" width="2" height="2" fill="rgba(255,255,255,0.7102981420959834)"/>
<rect x="659" y="223" width="2" height="2" fill="rgba(255,255,255,0.8846197050660755)"/>
<rect x="784" y="760" width="2" height="2" fill="rgba(255,255,255,0.7204355800794071)"/>
<rect x="780" y="760" width="10" height="2" fill="rgba(255,255,255,0.7204355800794071)"/>
<rect x="784" y="756" width="2" height="10" fill="rgba(255,255,255,0.7204355800794071)"/>
<rect x="1525" y="574" width="2" height="2" fill="rgba(255,255,255,0.8307441342557007)"/>
<rect x="1359" y="294" width="2" height="2" fill="rgba(255,255,255,0.6216152011204847)"/>
<rect x="75" y="833" width="2" height="2" fill="rgba(255,255,255,0.872282872141483)"/>
<rect x="205" y="219" width="2" height="2" fill="rgba(255,255,255,0.4522449678165418)"/>
<rect x="935" y="894" width="2" height="2" fill="rgba(255,255,255,0.215324332773558)"/>
<rect x="316" y="864" width="2" height="2" fill="rgba(255,255,255,0.7252202330184199)"/>
<rect x="1276" y="385" width="2" height="2" fill="rgba(255,255,255,0.619869322063418)"/>
<rect x="1381" y="233" width="2" height="2" fill="rgba(255,255,255,0.40400751801812407)"/>
<rect x="1471" y="206" width="2" height="2" fill="rgba(255,255,255,0.49035798831214317)"/>
<rect x="1264" y="867" width="2" height="2" fill="rgba(255,255,255,0.6049288134837124)"/>
<rect x="465" y="336" width="2" height="2" fill="rgba(255,255,255,0.4471771775385006)"/>
<rect x="1297" y="375" width="2" height="2" fill="rgba(255,255,255,0.18040579225825396)"/>
<rect x="613" y="191" width="2" height="2" fill="rgba(255,255,255,0.13679277494177022)"/>
<rect x="600" y="666" width="2" height="2" fill="rgba(255,255,255,0.44454943028432004)"/>
<rect x="843" y="495" width="2" height="2" fill="rgba(255,255,255,0.7340155791047626)"/>
<rect x="161" y="458" width="2" height="2" fill="rgba(255,255,255,0.40603543889349913)"/>
<rect x="1019" y="182" width="2" height="2" fill="rgba(255,255,255,0.21449417610280774)"/>
<rect x="520" y="585" width="2" height="2" fill="rgba(255,255,255,0.6334725738131846)"/>
<rect x="952" y="193" width="2" height="2" fill="rgba(255,255,255,0.6420887085592636)"/>
<rect x="904" y="152" width="2" height="2" fill="rgba(255,255,255,0.8901213561747772)"/>
<rect x="868" y="387" width="2" height="2" fill="rgba(255,255,255,0.4654686501342292)"/>
<rect x="787" y="238" width="2" height="2" fill="rgba(255,255,255,0.18532261393788874)"/>
<rect x="735" y="488" width="2" height="2" fill="rgba(255,255,255,0.8941536349015181)"/>
<rect x="1348" y="636" width="2" height="2" fill="rgba(255,255,255,0.1064783726091922)"/>
<rect x="1593" y="338" width="2" height="2" fill="rgba(255,255,255,0.13923540062079998)"/>
<rect x="1017" y="257" width="2" height="2" fill="rgba(255,255,255,0.8223479347598204)"/>
<rect x="471" y="460" width="2" height="2" fill="rgba(255,255,255,0.38185676466825325)"/>
<rect x="1271" y="747" width="2" height="2" fill="rgba(255,255,255,0.7044618589933418)"/>
<rect x="1394" y="252" width="2" height="2" fill="rgba(255,255,255,0.6025984829495187)"/>
<rect x="1323" y="883" width="2" height="2" fill="rgba(255,255,255,0.7308883872081231)"/>
<rect x="1319" y="883" width="10" height="2" fill="rgba(255,255,255,0.7308883872081231)"/>
<rect x="1323" y="879" width="2" height="10" fill="rgba(255,255,255,0.7308883872081231)"/>
<rect x="747" y="349" width="2" height="2" fill="rgba(255,255,255,0.17210670059697514)"/>
<rect x="1530" y="621" width="2" height="2" fill="rgba(255,255,255,0.260635835720061)"/>
<rect x="749" y="525" width="2" height="2" fill="rgba(255,255,255,0.8307895795853576)"/>
<rect x="526" y="181" width="2" height="2" fill="rgba(255,255,255,0.8553502528777589)"/>
<rect x="604" y="336" width="2" height="2" fill="rgba(255,255,255,0.370972203041509)"/>
<rect x="154" y="823" width="2" height="2" fill="rgba(255,255,255,0.8732001675702017)"/>
<rect x="1483" y="401" width="2" height="2" fill="rgba(255,255,255,0.41792919616263946)"/>
<rect x="1141" y="660" width="2" height="2" fill="rgba(255,255,255,0.73254557487115)"/>
<rect x="1137" y="660" width="10" height="2" fill="rgba(255,255,255,0.73254557487115)"/>
<rect x="1141" y="656" width="2" height="10" fill="rgba(255,255,255,0.73254557487115)"/>
<rect x="1098" y="834" width="2" height="2" fill="rgba(255,255,255,0.39486852689283125)"/>
<rect x="536" y="479" width="2" height="2" fill="rgba(255,255,255,0.7579338409814195)"/>
<rect x="221" y="400" width="2" height="2" fill="rgba(255,255,255,0.4771814943851509)"/>
<rect x="1149" y="690" width="2" height="2" fill="rgba(255,255,255,0.5880657566867303)"/>
<rect x="1301" y="265" width="2" height="2" fill="rgba(255,255,255,0.8275101107423136)"/>
<rect x="836" y="839" width="2" height="2" fill="rgba(255,255,255,0.1362774488107057)"/>
<rect x="832" y="839" width="10" height="2" fill="rgba(255,255,255,0.1362774488107057)"/>
<rect x="836" y="835" width="2" height="10" fill="rgba(255,255,255,0.1362774488107057)"/>
<rect x="1008" y="839" width="2" height="2" fill="rgba(255,255,255,0.2878400259450633)"/>
<rect x="795" y="590" width="2" height="2" fill="rgba(255,255,255,0.636388975080137)"/>
<rect x="1106" y="618" width="2" height="2" fill="rgba(255,255,255,0.6938152118122527)"/>
<rect x="849" y="418" width="2" height="2" fill="rgba(255,255,255,0.7669544666370572)"/>
<rect x="572" y="886" width="2" height="2" fill="rgba(255,255,255,0.39642396698754834)"/>
<rect x="483" y="236" width="2" height="2" fill="rgba(255,255,255,0.17948369968490427)"/>
<rect x="1115" y="193" width="2" height="2" fill="rgba(255,255,255,0.6158614478032222)"/>
<rect x="565" y="791" width="2" height="2" fill="rgba(255,255,255,0.197727775269811)"/>
<rect x="931" y="854" width="2" height="2" fill="rgba(255,255,255,0.2696846523386506)"/>
<rect x="43" y="877" width="2" height="2" fill="rgba(255,255,255,0.3668073251460128)"/>
<rect x="1156" y="780" width="2" height="2" fill="rgba(255,255,255,0.7638542697737061)"/>
<rect x="1200" y="772" width="2" height="2" fill="rgba(255,255,255,0.7957563414156358)"/>
<rect x="302" y="298" width="2" height="2" fill="rgba(255,255,255,0.5767853081395361)"/>
<rect x="296" y="111" width="2" height="2" fill="rgba(255,255,255,0.5321723654905212)"/>
<rect x="225" y="413" width="2" height="2" fill="rgba(255,255,255,0.1206241198289587)"/>
<rect x="221" y="413" width="10" height="2" fill="rgba(255,255,255,0.1206241198289587)"/>
<rect x="225" y="409" width="2" height="10" fill="rgba(255,255,255,0.1206241198289587)"/>
<rect x="487" y="476" width="2" height="2" fill="rgba(255,255,255,0.1126248668089282)"/>
<rect x="259" y="341" width="2" height="2" fill="rgba(255,255,255,0.5208684212782937)"/>
<rect x="975" y="594" width="2" height="2" fill="rgba(255,255,255,0.3896311790540097)"/>
<rect x="925" y="548" width="2" height="2" fill="rgba(255,255,255,0.856332514376085)"/>
<rect x="921" y="548" width="10" height="2" fill="rgba(255,255,255,0.856332514376085)"/>
<rect x="925" y="544" width="2" height="10" fill="rgba(255,255,255,0.856332514376085)"/>
<rect x="1349" y="533" width="2" height="2" fill="rgba(255,255,255,0.46643401767814563)"/>
<rect x="124" y="101" width="2" height="2" fill="rgba(255,255,255,0.7778388345337942)"/>
<rect x="221" y="559" width="2" height="2" fill="rgba(255,255,255,0.8277606632921835)"/>
<rect x="165" y="694" width="2" height="2" fill="rgba(255,255,255,0.21866706052829166)"/>
<rect x="1278" y="437" width="2" height="2" fill="rgba(255,255,255,0.5386851472386884)"/>
<rect x="1223" y="526" width="2" height="2" fill="rgba(255,255,255,0.4629723340603773)"/>
<rect x="203" y="294" width="2" height="2" fill="rgba(255,255,255,0.1915312579440637)"/>
<rect x="1574" y="508" width="2" height="2" fill="rgba(255,255,255,0.7923938525618497)"/>
<rect x="467" y="622" width="2" height="2" fill="rgba(255,255,255,0.7619353798240358)"/>
<rect x="1494" y="852" width="2" height="2" fill="rgba(255,255,255,0.4414112050087664)"/>
<rect x="766" y="144" width="2" height="2" fill="rgba(255,255,255,0.6494568283735813)"/>
<rect x="186" y="258" width="2" height="2" fill="rgba(255,255,255,0.17458408136294193)"/>
<rect x="1513" y="655" width="2" height="2" fill="rgba(255,255,255,0.2040923628590747)"/>
<rect x="1150" y="499" width="2" height="2" fill="rgba(255,255,255,0.6360106117858366)"/>
<rect x="1362" y="156" width="2" height="2" fill="rgba(255,255,255,0.4383494846111068)"/>
<rect x="105" y="130" width="2" height="2" fill="rgba(255,255,255,0.5803280729797416)"/>
<rect x="1183" y="545" width="2" height="2" fill="rgba(255,255,255,0.22378414068660915)"/>
<rect x="221" y="672" width="2" height="2" fill="rgba(255,255,255,0.5450123808834615)"/>
<rect x="570" y="488" width="2" height="2" fill="rgba(255,255,255,0.7457770969218755)"/>
<rect x="1571" y="270" width="2" height="2" fill="rgba(255,255,255,0.5908586244283719)"/>
<rect x="53" y="458" width="2" height="2" fill="rgba(255,255,255,0.6262649823991107)"/>
<rect x="59" y="797" width="2" height="2" fill="rgba(255,255,255,0.6621590182924837)"/>
<rect x="695" y="672" width="2" height="2" fill="rgba(255,255,255,0.24512444657005494)"/>
<rect x="1346" y="632" width="2" height="2" fill="rgba(255,255,255,0.21349972332101494)"/>
<rect x="62" y="854" width="2" height="2" fill="rgba(255,255,255,0.5243861509271436)"/>
<rect x="929" y="680" width="2" height="2" fill="rgba(255,255,255,0.3960424739816032)"/>
<rect x="1590" y="155" width="2" height="2" fill="rgba(255,255,255,0.5769790177640738)"/>
<rect x="318" y="812" width="2" height="2" fill="rgba(255,255,255,0.5942705455408245)"/>
<rect x="557" y="598" width="2" height="2" fill="rgba(255,255,255,0.43921181849039614)"/>
<rect x="848" y="731" width="2" height="2" fill="rgba(255,255,255,0.7039545149346965)"/>
<rect x="880" y="842" width="2" height="2" fill="rgba(255,255,255,0.6425743143468275)"/>
<rect x="1079" y="407" width="2" height="2" fill="rgba(255,255,255,0.13633389008354202)"/>
<rect x="1227" y="875" width="2" height="2" fill="rgba(255,255,255,0.26353849948298547)"/>
<rect x="1571" y="826" width="2" height="2" fill="rgba(255,255,255,0.30441560321716743)"/>
<rect x="15" y="553" width="2" height="2" fill="rgba(255,255,255,0.44452400908288237)"/>
<rect x="1090" y="375" width="2" height="2" fill="rgba(255,255,255,0.5002098772449706)"/>
<rect x="725" y="865" width="2" height="2" fill="rgba(255,255,255,0.7894114896180708)"/>
<rect x="721" y="865" width="10" height="2" fill="rgba(255,255,255,0.7894114896180708)"/>
<rect x="725" y="861" width="2" height="10" fill="rgba(255,255,255,0.7894114896180708)"/>
<rect x="38" y="585" width="2" height="2" fill="rgba(255,255,255,0.16229008950060608)"/>
<rect x="879" y="489" width="2" height="2" fill="rgba(255,255,255,0.6675991692551474)"/>
<rect x="235" y="629" width="2" height="2" fill="rgba(255,255,255,0.872959752826501)"/>
<rect x="1265" y="584" width="2" height="2" fill="rgba(255,255,255,0.6516880328641519)"/>
<rect x="894" y="246" width="2" height="2" fill="rgba(255,255,255,0.29465317985818695)"/>
<rect x="1073" y="862" width="2" height="2" fill="rgba(255,255,255,0.7964195329563294)"/>
<rect x="453" y="686" width="2" height="2" fill="rgba(255,255,255,0.23450616643654928)"/>
<rect x="233" y="526" width="2" height="2" fill="rgba(255,255,255,0.2551229650135203)"/>
<rect x="719" y="353" width="2" height="2" fill="rgba(255,255,255,0.7551588812198816)"/>
<rect x="483" y="847" width="2" height="2" fill="rgba(255,255,255,0.30477457760138393)"/>
<rect x="313" y="324" width="2" height="2" fill="rgba(255,255,255,0.6244072084149913)"/>
<rect x="1582" y="442" width="2" height="2" fill="rgba(255,255,255,0.47116245481041563)"/>
<rect x="1186" y="594" width="2" height="2" fill="rgba(255,255,255,0.8393234067085275)"/>
<rect x="1301" y="112" width="2" height="2" fill="rgba(255,255,255,0.35856659331468854)"/>
<rect x="647" y="817" width="2" height="2" fill="rgba(255,255,255,0.15462900679660488)"/>
<rect x="620" y="291" width="2" height="2" fill="rgba(255,255,255,0.5731358054648168)"/>
<rect x="151" y="703" width="2" height="2" fill="rgba(255,255,255,0.4615310909605458)"/>
<rect x="587" y="863" width="2" height="2" fill="rgba(255,255,255,0.7914000271401913)"/>
<rect x="1259" y="471" width="2" height="2" fill="rgba(255,255,255,0.407585981265972)"/>
<rect x="1513" y="198" width="2" height="2" fill="rgba(255,255,255,0.4597869629207251)"/>
<rect x="1334" y="792" width="2" height="2" fill="rgba(255,255,255,0.5840046672560514)"/>
<rect x="126" y="592" width="2" height="2" fill="rgba(255,255,255,0.7487734490580966)"/>
<rect x="1462" y="858" width="2" height="2" fill="rgba(255,255,255,0.6169016729149753)"/>
<rect x="1458" y="858" width="10" height="2" fill="rgba(255,255,255,0.6169016729149753)"/>
<rect x="1462" y="854" width="2" height="10" fill="rgba(255,255,255,0.6169016729149753)"/>
<rect x="1449" y="603" width="2" height="2" fill="rgba(255,255,255,0.45153743341009944)"/>
<rect x="325" y="662" width="2" height="2" fill="rgba(255,255,255,0.8343494312935684)"/>
<rect x="1586" y="682" width="2" height="2" fill="rgba(255,255,255,0.5783086899063916)"/>
<rect x="1325" y="684" width="2" height="2" fill="rgba(255,255,255,0.3637526040941831)"/>
<rect x="791" y="723" width="2" height="2" fill="rgba(255,255,255,0.6789869240019695)"/>
<rect x="1234" y="220" width="2" height="2" fill="rgba(255,255,255,0.36668962884844525)"/>
<rect x="289" y="179" width="2" height="2" fill="rgba(255,255,255,0.34818539004144966)"/>
<rect x="1356" y="639" width="2" height="2" fill="rgba(255,255,255,0.5760329825212599)"/>
<rect x="634" y="501" width="2" height="2" fill="rgba(255,255,255,0.6147946106890556)"/>
<rect x="261" y="405" width="2" height="2" fill="rgba(255,255,255,0.7631671783155717)"/>
<rect x="1403" y="183" width="2" height="2" fill="rgba(255,255,255,0.17476237205281742)"/>
<rect x="1041" y="663" width="2" height="2" fill="rgba(255,255,255,0.3900781351856355)"/>
<rect x="438" y="679" width="2" height="2" fill="rgba(255,255,255,0.7129249661342557)"/>
<rect x="281" y="814" width="2" height="2" fill="rgba(255,255,255,0.3366336813236974)"/>
<rect x="1039" y="314" width="2" height="2" fill="rgba(255,255,255,0.7680958613076448)"/>
<rect x="77" y="412" width="2" height="2" fill="rgba(255,255,255,0.8011142180341935)"/>
<rect x="1223" y="652" width="2" height="2" fill="rgba(255,255,255,0.2297977696707604)"/>
<rect x="1579" y="445" width="2" height="2" fill="rgba(255,255,255,0.8221247861715505)"/>
<rect x="89" y="624" width="2" height="2" fill="rgba(255,255,255,0.6410903377508264)"/>
<rect x="909" y="457" width="2" height="2" fill="rgba(255,255,255,0.7019129320891888)"/>
<rect x="479" y="523" width="2" height="2" fill="rgba(255,255,255,0.3475743172502317)"/>
<rect x="960" y="191" width="2" height="2" fill="rgba(255,255,255,0.2552129409780559)"/>
<rect x="1168" y="114" width="2" height="2" fill="rgba(255,255,255,0.4693439827527913)"/>
<rect x="782" y="549" width="2" height="2" fill="rgba(255,255,255,0.4349286613837967)"/>
<rect x="408" y="286" width="2" height="2" fill="rgba(255,255,255,0.21071882768274497)"/>
<rect x="1313" y="567" width="2" height="2" fill="rgba(255,255,255,0.39696968528354615)"/>
<rect x="1456" y="245" width="2" height="2" fill="rgba(255,255,255,0.780932838467823)"/>
<rect x="1562" y="811" width="2" height="2" fill="rgba(255,255,255,0.45945537629906064)"/>
<rect x="895" y="854" width="2" height="2" fill="rgba(255,255,255,0.8284039629819274)"/>
<rect x="715" y="166" width="2" height="2" fill="rgba(255,255,255,0.4319175246552044)"/>
<rect x="765" y="758" width="2" height="2" fill="rgba(255,255,255,0.895620280990633)"/>
<rect x="57" y="697" width="2" height="2" fill="rgba(255,255,255,0.1792664995144384)"/>
<rect x="686" y="295" width="2" height="2" fill="rgba(255,255,255,0.21007967018069734)"/>
<rect x="967" y="382" width="2" height="2" fill="rgba(255,255,255,0.21103415345454898)"/>
<rect x="918" y="453" width="2" height="2" fill="rgba(255,255,255,0.8246859912826167)"/>
<rect x="914" y="453" width="10" height="2" fill="rgba(255,255,255,0.8246859912826167)"/>
<rect x="918" y="449" width="2" height="10" fill="rgba(255,255,255,0.8246859912826167)"/>
<rect x="441" y="255" width="2" height="2" fill="rgba(255,255,255,0.5390433963550684)"/>
<rect x="1080" y="614" width="2" height="2" fill="rgba(255,255,255,0.7209381061083172)"/>
<rect x="249" y="879" width="2" height="2" fill="rgba(255,255,255,0.4358604350027545)"/>
<rect x="936" y="871" width="2" height="2" fill="rgba(255,255,255,0.7693501764842682)"/>
<rect x="1097" y="894" width="2" height="2" fill="rgba(255,255,255,0.5123005841675249)"/>
<rect x="294" y="717" width="2" height="2" fill="rgba(255,255,255,0.1012514687467192)"/>
<rect x="1168" y="620" width="2" height="2" fill="rgba(255,255,255,0.6314970413936073)"/>
<rect x="738" y="868" width="2" height="2" fill="rgba(255,255,255,0.5208475562577365)"/>
<rect x="1039" y="506" width="2" height="2" fill="rgba(255,255,255,0.4123629860480513)"/>
<rect x="1301" y="644" width="2" height="2" fill="rgba(255,255,255,0.39864190968066604)"/>
<rect x="731" y="298" width="2" height="2" fill="rgba(255,255,255,0.3758419945307131)"/>
<rect x="1286" y="847" width="2" height="2" fill="rgba(255,255,255,0.5655226572465121)"/>
<rect x="273" y="880" width="2" height="2" fill="rgba(255,255,255,0.5368109961661532)"/>
<rect x="358" y="259" width="2" height="2" fill="rgba(255,255,255,0.6477460531271868)"/>
<rect x="980" y="438" width="2" height="2" fill="rgba(255,255,255,0.7491981454780852)"/>
<rect x="1589" y="153" width="2" height="2" fill="rgba(255,255,255,0.1295870321598206)"/>
<rect x="408" y="208" width="2" height="2" fill="rgba(255,255,255,0.3524766560397803)"/>
<rect x="815" y="110" width="2" height="2" fill="rgba(255,255,255,0.5344245581233488)"/>
<path d="M 0 900 L 0 650 L 0 650 L 0 650 L 20 650 L 20 650 L 40 650 L 40 650 L 60 650 L 60 650 L 80 650 L 80 650 L 100 650 L 100 650 L 120 650 L 120 670 L 140 670 L 140 670 L 160 670 L 160 670 L 180 670 L 180 670 L 200 670 L 200 670 L 220 670 L 220 670 L 240 670 L 240 670 L 260 670 L 260 670 L 280 670 L 280 670 L 300 670 L 300 670 L 320 670 L 320 670 L 340 670 L 340 670 L 360 670 L 360 670 L 380 670 L 380 650 L 400 650 L 400 650 L 420 650 L 420 650 L 440 650 L 440 650 L 460 650 L 460 650 L 480 650 L 480 650 L 500 650 L 500 650 L 520 650 L 520 650 L 540 650 L 540 650 L 560 650 L 560 650 L 580 650 L 580 650 L 600 650 L 600 630 L 620 630 L 620 630 L 640 630 L 640 630 L 660 630 L 660 630 L 680 630 L 680 630 L 700 630 L 700 630 L 720 630 L 720 630 L 740 630 L 740 630 L 760 630 L 760 630 L 780 630 L 780 630 L 800 630 L 800 630 L 820 630 L 820 630 L 840 630 L 840 650 L 860 650 L 860 650 L 880 650 L 880 650 L 900 650 L 900 650 L 920 650 L 920 650 L 940 650 L 940 650 L 960 650 L 960 650 L 980 650 L 980 650 L 1000 650 L 1000 650 L 1020 650 L 1020 650 L 1040 650 L 1040 650 L 1060 650 L 1060 670 L 1080 670 L 1080 670 L 1100 670 L 1100 670 L 1120 670 L 1120 670 L 1140 670 L 1140 670 L 1160 670 L 1160 670 L 1180 670 L 1180 670 L 1200 670 L 1200 670 L 1220 670 L 1220 670 L 1240 670 L 1240 670 L 1260 670 L 1260 670 L 1280 670 L 1280 670 L 1300 670 L 1300 670 L 1320 670 L 1320 650 L 1340 650 L 1340 650 L 1360 650 L 1360 650 L 1380 650 L 1380 650 L 1400 650 L 1400 650 L 1420 650 L 1420 650 L 1440 650 L 1440 650 L 1460 650 L 1460 650 L 1480 650 L 1480 650 L 1500 650 L 1500 650 L 1520 650 L 1520 650 L 1540 650 L 1540 630 L 1560 630 L 1560 630 L 1580 630 L 1580 630 L 1600 630 L 1600 630 L 1600 900 Z" fill="#2c2b53"/>
<path d="M 0 900 L 0 690 L 0 690 L 0 710 L 20 710 L 20 710 L 40 710 L 40 710 L 60 710 L 60 710 L 80 710 L 80 710 L 100 710 L 100 710 L 120 710 L 120 710 L 140 710 L 140 710 L 160 710 L 160 710 L 180 710 L 180 710 L 200 710 L 200 710 L 220 710 L 220 710 L 240 710 L 240 710 L 260 710 L 260 710 L 280 710 L 280 710 L 300 710 L 300 710 L 320 710 L 320 710 L 340 710 L 340 690 L 360 690 L 360 690 L 380 690 L 380 690 L 400 690 L 400 690 L 420 690 L 420 690 L 440 690 L 440 690 L 460 690 L 460 690 L 480 690 L 480 690 L 500 690 L 500 690 L 520 690 L 520 690 L 540 690 L 540 670 L 560 670 L 560 670 L 580 670 L 580 670 L 600 670 L 600 670 L 620 670 L 620 670 L 640 670 L 640 670 L 660 670 L 660 670 L 680 670 L 680 670 L 700 670 L 700 670 L 720 670 L 720 670 L 740 670 L 740 670 L 760 670 L 760 670 L 780 670 L 780 670 L 800 670 L 800 670 L 820 670 L 820 670 L 840 670 L 840 670 L 860 670 L 860 670 L 880 670 L 880 670 L 900 670 L 900 670 L 920 670 L 920 670 L 940 670 L 940 670 L 960 670 L 960 690 L 980 690 L 980 690 L 1000 690 L 1000 690 L 1020 690 L 1020 690 L 1040 690 L 1040 690 L 1060 690 L 1060 690 L 1080 690 L 1080 690 L 1100 690 L 1100 690 L 1120 690 L 1120 690 L 1140 690 L 1140 690 L 1160 690 L 1160 690 L 1180 690 L 1180 710 L 1200 710 L 1200 710 L 1220 710 L 1220 710 L 1240 710 L 1240 710 L 1260 710 L 1260 710 L 1280 710 L 1280 710 L 1300 710 L 1300 710 L 1320 710 L 1320 710 L 1340 710 L 1340 710 L 1360 710 L 1360 710 L 1380 710 L 1380 710 L 1400 710 L 1400 710 L 1420 710 L 1420 710 L 1440 710 L 1440 710 L 1460 710 L 1460 710 L 1480 710 L 1480 710 L 1500 710 L 1500 710 L 1520 710 L 1520 710 L 1540 710 L 1540 710 L 1560 710 L 1560 710 L 1580 710 L 1580 710 L 1600 710 L 1600 690 L 1600 900 Z" fill="#393663"/>
<path d="M 0 900 L 0 730 L 0 730 L 0 770 L 20 770 L 20 770 L 40 770 L 40 770 L 60 770 L 60 770 L 80 770 L 80 770 L 100 770 L 100 770 L 120 770 L 120 770 L 140 770 L 140 770 L 160 770 L 160 750 L 180 750 L 180 750 L 200 750 L 200 750 L 220 750 L 220 750 L 240 750 L 240 750 L 260 750 L 260 750 L 280 750 L 280 750 L 300 750 L 300 730 L 320 730 L 320 730 L 340 730 L 340 730 L 360 730 L 360 730 L 380 730 L 380 730 L 400 730 L 400 730 L 420 730 L 420 730 L 440 730 L 440 730 L 460 730 L 460 730 L 480 730 L 480 730 L 500 730 L 500 710 L 520 710 L 520 710 L 540 710 L 540 710 L 560 710 L 560 710 L 580 710 L 580 710 L 600 710 L 600 710 L 620 710 L 620 690 L 640 690 L 640 690 L 660 690 L 660 690 L 680 690 L 680 690 L 700 690 L 700 690 L 720 690 L 720 690 L 740 690 L 740 690 L 760 690 L 760 690 L 780 690 L 780 690 L 800 690 L 800 690 L 820 690 L 820 690 L 840 690 L 840 690 L 860 690 L 860 690 L 880 690 L 880 690 L 900 690 L 900 690 L 920 690 L 920 690 L 940 690 L 940 710 L 960 710 L 960 710 L 980 710 L 980 710 L 1000 710 L 1000 710 L 1020 710 L 1020 710 L 1040 710 L 1040 710 L 1060 710 L 1060 710 L 1080 710 L 1080 730 L 1100 730 L 1100 730 L 1120 730 L 1120 730 L 1140 730 L 1140 730 L 1160 730 L 1160 730 L 1180 730 L 1180 730 L 1200 730 L 1200 730 L 1220 730 L 1220 730 L 1240 730 L 1240 730 L 1260 730 L 1260 730 L 1280 730 L 1280 750 L 1300 750 L 1300 750 L 1320 750 L 1320 750 L 1340 750 L 1340 750 L 1360 750 L 1360 750 L 1380 750 L 1380 750 L 1400 750 L 1400 750 L 1420 750 L 1420 770 L 1440 770 L 1440 770 L 1460 770 L 1460 770 L 1480 770 L 1480 770 L 1500 770 L 1500 770 L 1520 770 L 1520 770 L 1540 770 L 1540 770 L 1560 770 L 1560 770 L 1580 770 L 1580 770 L 1600 770 L 1600 770 L 1600 900 Z" fill="#494474"/>
<path d="M 0 900 L 0 770 L 0 770 L 0 810 L 20 810 L 20 810 L 40 810 L 40 810 L 60 810 L 60 810 L 80 810 L 80 810 L 100 810 L 100 810 L 120 810 L 120 810 L 140 810 L 140 790 L 160 790 L 160 790 L 180 790 L 180 790 L 200 790 L 200 790 L 220 790 L 220 790 L 240 790 L 240 790 L 260 790 L 260 770 L 280 770 L 280 770 L 300 770 L 300 770 L 320 770 L 320 770 L 340 770 L 340 770 L 360 770 L 360 770 L 380 770 L 380 770 L 400 770 L 400 770 L 420 770 L 420 770 L 440 770 L 440 770 L 460 770 L 460 750 L 480 750 L 480 750 L 500 750 L 500 750 L 520 750 L 520 750 L 540 750 L 540 750 L 560 750 L 560 750 L 580 750 L 580 730 L 600 730 L 600 730 L 620 730 L 620 730 L 640 730 L 640 730 L 660 730 L 660 730 L 680 730 L 680 730 L 700 730 L 700 730 L 720 730 L 720 730 L 740 730 L 740 730 L 760 730 L 760 730 L 780 730 L 780 730 L 800 730 L 800 730 L 820 730 L 820 730 L 840 730 L 840 730 L 860 730 L 860 730 L 880 730 L 880 730 L 900 730 L 900 730 L 920 730 L 920 730 L 940 730 L 940 730 L 960 730 L 960 730 L 980 730 L 980 730 L 1000 730 L 1000 730 L 1020 730 L 1020 730 L 1040 730 L 1040 730 L 1060 730 L 1060 730 L 1080 730 L 1080 750 L 1100 750 L 1100 750 L 1120 750 L 1120 750 L 1140 750 L 1140 750 L 1160 750 L 1160 750 L 1180 750 L 1180 750 L 1200 750 L 1200 770 L 1220 770 L 1220 770 L 1240 770 L 1240 770 L 1260 770 L 1260 770 L 1280 770 L 1280 770 L 1300 770 L 1300 770 L 1320 770 L 1320 770 L 1340 770 L 1340 770 L 1360 770 L 1360 770 L 1380 770 L 1380 770 L 1400 770 L 1400 790 L 1420 790 L 1420 790 L 1440 790 L 1440 790 L 1460 790 L 1460 790 L 1480 790 L 1480 790 L 1500 790 L 1500 790 L 1520 790 L 1520 810 L 1540 810 L 1540 810 L 1560 810 L 1560 810 L 1580 810 L 1580 810 L 1600 810 L 1600 810 L 1600 900 Z" fill="#595085"/>
</svg>