<svg xmlns="http://www.w3.org/2000/svg" width="800" height="800" fill="none" shape-rendering="crispEdges">
<rect x="544" y="64" width="16.5" height="16.5" fill="rgba(255,255,255,0.02102286378470561)"/>
<rect x="560" y="64" width="16.5" height="16.5" fill="rgba(255,255,255,0.022208686493186074)"/>
<rect x="528" y="80" width="16.5" height="16.5" fill="rgba(255,255,255,0.010145650754762026)"/>
<rect x="544" y="80" width="16.5" height="16.5" fill="rgba(255,255,255,0.010780863990070663)"/>
<rect x="560" y="80" width="16.5" height="16.5" fill="rgba(255,255,255,0.022785538466177292)"/>
<rect x="576" y="80" width="16.5" height="16.5" fill="rgba(255,255,255,0.023961406523988926)"/>
<rect x="592" y="80" width="16.5" height="16.5" fill="rgba(255,255,255,0.02508869520427063)"/>
<rect x="528" y="96" width="16.5" height="16.5" fill="rgba(255,255,255,0.010415891783072857)"/>
<rect x="544" y="96" width="16.5" height="16.5" fill="rgba(255,255,255,0.011073668442727728)"/>
<rect x="560" y="96" width="16.5" height="16.5" fill="rgba(255,255,255,0.0117052240336319)"/>
<rect x="576" y="96" width="16.5" height="16.5" fill="rgba(255,255,255,0.01230999167282816)"/>
<rect x="592" y="96" width="16.5" height="16.5" fill="rgba(255,255,255,0.025775598040912145)"/>
<rect x="608" y="96" width="16.5" height="16.5" fill="rgba(255,255,255,0.026877616598205707)"/>
<rect x="560" y="112" width="16.5" height="16.5" fill="rgba(255,255,255,0.012044532663961605)"/>
<rect x="576" y="112" width="16.5" height="16.5" fill="rgba(255,255,255,0.012666296134834474)"/>
<rect x="592" y="112" width="16.5" height="16.5" fill="rgba(255,255,255,0.013258094151290065)"/>
<rect x="608" y="112" width="16.5" height="16.5" fill="rgba(255,255,255,0.02764066140332997)"/>
<rect x="624" y="112" width="16.5" height="16.5" fill="rgba(255,255,255,0.02870740526167371)"/>
<rect x="640" y="112" width="16.5" height="16.5" fill="rgba(255,255,255,0.0297182584820542)"/>
<rect x="592" y="128" width="16.5" height="16.5" fill="rgba(255,255,255,0.013657999376909032)"/>
<rect x="608" y="128" width="16.5" height="16.5" fill="rgba(255,255,255,0.01423075456458817)"/>
<rect x="624" y="128" width="16.5" height="16.5" fill="rgba(255,255,255,0.02954384184259895)"/>
<rect x="640" y="128" width="16.5" height="16.5" fill="rgba(255,255,255,0.030565490798197835)"/>
<rect x="656" y="128" width="16.5" height="16.5" fill="rgba(255,255,255,0.0315292423005133)"/>
<rect x="608" y="144" width="16.5" height="16.5" fill="rgba(255,255,255,0.014672803421197773)"/>
<rect x="624" y="144" width="16.5" height="16.5" fill="rgba(255,255,255,0.015220505092400919)"/>
<rect x="640" y="144" width="16.5" height="16.5" fill="rgba(255,255,255,0.015735324312509468)"/>
<rect x="656" y="144" width="16.5" height="16.5" fill="rgba(255,255,255,0.032438055098076554)"/>
<rect x="672" y="144" width="16.5" height="16.5" fill="rgba(255,255,255,0.03334686789563981)"/>
<rect x="624" y="160" width="16.5" height="16.5" fill="rgba(255,255,255,0.015701991034045654)"/>
<rect x="640" y="160" width="16.5" height="16.5" fill="rgba(255,255,255,0.016219027549038277)"/>
<rect x="656" y="160" width="16.5" height="16.5" fill="rgba(255,255,255,0.016702730785567083)"/>
<rect x="672" y="160" width="16.5" height="16.5" fill="rgba(255,255,255,0.03431061939795527)"/>
<rect x="688" y="160" width="16.5" height="16.5" fill="rgba(255,255,255,0.03515785171409891)"/>
<rect x="640" y="176" width="16.5" height="16.5" fill="rgba(255,255,255,0.016736064064030897)"/>
<rect x="656" y="176" width="16.5" height="16.5" fill="rgba(255,255,255,0.01721755000567563)"/>
<rect x="672" y="176" width="16.5" height="16.5" fill="rgba(255,255,255,0.03533226835355416)"/>
<rect x="688" y="176" width="16.5" height="16.5" fill="rgba(255,255,255,0.0361687049344794)"/>
<rect x="656" y="192" width="16.5" height="16.5" fill="rgba(255,255,255,0.01776525167687878)"/>
<rect x="672" y="192" width="16.5" height="16.5" fill="rgba(255,255,255,0.018207300533488385)"/>
<rect x="688" y="192" width="16.5" height="16.5" fill="rgba(255,255,255,0.03723544879282314)"/>
<rect x="704" y="192" width="16.5" height="16.5" fill="rgba(255,255,255,0.037998493597947394)"/>
<rect x="672" y="208" width="16.5" height="16.5" fill="rgba(255,255,255,0.018780055721167522)"/>
<rect x="688" y="208" width="16.5" height="16.5" fill="rgba(255,255,255,0.019179960946786485)"/>
<rect x="704" y="208" width="16.5" height="16.5" fill="rgba(255,255,255,0.039100512155240956)"/>
<rect x="720" y="208" width="16.5" height="16.5" fill="rgba(255,255,255,0.03978741499188247)"/>
<rect x="688" y="224" width="16.5" height="16.5" fill="rgba(255,255,255,0.019771758963242077)"/>
<rect x="704" y="224" width="16.5" height="16.5" fill="rgba(255,255,255,0.02012806342524839)"/>
<rect x="720" y="224" width="16.5" height="16.5" fill="rgba(255,255,255,0.04091470367216418)"/>
<rect x="688" y="240" width="16.5" height="16.5" fill="rgba(255,255,255,0.020393522434114946)"/>
<rect x="704" y="240" width="16.5" height="16.5" fill="rgba(255,255,255,0.020732831064444655)"/>
<rect x="720" y="240" width="16.5" height="16.5" fill="rgba(255,255,255,0.042090571729975816)"/>
<rect x="736" y="240" width="16.5" height="16.5" fill="rgba(255,255,255,0.042667423702967035)"/>
<rect x="704" y="256" width="16.5" height="16.5" fill="rgba(255,255,255,0.021364386655348826)"/>
<rect x="720" y="256" width="16.5" height="16.5" fill="rgba(255,255,255,0.02165719110800589)"/>
<rect x="736" y="256" width="16.5" height="16.5" fill="rgba(255,255,255,0.0438532464114475)"/>
<rect x="704" y="272" width="16.5" height="16.5" fill="rgba(255,255,255,0.022022163315003698)"/>
<rect x="720" y="272" width="16.5" height="16.5" fill="rgba(255,255,255,0.022292404343314528)"/>
<rect x="736" y="272" width="16.5" height="16.5" fill="rgba(255,255,255,0.045080631304710676)"/>
<rect x="752" y="272" width="16.5" height="16.5" fill="rgba(255,255,255,0.0455368698924828)"/>
<rect x="720" y="288" width="16.5" height="16.5" fill="rgba(255,255,255,0.022949877709199096)"/>
<rect x="736" y="288" width="16.5" height="16.5" fill="rgba(255,255,255,0.04634748336810074)"/>
<rect x="752" y="288" width="16.5" height="16.5" fill="rgba(255,255,255,0.046758416569286705)"/>
<rect x="720" y="304" width="16.5" height="16.5" fill="rgba(255,255,255,0.023628148082831996)"/>
<rect x="736" y="304" width="16.5" height="16.5" fill="rgba(255,255,255,0.02382550511492333)"/>
<rect x="752" y="304" width="16.5" height="16.5" fill="rgba(255,255,255,0.04801243852547224)"/>
<rect x="720" y="320" width="16.5" height="16.5" fill="rgba(255,255,255,0.024325320053097038)"/>
<rect x="736" y="320" width="16.5" height="16.5" fill="rgba(255,255,255,0.02449385228696648)"/>
<rect x="752" y="320" width="16.5" height="16.5" fill="rgba(255,255,255,0.04929570196578101)"/>
<rect x="736" y="336" width="16.5" height="16.5" fill="rgba(255,255,255,0.025176677420428437)"/>
<rect x="752" y="336" width="16.5" height="16.5" fill="rgba(255,255,255,0.050604395006225655)"/>
<rect x="768" y="336" width="16.5" height="16.5" fill="rgba(255,255,255,0.05083427556431183)"/>
<rect x="736" y="352" width="16.5" height="16.5" fill="rgba(255,255,255,0.025871544180937543)"/>
<rect x="752" y="352" width="16.5" height="16.5" fill="rgba(255,255,255,0.05193416858043498)"/>
<rect x="768" y="352" width="16.5" height="16.5" fill="rgba(255,255,255,0.052108923885322636)"/>
<rect x="736" y="368" width="16.5" height="16.5" fill="rgba(255,255,255,0.026575724404858656)"/>
<rect x="752" y="368" width="16.5" height="16.5" fill="rgba(255,255,255,0.053280203383977646)"/>
<rect x="768" y="368" width="16.5" height="16.5" fill="rgba(255,255,255,0.05339784983972044)"/>
<rect x="736" y="384" width="16.5" height="16.5" fill="rgba(255,255,255,0.02728625345084525)"/>
<rect x="752" y="384" width="16.5" height="16.5" fill="rgba(255,255,255,0.054637301617352696)"/>
<rect x="768" y="384" width="16.5" height="16.5" fill="rgba(255,255,255,0.05469647313825408)"/>
<rect x="736" y="400" width="16.5" height="16.5" fill="rgba(255,255,255,0.028)"/>
<rect x="752" y="400" width="16.5" height="16.5" fill="rgba(255,255,255,0.028)"/>
<rect x="768" y="400" width="16.5" height="16.5" fill="rgba(255,255,255,0.056)"/>
<rect x="736" y="416" width="16.5" height="16.5" fill="rgba(255,255,255,0.02871374654915475)"/>
<rect x="752" y="416" width="16.5" height="16.5" fill="rgba(255,255,255,0.057362698382647306)"/>
<rect x="768" y="416" width="16.5" height="16.5" fill="rgba(255,255,255,0.057303526861745925)"/>
<rect x="736" y="432" width="16.5" height="16.5" fill="rgba(255,255,255,0.029424275595141346)"/>
<rect x="752" y="432" width="16.5" height="16.5" fill="rgba(255,255,255,0.058719796616022356)"/>
<rect x="768" y="432" width="16.5" height="16.5" fill="rgba(255,255,255,0.05860215016027956)"/>
<rect x="736" y="448" width="16.5" height="16.5" fill="rgba(255,255,255,0.03012845581906246)"/>
<rect x="752" y="448" width="16.5" height="16.5" fill="rgba(255,255,255,0.06006583141956502)"/>
<rect x="768" y="448" width="16.5" height="16.5" fill="rgba(255,255,255,0.059891076114677366)"/>
<rect x="736" y="464" width="16.5" height="16.5" fill="rgba(255,255,255,0.030823322579571565)"/>
<rect x="752" y="464" width="16.5" height="16.5" fill="rgba(255,255,255,0.06139560499377435)"/>
<rect x="768" y="464" width="16.5" height="16.5" fill="rgba(255,255,255,0.06116572443568817)"/>
<rect x="720" y="480" width="16.5" height="16.5" fill="rgba(255,255,255,0.03167467994690296)"/>
<rect x="736" y="480" width="16.5" height="16.5" fill="rgba(255,255,255,0.03150614771303352)"/>
<rect x="752" y="480" width="16.5" height="16.5" fill="rgba(255,255,255,0.062704298034219)"/>
<rect x="720" y="496" width="16.5" height="16.5" fill="rgba(255,255,255,0.03237185191716801)"/>
<rect x="736" y="496" width="16.5" height="16.5" fill="rgba(255,255,255,0.03217449488507667)"/>
<rect x="752" y="496" width="16.5" height="16.5" fill="rgba(255,255,255,0.06398756147452776)"/>
<rect x="720" y="512" width="16.5" height="16.5" fill="rgba(255,255,255,0.033050122290800905)"/>
<rect x="736" y="512" width="16.5" height="16.5" fill="rgba(255,255,255,0.06565251663189926)"/>
<rect x="752" y="512" width="16.5" height="16.5" fill="rgba(255,255,255,0.06524158343071329)"/>
<rect x="48" y="528" width="16.5" height="16.5" fill="rgba(255,255,255,0.020215350499823412)"/>
<rect x="64" y="528" width="16.5" height="16.5" fill="rgba(255,255,255,0.020671589087595525)"/>
<rect x="80" y="528" width="16.5" height="16.5" fill="rgba(255,255,255,0.01058370585283858)"/>
<rect x="96" y="528" width="16.5" height="16.5" fill="rgba(255,255,255,0.010853946881149407)"/>
<rect x="704" y="528" width="16.5" height="16.5" fill="rgba(255,255,255,0.03397783668499631)"/>
<rect x="720" y="528" width="16.5" height="16.5" fill="rgba(255,255,255,0.03370759565668548)"/>
<rect x="736" y="528" width="16.5" height="16.5" fill="rgba(255,255,255,0.06691936869528932)"/>
<rect x="752" y="528" width="16.5" height="16.5" fill="rgba(255,255,255,0.06646313010751721)"/>
<rect x="64" y="544" width="16.5" height="16.5" fill="rgba(255,255,255,0.021898973980858716)"/>
<rect x="80" y="544" width="16.5" height="16.5" fill="rgba(255,255,255,0.011218919088147213)"/>
<rect x="96" y="544" width="16.5" height="16.5" fill="rgba(255,255,255,0.011511723540804274)"/>
<rect x="704" y="544" width="16.5" height="16.5" fill="rgba(255,255,255,0.03463561334465117)"/>
<rect x="720" y="544" width="16.5" height="16.5" fill="rgba(255,255,255,0.03434280889199411)"/>
<rect x="736" y="544" width="16.5" height="16.5" fill="rgba(255,255,255,0.0681467535885525)"/>
<rect x="64" y="560" width="16.5" height="16.5" fill="rgba(255,255,255,0.023084796689339174)"/>
<rect x="80" y="560" width="16.5" height="16.5" fill="rgba(255,255,255,0.0236616486623304)"/>
<rect x="96" y="560" width="16.5" height="16.5" fill="rgba(255,255,255,0.01214327913170845)"/>
<rect x="112" y="560" width="16.5" height="16.5" fill="rgba(255,255,255,0.012482587762038158)"/>
<rect x="688" y="560" width="16.5" height="16.5" fill="rgba(255,255,255,0.03560647756588505)"/>
<rect x="704" y="560" width="16.5" height="16.5" fill="rgba(255,255,255,0.03526716893555535)"/>
<rect x="720" y="560" width="16.5" height="16.5" fill="rgba(255,255,255,0.06990942827002418)"/>
<rect x="736" y="560" width="16.5" height="16.5" fill="rgba(255,255,255,0.06933257629703296)"/>
<rect x="80" y="576" width="16.5" height="16.5" fill="rgba(255,255,255,0.02483751672014204)"/>
<rect x="96" y="576" width="16.5" height="16.5" fill="rgba(255,255,255,0.01274804677090471)"/>
<rect x="112" y="576" width="16.5" height="16.5" fill="rgba(255,255,255,0.013104351232911024)"/>
<rect x="688" y="576" width="16.5" height="16.5" fill="rgba(255,255,255,0.036228241036757924)"/>
<rect x="704" y="576" width="16.5" height="16.5" fill="rgba(255,255,255,0.035871936574751614)"/>
<rect x="720" y="576" width="16.5" height="16.5" fill="rgba(255,255,255,0.07108529632783582)"/>
<rect x="80" y="592" width="16.5" height="16.5" fill="rgba(255,255,255,0.025964805400423736)"/>
<rect x="96" y="592" width="16.5" height="16.5" fill="rgba(255,255,255,0.026651708237065252)"/>
<rect x="112" y="592" width="16.5" height="16.5" fill="rgba(255,255,255,0.013696149249366615)"/>
<rect x="128" y="592" width="16.5" height="16.5" fill="rgba(255,255,255,0.01409605447498559)"/>
<rect x="672" y="592" width="16.5" height="16.5" fill="rgba(255,255,255,0.03721994427883248)"/>
<rect x="688" y="592" width="16.5" height="16.5" fill="rgba(255,255,255,0.036820039053213516)"/>
<rect x="704" y="592" width="16.5" height="16.5" fill="rgba(255,255,255,0.07289948784475904)"/>
<rect x="720" y="592" width="16.5" height="16.5" fill="rgba(255,255,255,0.07221258500811753)"/>
<rect x="96" y="608" width="16.5" height="16.5" fill="rgba(255,255,255,0.02775372679435882)"/>
<rect x="112" y="608" width="16.5" height="16.5" fill="rgba(255,255,255,0.028516771599483084)"/>
<rect x="128" y="608" width="16.5" height="16.5" fill="rgba(255,255,255,0.014668809662664716)"/>
<rect x="144" y="608" width="16.5" height="16.5" fill="rgba(255,255,255,0.015110858519274326)"/>
<rect x="656" y="608" width="16.5" height="16.5" fill="rgba(255,255,255,0.03823474832312122)"/>
<rect x="672" y="608" width="16.5" height="16.5" fill="rgba(255,255,255,0.03779269946651161)"/>
<rect x="688" y="608" width="16.5" height="16.5" fill="rgba(255,255,255,0.07476455120717687)"/>
<rect x="704" y="608" width="16.5" height="16.5" fill="rgba(255,255,255,0.07400150640205261)"/>
<rect x="112" y="624" width="16.5" height="16.5" fill="rgba(255,255,255,0.02958351545782681)"/>
<rect x="128" y="624" width="16.5" height="16.5" fill="rgba(255,255,255,0.03041995203875205)"/>
<rect x="144" y="624" width="16.5" height="16.5" fill="rgba(255,255,255,0.015658560190477473)"/>
<rect x="160" y="624" width="16.5" height="16.5" fill="rgba(255,255,255,0.01614004613212221)"/>
<rect x="640" y="624" width="16.5" height="16.5" fill="rgba(255,255,255,0.03926393593596911)"/>
<rect x="656" y="624" width="16.5" height="16.5" fill="rgba(255,255,255,0.03878244999432437)"/>
<rect x="672" y="624" width="16.5" height="16.5" fill="rgba(255,255,255,0.07666773164644584)"/>
<rect x="688" y="624" width="16.5" height="16.5" fill="rgba(255,255,255,0.07583129506552061)"/>
<rect x="112" y="640" width="16.5" height="16.5" fill="rgba(255,255,255,0.0305943686782073)"/>
<rect x="128" y="640" width="16.5" height="16.5" fill="rgba(255,255,255,0.031441600994350935)"/>
<rect x="144" y="640" width="16.5" height="16.5" fill="rgba(255,255,255,0.01617337941058602)"/>
<rect x="160" y="640" width="16.5" height="16.5" fill="rgba(255,255,255,0.01665708264711483)"/>
<rect x="176" y="640" width="16.5" height="16.5" fill="rgba(255,255,255,0.01717411916210745)"/>
<rect x="624" y="640" width="16.5" height="16.5" fill="rgba(255,255,255,0.039701991034045654)"/>
<rect x="640" y="640" width="16.5" height="16.5" fill="rgba(255,255,255,0.039780972450961724)"/>
<rect x="656" y="640" width="16.5" height="16.5" fill="rgba(255,255,255,0.03929726921443292)"/>
<rect x="672" y="640" width="16.5" height="16.5" fill="rgba(255,255,255,0.07768938060204474)"/>
<rect x="688" y="640" width="16.5" height="16.5" fill="rgba(255,255,255,0.0768421482859011)"/>
<rect x="128" y="656" width="16.5" height="16.5" fill="rgba(255,255,255,0.0324053524966664)"/>
<rect x="144" y="656" width="16.5" height="16.5" fill="rgba(255,255,255,0.03331416529422966)"/>
<rect x="160" y="656" width="16.5" height="16.5" fill="rgba(255,255,255,0.01714078588364364)"/>
<rect x="176" y="656" width="16.5" height="16.5" fill="rgba(255,255,255,0.017655605103752185)"/>
<rect x="192" y="656" width="16.5" height="16.5" fill="rgba(255,255,255,0.01820330677495533)"/>
<rect x="608" y="656" width="16.5" height="16.5" fill="rgba(255,255,255,0.03867280342119778)"/>
<rect x="624" y="656" width="16.5" height="16.5" fill="rgba(255,255,255,0.039220505092400916)"/>
<rect x="640" y="656" width="16.5" height="16.5" fill="rgba(255,255,255,0.039735324312509465)"/>
<rect x="656" y="656" width="16.5" height="16.5" fill="rgba(255,255,255,0.07956194490192345)"/>
<rect x="672" y="656" width="16.5" height="16.5" fill="rgba(255,255,255,0.0786531321043602)"/>
<rect x="144" y="672" width="16.5" height="16.5" fill="rgba(255,255,255,0.03422297809179291)"/>
<rect x="160" y="672" width="16.5" height="16.5" fill="rgba(255,255,255,0.035186729594108374)"/>
<rect x="176" y="672" width="16.5" height="16.5" fill="rgba(255,255,255,0.03620837854970726)"/>
<rect x="192" y="672" width="16.5" height="16.5" fill="rgba(255,255,255,0.018645355631564935)"/>
<rect x="208" y="672" width="16.5" height="16.5" fill="rgba(255,255,255,0.019218110819244072)"/>
<rect x="592" y="672" width="16.5" height="16.5" fill="rgba(255,255,255,0.037657999376909036)"/>
<rect x="608" y="672" width="16.5" height="16.5" fill="rgba(255,255,255,0.03823075456458817)"/>
<rect x="624" y="672" width="16.5" height="16.5" fill="rgba(255,255,255,0.07754384184259895)"/>
<rect x="640" y="672" width="16.5" height="16.5" fill="rgba(255,255,255,0.07856549079819783)"/>
<rect x="656" y="672" width="16.5" height="16.5" fill="rgba(255,255,255,0.0795292423005133)"/>
<rect x="160" y="688" width="16.5" height="16.5" fill="rgba(255,255,255,0.03603396191025201)"/>
<rect x="176" y="688" width="16.5" height="16.5" fill="rgba(255,255,255,0.0370448151306325)"/>
<rect x="192" y="688" width="16.5" height="16.5" fill="rgba(255,255,255,0.03811155898897623)"/>
<rect x="208" y="688" width="16.5" height="16.5" fill="rgba(255,255,255,0.019618016044863042)"/>
<rect x="224" y="688" width="16.5" height="16.5" fill="rgba(255,255,255,0.020209814061318634)"/>
<rect x="240" y="688" width="16.5" height="16.5" fill="rgba(255,255,255,0.0208315775321915)"/>
<rect x="560" y="688" width="16.5" height="16.5" fill="rgba(255,255,255,0.036044532663961605)"/>
<rect x="576" y="688" width="16.5" height="16.5" fill="rgba(255,255,255,0.03666629613483447)"/>
<rect x="592" y="688" width="16.5" height="16.5" fill="rgba(255,255,255,0.03725809415129007)"/>
<rect x="608" y="688" width="16.5" height="16.5" fill="rgba(255,255,255,0.07564066140332998)"/>
<rect x="624" y="688" width="16.5" height="16.5" fill="rgba(255,255,255,0.07670740526167372)"/>
<rect x="640" y="688" width="16.5" height="16.5" fill="rgba(255,255,255,0.0777182584820542)"/>
<rect x="192" y="704" width="16.5" height="16.5" fill="rgba(255,255,255,0.0388746037941005)"/>
<rect x="208" y="704" width="16.5" height="16.5" fill="rgba(255,255,255,0.03997662235139407)"/>
<rect x="224" y="704" width="16.5" height="16.5" fill="rgba(255,255,255,0.02056611852332494)"/>
<rect x="240" y="704" width="16.5" height="16.5" fill="rgba(255,255,255,0.021170886162521205)"/>
<rect x="256" y="704" width="16.5" height="16.5" fill="rgba(255,255,255,0.021802441753425376)"/>
<rect x="272" y="704" width="16.5" height="16.5" fill="rgba(255,255,255,0.02246021841308025)"/>
<rect x="528" y="704" width="16.5" height="16.5" fill="rgba(255,255,255,0.03441589178307286)"/>
<rect x="544" y="704" width="16.5" height="16.5" fill="rgba(255,255,255,0.035073668442727725)"/>
<rect x="560" y="704" width="16.5" height="16.5" fill="rgba(255,255,255,0.0357052240336319)"/>
<rect x="576" y="704" width="16.5" height="16.5" fill="rgba(255,255,255,0.03630999167282816)"/>
<rect x="592" y="704" width="16.5" height="16.5" fill="rgba(255,255,255,0.07377559804091215)"/>
<rect x="608" y="704" width="16.5" height="16.5" fill="rgba(255,255,255,0.07487761659820572)"/>
<rect x="208" y="720" width="16.5" height="16.5" fill="rgba(255,255,255,0.040663525188035586)"/>
<rect x="224" y="720" width="16.5" height="16.5" fill="rgba(255,255,255,0.04179081386831728)"/>
<rect x="240" y="720" width="16.5" height="16.5" fill="rgba(255,255,255,0.04296668192612892)"/>
<rect x="256" y="720" width="16.5" height="16.5" fill="rgba(255,255,255,0.02209524620608244)"/>
<rect x="272" y="720" width="16.5" height="16.5" fill="rgba(255,255,255,0.02273045944139108)"/>
<rect x="288" y="720" width="16.5" height="16.5" fill="rgba(255,255,255,0.023387932807275646)"/>
<rect x="304" y="720" width="16.5" height="16.5" fill="rgba(255,255,255,0.024066203180908546)"/>
<rect x="320" y="720" width="16.5" height="16.5" fill="rgba(255,255,255,0.02476337515117359)"/>
<rect x="480" y="720" width="16.5" height="16.5" fill="rgba(255,255,255,0.03211273504497951)"/>
<rect x="496" y="720" width="16.5" height="16.5" fill="rgba(255,255,255,0.032809907015244555)"/>
<rect x="512" y="720" width="16.5" height="16.5" fill="rgba(255,255,255,0.03348817738887746)"/>
<rect x="528" y="720" width="16.5" height="16.5" fill="rgba(255,255,255,0.03414565075476203)"/>
<rect x="544" y="720" width="16.5" height="16.5" fill="rgba(255,255,255,0.034780863990070666)"/>
<rect x="560" y="720" width="16.5" height="16.5" fill="rgba(255,255,255,0.07078553846617729)"/>
<rect x="576" y="720" width="16.5" height="16.5" fill="rgba(255,255,255,0.07196140652398893)"/>
<rect x="592" y="720" width="16.5" height="16.5" fill="rgba(255,255,255,0.07308869520427062)"/>
<rect x="240" y="736" width="16.5" height="16.5" fill="rgba(255,255,255,0.043543533899120135)"/>
<rect x="256" y="736" width="16.5" height="16.5" fill="rgba(255,255,255,0.04472935660760061)"/>
<rect x="272" y="736" width="16.5" height="16.5" fill="rgba(255,255,255,0.04595674150086378)"/>
<rect x="288" y="736" width="16.5" height="16.5" fill="rgba(255,255,255,0.04722359356425384)"/>
<rect x="304" y="736" width="16.5" height="16.5" fill="rgba(255,255,255,0.02426356021299988)"/>
<rect x="320" y="736" width="16.5" height="16.5" fill="rgba(255,255,255,0.024931907385043032)"/>
<rect x="336" y="736" width="16.5" height="16.5" fill="rgba(255,255,255,0.02561473251850499)"/>
<rect x="352" y="736" width="16.5" height="16.5" fill="rgba(255,255,255,0.026309599279014093)"/>
<rect x="368" y="736" width="16.5" height="16.5" fill="rgba(255,255,255,0.02701377950293521)"/>
<rect x="384" y="736" width="16.5" height="16.5" fill="rgba(255,255,255,0.0277243085489218)"/>
<rect x="400" y="736" width="16.5" height="16.5" fill="rgba(255,255,255,0.028438055098076554)"/>
<rect x="416" y="736" width="16.5" height="16.5" fill="rgba(255,255,255,0.0291518016472313)"/>
<rect x="432" y="736" width="16.5" height="16.5" fill="rgba(255,255,255,0.0298623306932179)"/>
<rect x="448" y="736" width="16.5" height="16.5" fill="rgba(255,255,255,0.03056651091713901)"/>
<rect x="464" y="736" width="16.5" height="16.5" fill="rgba(255,255,255,0.03126137767764811)"/>
<rect x="480" y="736" width="16.5" height="16.5" fill="rgba(255,255,255,0.03194420281111007)"/>
<rect x="496" y="736" width="16.5" height="16.5" fill="rgba(255,255,255,0.03261254998315322)"/>
<rect x="512" y="736" width="16.5" height="16.5" fill="rgba(255,255,255,0.06652862682805237)"/>
<rect x="528" y="736" width="16.5" height="16.5" fill="rgba(255,255,255,0.06779547889144243)"/>
<rect x="544" y="736" width="16.5" height="16.5" fill="rgba(255,255,255,0.06902286378470561)"/>
<rect x="560" y="736" width="16.5" height="16.5" fill="rgba(255,255,255,0.07020868649318607)"/>
<rect x="272" y="752" width="16.5" height="16.5" fill="rgba(255,255,255,0.0464129800886359)"/>
<rect x="288" y="752" width="16.5" height="16.5" fill="rgba(255,255,255,0.04763452676543981)"/>
<rect x="304" y="752" width="16.5" height="16.5" fill="rgba(255,255,255,0.04888854872162535)"/>
<rect x="320" y="752" width="16.5" height="16.5" fill="rgba(255,255,255,0.050171812161934115)"/>
<rect x="336" y="752" width="16.5" height="16.5" fill="rgba(255,255,255,0.05148050520237876)"/>
<rect x="352" y="752" width="16.5" height="16.5" fill="rgba(255,255,255,0.05281027877658808)"/>
<rect x="368" y="752" width="16.5" height="16.5" fill="rgba(255,255,255,0.054156313580130754)"/>
<rect x="384" y="752" width="16.5" height="16.5" fill="rgba(255,255,255,0.0555134118135058)"/>
<rect x="400" y="752" width="16.5" height="16.5" fill="rgba(255,255,255,0.028438055098076554)"/>
<rect x="416" y="752" width="16.5" height="16.5" fill="rgba(255,255,255,0.05823880857880041)"/>
<rect x="432" y="752" width="16.5" height="16.5" fill="rgba(255,255,255,0.059595906812175456)"/>
<rect x="448" y="752" width="16.5" height="16.5" fill="rgba(255,255,255,0.06094194161571813)"/>
<rect x="464" y="752" width="16.5" height="16.5" fill="rgba(255,255,255,0.062271715189927454)"/>
<rect x="480" y="752" width="16.5" height="16.5" fill="rgba(255,255,255,0.0635804082303721)"/>
<rect x="496" y="752" width="16.5" height="16.5" fill="rgba(255,255,255,0.06486367167068087)"/>
<rect x="512" y="752" width="16.5" height="16.5" fill="rgba(255,255,255,0.0661176936268664)"/>
<rect x="528" y="752" width="16.5" height="16.5" fill="rgba(255,255,255,0.0673392403036703)"/>
<rect x="336" y="768" width="16.5" height="16.5" fill="rgba(255,255,255,0.05171038576046493)"/>
<rect x="352" y="768" width="16.5" height="16.5" fill="rgba(255,255,255,0.05298503408147574)"/>
<rect x="368" y="768" width="16.5" height="16.5" fill="rgba(255,255,255,0.05427396003587355)"/>
<rect x="384" y="768" width="16.5" height="16.5" fill="rgba(255,255,255,0.05557258333440718)"/>
<rect x="400" y="768" width="16.5" height="16.5" fill="rgba(255,255,255,0.05687611019615311)"/>
<rect x="416" y="768" width="16.5" height="16.5" fill="rgba(255,255,255,0.058179637057899025)"/>
<rect x="432" y="768" width="16.5" height="16.5" fill="rgba(255,255,255,0.05947826035643265)"/>
<rect x="448" y="768" width="16.5" height="16.5" fill="rgba(255,255,255,0.060767186310830466)"/>
<rect x="464" y="768" width="16.5" height="16.5" fill="rgba(255,255,255,0.06204183463184128)"/>
<rect x="560" y="432" width="16.5" height="16.5" fill="rgba(255,255,255,0.015)"/>
<rect x="528" y="448" width="16.5" height="16.5" fill="rgba(255,255,255,0.015)"/>
<rect x="544" y="448" width="16.5" height="16.5" fill="rgba(255,255,255,0.015)"/>
<rect x="560" y="448" width="16.5" height="16.5" fill="rgba(255,255,255,0.015)"/>
<rect x="576" y="448" width="16.5" height="16.5" fill="rgba(255,255,255,0.015)"/>
<rect x="592" y="448" width="16.5" height="16.5" fill="rgba(255,255,255,0.015)"/>
<rect x="528" y="464" width="16.5" height="16.5" fill="rgba(255,255,255,0.015)"/>
<rect x="544" y="464" width="16.5" height="16.5" fill="rgba(255,255,255,0.015)"/>
<rect x="560" y="464" width="16.5" height="16.5" fill="rgba(255,255,255,0.015)"/>
<rect x="576" y="464" width="16.5" height="16.5" fill="rgba(255,255,255,0.015)"/>
<rect x="592" y="464" width="16.5" height="16.5" fill="rgba(255,255,255,0.015)"/>
<rect x="512" y="480" width="16.5" height="16.5" fill="rgba(255,255,255,0.015)"/>
<rect x="528" y="480" width="16.5" height="16.5" fill="rgba(255,255,255,0.015)"/>
<rect x="544" y="480" width="16.5" height="16.5" fill="rgba(255,255,255,0.015)"/>
<rect x="560" y="480" width="16.5" height="16.5" fill="rgba(255,255,255,0.015)"/>
<rect x="576" y="480" width="16.5" height="16.5" fill="rgba(255,255,255,0.015)"/>
<rect x="592" y="480" width="16.5" height="16.5" fill="rgba(255,255,255,0.015)"/>
<rect x="608" y="480" width="16.5" height="16.5" fill="rgba(255,255,255,0.015)"/>
<rect x="528" y="496" width="16.5" height="16.5" fill="rgba(255,255,255,0.015)"/>
<rect x="544" y="496" width="16.5" height="16.5" fill="rgba(255,255,255,0.015)"/>
<rect x="560" y="496" width="16.5" height="16.5" fill="rgba(255,255,255,0.015)"/>
<rect x="576" y="496" width="16.5" height="16.5" fill="rgba(255,255,255,0.015)"/>
<rect x="592" y="496" width="16.5" height="16.5" fill="rgba(255,255,255,0.015)"/>
<rect x="528" y="512" width="16.5" height="16.5" fill="rgba(255,255,255,0.015)"/>
<rect x="544" y="512" width="16.5" height="16.5" fill="rgba(255,255,255,0.015)"/>
<rect x="560" y="512" width="16.5" height="16.5" fill="rgba(255,255,255,0.015)"/>
<rect x="576" y="512" width="16.5" height="16.5" fill="rgba(255,255,255,0.015)"/>
<rect x="592" y="512" width="16.5" height="16.5" fill="rgba(255,255,255,0.015)"/>
<rect x="560" y="528" width="16.5" height="16.5" fill="rgba(255,255,255,0.015)"/>
<rect x="416" y="560" width="16.5" height="16.5" fill="rgba(255,255,255,0.015)"/>
<rect x="432" y="560" width="16.5" height="16.5" fill="rgba(255,255,255,0.015)"/>
<rect x="448" y="560" width="16.5" height="16.5" fill="rgba(255,255,255,0.015)"/>
<rect x="400" y="576" width="16.5" height="16.5" fill="rgba(255,255,255,0.015)"/>
<rect x="416" y="576" width="16.5" height="16.5" fill="rgba(255,255,255,0.015)"/>
<rect x="432" y="576" width="16.5" height="16.5" fill="rgba(255,255,255,0.015)"/>
<rect x="448" y="576" width="16.5" height="16.5" fill="rgba(255,255,255,0.015)"/>
<rect x="464" y="576" width="16.5" height="16.5" fill="rgba(255,255,255,0.015)"/>
<rect x="400" y="592" width="16.5" height="16.5" fill="rgba(255,255,255,0.015)"/>
<rect x="416" y="592" width="16.5" height="16.5" fill="rgba(255,255,255,0.015)"/>
<rect x="432" y="592" width="16.5" height="16.5" fill="rgba(255,255,255,0.015)"/>
<rect x="448" y="592" width="16.5" height="16.5" fill="rgba(255,255,255,0.015)"/>
<rect x="464" y="592" width="16.5" height="16.5" fill="rgba(255,255,255,0.015)"/>
<rect x="400" y="608" width="16.5" height="16.5" fill="rgba(255,255,255,0.015)"/>
<rect x="416" y="608" width="16.5" height="16.5" fill="rgba(255,255,255,0.015)"/>
<rect x="432" y="608" width="16.5" height="16.5" fill="rgba(255,255,255,0.015)"/>
<rect x="448" y="608" width="16.5" height="16.5" fill="rgba(255,255,255,0.015)"/>
<rect x="464" y="608" width="16.5" height="16.5" fill="rgba(255,255,255,0.015)"/>
<rect x="416" y="624" width="16.5" height="16.5" fill="rgba(255,255,255,0.015)"/>
<rect x="432" y="624" width="16.5" height="16.5" fill="rgba(255,255,255,0.015)"/>
<rect x="448" y="624" width="16.5" height="16.5" fill="rgba(255,255,255,0.015)"/>
<rect x="592" y="304" width="16.5" height="16.5" fill="rgba(255,255,255,0.015)"/>
<rect x="576" y="320" width="16.5" height="16.5" fill="rgba(255,255,255,0.015)"/>
<rect x="592" y="320" width="16.5" height="16.5" fill="rgba(255,255,255,0.015)"/>
<rect x="608" y="320" width="16.5" height="16.5" fill="rgba(255,255,255,0.015)"/>
<rect x="560" y="336" width="16.5" height="16.5" fill="rgba(255,255,255,0.015)"/>
<rect x="576" y="336" width="16.5" height="16.5" fill="rgba(255,255,255,0.015)"/>
<rect x="592" y="336" width="16.5" height="16.5" fill="rgba(255,255,255,0.015)"/>
<rect x="608" y="336" width="16.5" height="16.5" fill="rgba(255,255,255,0.015)"/>
<rect x="624" y="336" width="16.5" height="16.5" fill="rgba(255,255,255,0.015)"/>
<rect x="576" y="352" width="16.5" height="16.5" fill="rgba(255,255,255,0.015)"/>
<rect x="592" y="352" width="16.5" height="16.5" fill="rgba(255,255,255,0.015)"/>
<rect x="608" y="352" width="16.5" height="16.5" fill="rgba(255,255,255,0.015)"/>
<rect x="592" y="368" width="16.5" height="16.5" fill="rgba(255,255,255,0.015)"/>
</svg>