<svg xmlns="http://www.w3.org/2000/svg" width="1000" height="1000" fill="none" shape-rendering="crispEdges">
<rect x="654" y="114" width="2" height="2" fill="rgba(255,255,255,0.5449302998558997)"/>
<rect x="142" y="754" width="2" height="2" fill="rgba(255,255,255,0.5060196924537468)"/>
<rect x="89" y="604" width="2" height="2" fill="rgba(180,220,255,0.11906960768907016)"/>
<rect x="238" y="517" width="3" height="3" fill="rgba(180,220,255,0.11592158181031818)"/>
<rect x="665" y="718" width="3" height="3" fill="rgba(255,255,255,0.3517118925769952)"/>
<rect x="284" y="828" width="2" height="2" fill="rgba(180,220,255,0.5552844202778603)"/>
<rect x="432" y="348" width="2" height="2" fill="rgba(255,255,255,0.19328769988706895)"/>
<rect x="344" y="104" width="2" height="2" fill="rgba(255,255,255,0.3279563803824024)"/>
<rect x="352" y="618" width="2" height="2" fill="rgba(255,255,255,0.5842769639646281)"/>
<rect x="549" y="127" width="2" height="2" fill="rgba(255,255,255,0.1472801188470749)"/>
<rect x="643" y="633" width="2" height="2" fill="rgba(255,255,255,0.4464112871540572)"/>
<rect x="46" y="677" width="2" height="2" fill="rgba(255,255,255,0.5638410044732152)"/>
<rect x="875" y="238" width="2" height="2" fill="rgba(255,255,255,0.3280757350234997)"/>
<rect x="854" y="373" width="2" height="2" fill="rgba(255,255,255,0.32210858027012956)"/>
<rect x="273" y="718" width="3" height="3" fill="rgba(255,255,255,0.48882123114795617)"/>
<rect x="175" y="546" width="3" height="3" fill="rgba(255,255,255,0.24688655509085572)"/>
<rect x="276" y="947" width="3" height="3" fill="rgba(255,255,255,0.5128971750599879)"/>
<rect x="332" y="863" width="2" height="2" fill="rgba(180,220,255,0.23742884317846263)"/>
<rect x="323" y="410" width="2" height="2" fill="rgba(255,255,255,0.13971316312692833)"/>
<rect x="580" y="897" width="3" height="3" fill="rgba(255,255,255,0.2888067284790867)"/>
<rect x="405" y="905" width="3" height="3" fill="rgba(255,255,255,0.37531111155243924)"/>
<rect x="252" y="762" width="3" height="3" fill="rgba(255,255,255,0.42338637380037425)"/>
<rect x="438" y="919" width="3" height="3" fill="rgba(255,255,255,0.3396403030842383)"/>
<rect x="141" y="521" width="2" height="2" fill="rgba(180,220,255,0.15454564730427633)"/>
<rect x="112" y="156" width="3" height="3" fill="rgba(255,255,255,0.19598920103347017)"/>
<rect x="610" y="65" width="2" height="2" fill="rgba(255,255,255,0.328971571903922)"/>
<rect x="541" y="257" width="3" height="3" fill="rgba(180,220,255,0.6164678213406988)"/>
<rect x="738" y="117" width="3" height="3" fill="rgba(255,255,255,0.6308730700774654)"/>
<rect x="787" y="656" width="2" height="2" fill="rgba(255,255,255,0.16693130415752588)"/>
<rect x="464" y="3" width="3" height="3" fill="rgba(255,255,255,0.6255117642269163)"/>
<rect x="512" y="780" width="2" height="2" fill="rgba(180,220,255,0.4046090047625951)"/>
<rect x="640" y="305" width="3" height="3" fill="rgba(180,220,255,0.40459772918658055)"/>
<rect x="382" y="780" width="2" height="2" fill="rgba(255,255,255,0.4236274180717754)"/>
<rect x="543" y="940" width="2" height="2" fill="rgba(255,255,255,0.4593667506761374)"/>
<rect x="114" y="951" width="2" height="2" fill="rgba(255,255,255,0.6272331266939105)"/>
<rect x="314" y="245" width="2" height="2" fill="rgba(255,255,255,0.24452295546833985)"/>
<rect x="80" y="87" width="3" height="3" fill="rgba(180,220,255,0.39159427798996826)"/>
<rect x="778" y="545" width="2" height="2" fill="rgba(255,255,255,0.17703487869985768)"/>
<rect x="562" y="169" width="2" height="2" fill="rgba(255,255,255,0.41660427245095244)"/>
<rect x="987" y="216" width="3" height="3" fill="rgba(255,255,255,0.5531591179814833)"/>
<rect x="730" y="319" width="2" height="2" fill="rgba(255,255,255,0.6970896139965368)"/>
<rect x="448" y="921" width="3" height="3" fill="rgba(255,255,255,0.3708916848346778)"/>
<rect x="65" y="346" width="2" height="2" fill="rgba(255,255,255,0.45298523107433997)"/>
<rect x="225" y="7" width="2" height="2" fill="rgba(180,220,255,0.5247045679290725)"/>
<rect x="69" y="927" width="2" height="2" fill="rgba(180,220,255,0.6157812401522479)"/>
<rect x="243" y="285" width="3" height="3" fill="rgba(255,255,255,0.3912486994902944)"/>
<rect x="740" y="957" width="3" height="3" fill="rgba(255,255,255,0.4457269898325399)"/>
<rect x="484" y="826" width="2" height="2" fill="rgba(180,220,255,0.21424594861712662)"/>
<rect x="441" y="362" width="2" height="2" fill="rgba(255,255,255,0.34666136562984284)"/>
<rect x="55" y="689" width="3" height="3" fill="rgba(180,220,255,0.6904991268195796)"/>
<rect x="412" y="745" width="2" height="2" fill="rgba(180,220,255,0.5803555065170193)"/>
<rect x="196" y="194" width="3" height="3" fill="rgba(255,255,255,0.36916812869987914)"/>
<rect x="285" y="473" width="2" height="2" fill="rgba(180,220,255,0.624691572442348)"/>
<rect x="827" y="882" width="3" height="3" fill="rgba(255,255,255,0.1587452369209602)"/>
<rect x="553" y="856" width="2" height="2" fill="rgba(255,255,255,0.6813977543708507)"/>
<rect x="869" y="242" width="2" height="2" fill="rgba(255,255,255,0.3438484347714832)"/>
<rect x="885" y="410" width="2" height="2" fill="rgba(180,220,255,0.19878227284091612)"/>
<rect x="399" y="271" width="2" height="2" fill="rgba(255,255,255,0.27114953736815217)"/>
<rect x="748" y="802" width="3" height="3" fill="rgba(255,255,255,0.4971227871704471)"/>
<rect x="194" y="303" width="2" height="2" fill="rgba(255,255,255,0.6812256189814953)"/>
<rect x="555" y="62" width="3" height="3" fill="rgba(180,220,255,0.2881628858618376)"/>
<rect x="488" y="514" width="3" height="3" fill="rgba(255,255,255,0.19445963676368996)"/>
<rect x="82" y="871" width="2" height="2" fill="rgba(180,220,255,0.1411127996222754)"/>
<rect x="882" y="240" width="2" height="2" fill="rgba(255,255,255,0.1719319683682745)"/>
<rect x="252" y="592" width="3" height="3" fill="rgba(180,220,255,0.12384499737343864)"/>
<rect x="673" y="597" width="3" height="3" fill="rgba(255,255,255,0.4136696293191753)"/>
<rect x="209" y="685" width="3" height="3" fill="rgba(255,255,255,0.28851031767734564)"/>
<rect x="134" y="687" width="3" height="3" fill="rgba(255,255,255,0.2799982478792573)"/>
<rect x="769" y="958" width="2" height="2" fill="rgba(255,255,255,0.10558927413054785)"/>
<rect x="576" y="102" width="2" height="2" fill="rgba(255,255,255,0.4225806424609764)"/>
<rect x="135" y="955" width="2" height="2" fill="rgba(255,255,255,0.6285185042118637)"/>
<rect x="378" y="291" width="2" height="2" fill="rgba(255,255,255,0.36291074380462596)"/>
<rect x="309" y="626" width="3" height="3" fill="rgba(255,255,255,0.41736441556136206)"/>
<rect x="567" y="306" width="3" height="3" fill="rgba(255,255,255,0.1621519011509269)"/>
<rect x="270" y="118" width="2" height="2" fill="rgba(180,220,255,0.5454500103885992)"/>
<rect x="288" y="619" width="2" height="2" fill="rgba(255,255,255,0.5305673122832788)"/>
<rect x="649" y="873" width="2" height="2" fill="rgba(255,255,255,0.4032454348587923)"/>
<rect x="929" y="866" width="2" height="2" fill="rgba(255,255,255,0.15537908062764005)"/>
<rect x="283" y="45" width="2" height="2" fill="rgba(180,220,255,0.3001339231630529)"/>
<rect x="268" y="165" width="3" height="3" fill="rgba(255,255,255,0.36510130711651034)"/>
<rect x="574" y="9" width="2" height="2" fill="rgba(255,255,255,0.14514631604426023)"/>
<rect x="925" y="152" width="3" height="3" fill="rgba(255,255,255,0.12161688283649837)"/>
<rect x="565" y="151" width="2" height="2" fill="rgba(255,255,255,0.17646731156928325)"/>
<rect x="920" y="955" width="2" height="2" fill="rgba(255,255,255,0.6393547819158847)"/>
<rect x="255" y="682" width="2" height="2" fill="rgba(255,255,255,0.312207180768771)"/>
<rect x="895" y="416" width="3" height="3" fill="rgba(255,255,255,0.5496865666861236)"/>
<rect x="242" y="885" width="2" height="2" fill="rgba(255,255,255,0.6857236197585777)"/>
<rect x="902" y="422" width="2" height="2" fill="rgba(255,255,255,0.2076163980509242)"/>
<rect x="801" y="953" width="2" height="2" fill="rgba(255,255,255,0.5813410833622833)"/>
<rect x="830" y="254" width="2" height="2" fill="rgba(255,255,255,0.19551870578843877)"/>
<rect x="391" y="893" width="2" height="2" fill="rgba(255,255,255,0.6151559508026689)"/>
<rect x="836" y="940" width="2" height="2" fill="rgba(255,255,255,0.3097950546675512)"/>
<rect x="892" y="233" width="2" height="2" fill="rgba(180,220,255,0.11419866082087092)"/>
<rect x="336" y="285" width="2" height="2" fill="rgba(255,255,255,0.6801334624290166)"/>
<rect x="656" y="521" width="2" height="2" fill="rgba(255,255,255,0.5077108710161582)"/>
<rect x="339" y="961" width="2" height="2" fill="rgba(255,255,255,0.16920505111085654)"/>
<rect x="182" y="594" width="2" height="2" fill="rgba(255,255,255,0.12295431841195764)"/>
<rect x="353" y="746" width="2" height="2" fill="rgba(255,255,255,0.36183633032236473)"/>
<rect x="118" y="394" width="3" height="3" fill="rgba(180,220,255,0.21404726470137764)"/>
<rect x="446" y="1" width="3" height="3" fill="rgba(255,255,255,0.6553450992994496)"/>
<rect x="736" y="962" width="3" height="3" fill="rgba(180,220,255,0.5422226160941802)"/>
<rect x="441" y="71" width="3" height="3" fill="rgba(255,255,255,0.6524625137308241)"/>
<rect x="679" y="868" width="2" height="2" fill="rgba(255,255,255,0.5318525578083702)"/>
<rect x="316" y="682" width="2" height="2" fill="rgba(255,255,255,0.2957097429144399)"/>
<rect x="567" y="130" width="2" height="2" fill="rgba(255,255,255,0.35226780026374493)"/>
<rect x="693" y="766" width="2" height="2" fill="rgba(255,255,255,0.46930894957082836)"/>
<rect x="561" y="853" width="2" height="2" fill="rgba(255,255,255,0.2823249695610123)"/>
<rect x="804" y="593" width="3" height="3" fill="rgba(255,255,255,0.49282337422184297)"/>
<rect x="452" y="691" width="2" height="2" fill="rgba(255,255,255,0.40670439812475223)"/>
<rect x="982" y="815" width="3" height="3" fill="rgba(180,220,255,0.20181483771883285)"/>
<rect x="527" y="679" width="3" height="3" fill="rgba(180,220,255,0.47155648321742527)"/>
<rect x="974" y="769" width="2" height="2" fill="rgba(255,255,255,0.5036774023343003)"/>
<rect x="203" y="150" width="2" height="2" fill="rgba(255,255,255,0.12772823085565507)"/>
<rect x="625" y="870" width="2" height="2" fill="rgba(255,255,255,0.37324970102805344)"/>
<rect x="589" y="199" width="3" height="3" fill="rgba(255,255,255,0.517812550294303)"/>
<rect x="249" y="151" width="3" height="3" fill="rgba(255,255,255,0.5125734478483117)"/>
<rect x="881" y="788" width="2" height="2" fill="rgba(255,255,255,0.567052244060395)"/>
<rect x="823" y="980" width="3" height="3" fill="rgba(180,220,255,0.4107746502662445)"/>
<rect x="255" y="939" width="2" height="2" fill="rgba(255,255,255,0.37387709528210356)"/>
<rect x="683" y="543" width="3" height="3" fill="rgba(255,255,255,0.4572713910816518)"/>
<rect x="912" y="453" width="3" height="3" fill="rgba(255,255,255,0.5890039043990103)"/>
<rect x="436" y="850" width="3" height="3" fill="rgba(180,220,255,0.36754816724602024)"/>
<rect x="882" y="486" width="2" height="2" fill="rgba(255,255,255,0.25551492907901163)"/>
<rect x="652" y="283" width="3" height="3" fill="rgba(255,255,255,0.39075821024216006)"/>
<rect x="450" y="79" width="3" height="3" fill="rgba(255,255,255,0.2714368905178915)"/>
<rect x="327" y="914" width="3" height="3" fill="rgba(180,220,255,0.14834659459460106)"/>
<rect x="392" y="710" width="2" height="2" fill="rgba(180,220,255,0.5238514850167313)"/>
<rect x="417" y="338" width="3" height="3" fill="rgba(180,220,255,0.37955458201069037)"/>
<rect x="852" y="430" width="2" height="2" fill="rgba(255,255,255,0.6429030870041061)"/>
<rect x="712" y="20" width="3" height="3" fill="rgba(180,220,255,0.328228617356627)"/>
<rect x="360" y="305" width="2" height="2" fill="rgba(255,255,255,0.6120687703414627)"/>
<rect x="429" y="551" width="3" height="3" fill="rgba(255,255,255,0.5407804364538147)"/>
<rect x="919" y="225" width="2" height="2" fill="rgba(255,255,255,0.2316529807728617)"/>
<rect x="29" y="398" width="2" height="2" fill="rgba(255,255,255,0.5013241723737503)"/>
<rect x="741" y="169" width="2" height="2" fill="rgba(255,255,255,0.6517249724013855)"/>
<rect x="546" y="27" width="2" height="2" fill="rgba(255,255,255,0.45513566537674655)"/>
<rect x="85" y="658" width="2" height="2" fill="rgba(255,255,255,0.18141969233833855)"/>
<rect x="51" y="266" width="2" height="2" fill="rgba(255,255,255,0.29641160016504053)"/>
<rect x="345" y="779" width="2" height="2" fill="rgba(255,255,255,0.2669539693832836)"/>
<rect x="431" y="258" width="2" height="2" fill="rgba(255,255,255,0.38218410172782813)"/>
<rect x="53" y="974" width="2" height="2" fill="rgba(180,220,255,0.23453329943184892)"/>
<rect x="980" y="667" width="2" height="2" fill="rgba(255,255,255,0.5525399224357157)"/>
<rect x="204" y="859" width="2" height="2" fill="rgba(255,255,255,0.47280139395169474)"/>
<rect x="484" y="685" width="2" height="2" fill="rgba(255,255,255,0.4383817491580114)"/>
<rect x="716" y="262" width="2" height="2" fill="rgba(255,255,255,0.20067348602068136)"/>
<rect x="765" y="735" width="2" height="2" fill="rgba(180,220,255,0.5666751317052595)"/>
<rect x="318" y="110" width="3" height="3" fill="rgba(255,255,255,0.11540705529847961)"/>
<rect x="693" y="929" width="2" height="2" fill="rgba(255,255,255,0.33799266490997637)"/>
<rect x="77" y="606" width="3" height="3" fill="rgba(255,255,255,0.598342980268191)"/>
<rect x="713" y="791" width="2" height="2" fill="rgba(255,255,255,0.6101759434532777)"/>
<rect x="125" y="815" width="2" height="6" fill="rgba(255,255,255,0.7919221757573356)"/>
<rect x="123" y="817" width="6" height="2" fill="rgba(255,255,255,0.7919221757573356)"/>
<rect x="803" y="42" width="2" height="6" fill="rgba(255,255,255,0.4736018826542245)"/>
<rect x="801" y="44" width="6" height="2" fill="rgba(255,255,255,0.4736018826542245)"/>
<rect x="440" y="677" width="2" height="6" fill="rgba(255,255,255,0.4852854381090281)"/>
<rect x="438" y="679" width="6" height="2" fill="rgba(255,255,255,0.4852854381090281)"/>
<rect x="520" y="663" width="2" height="6" fill="rgba(255,255,255,0.4706155874306416)"/>
<rect x="518" y="665" width="6" height="2" fill="rgba(255,255,255,0.4706155874306416)"/>
<rect x="871" y="430" width="2" height="6" fill="rgba(255,255,255,0.711165459045029)"/>
<rect x="869" y="432" width="6" height="2" fill="rgba(255,255,255,0.711165459045029)"/>
<rect x="110" y="443" width="2" height="6" fill="rgba(255,255,255,0.7803937836072893)"/>
<rect x="108" y="445" width="6" height="2" fill="rgba(255,255,255,0.7803937836072893)"/>
<rect x="652" y="912" width="2" height="6" fill="rgba(255,255,255,0.7143536555012291)"/>
<rect x="650" y="914" width="6" height="2" fill="rgba(255,255,255,0.7143536555012291)"/>
<rect x="726" y="156" width="2" height="6" fill="rgba(255,255,255,0.5177435725038385)"/>
<rect x="724" y="158" width="6" height="2" fill="rgba(255,255,255,0.5177435725038385)"/>
<rect x="753" y="534" width="2" height="6" fill="rgba(255,255,255,0.7827368656190388)"/>
<rect x="751" y="536" width="6" height="2" fill="rgba(255,255,255,0.7827368656190388)"/>
<rect x="278" y="630" width="2" height="6" fill="rgba(255,255,255,0.704099609403378)"/>
<rect x="276" y="632" width="6" height="2" fill="rgba(255,255,255,0.704099609403378)"/>
<rect x="553" y="793" width="2" height="6" fill="rgba(255,255,255,0.541748751941598)"/>
<rect x="551" y="795" width="6" height="2" fill="rgba(255,255,255,0.541748751941598)"/>
<rect x="448" y="845" width="2" height="6" fill="rgba(255,255,255,0.6655131071525611)"/>
<rect x="446" y="847" width="6" height="2" fill="rgba(255,255,255,0.6655131071525611)"/>
<rect x="276" y="330" width="2" height="6" fill="rgba(255,255,255,0.7258565800096659)"/>
<rect x="274" y="332" width="6" height="2" fill="rgba(255,255,255,0.7258565800096659)"/>
<rect x="852" y="957" width="2" height="6" fill="rgba(255,255,255,0.3433314490278372)"/>
<rect x="850" y="959" width="6" height="2" fill="rgba(255,255,255,0.3433314490278372)"/>
<rect x="904" y="461" width="2" height="6" fill="rgba(255,255,255,0.421931719595478)"/>
<rect x="902" y="463" width="6" height="2" fill="rgba(255,255,255,0.421931719595478)"/>
<rect x="477" y="583" width="2" height="6" fill="rgba(255,255,255,0.6051658521152603)"/>
<rect x="475" y="585" width="6" height="2" fill="rgba(255,255,255,0.6051658521152603)"/>
<rect x="390" y="344" width="2" height="6" fill="rgba(255,255,255,0.3143499988850448)"/>
<rect x="388" y="346" width="6" height="2" fill="rgba(255,255,255,0.3143499988850448)"/>
<rect x="873" y="332" width="2" height="6" fill="rgba(255,255,255,0.3909199285788459)"/>
<rect x="871" y="334" width="6" height="2" fill="rgba(255,255,255,0.3909199285788459)"/>
<rect x="219" y="363" width="2" height="6" fill="rgba(255,255,255,0.6989161784140483)"/>
<rect x="217" y="365" width="6" height="2" fill="rgba(255,255,255,0.6989161784140483)"/>
<rect x="350" y="286" width="2" height="6" fill="rgba(255,255,255,0.7401599898791127)"/>
<rect x="348" y="288" width="6" height="2" fill="rgba(255,255,255,0.7401599898791127)"/>
<rect x="720" y="901" width="2" height="6" fill="rgba(255,255,255,0.43813428787809244)"/>
<rect x="718" y="903" width="6" height="2" fill="rgba(255,255,255,0.43813428787809244)"/>
<rect x="12" y="529" width="2" height="6" fill="rgba(255,255,255,0.7740312888885156)"/>
<rect x="10" y="531" width="6" height="2" fill="rgba(255,255,255,0.7740312888885156)"/>
<rect x="89" y="247" width="2" height="6" fill="rgba(255,255,255,0.6600373320520971)"/>
<rect x="87" y="249" width="6" height="2" fill="rgba(255,255,255,0.6600373320520971)"/>
<rect x="502" y="568" width="2" height="6" fill="rgba(255,255,255,0.6790823267412331)"/>
<rect x="500" y="570" width="6" height="2" fill="rgba(255,255,255,0.6790823267412331)"/>
<rect x="709" y="487" width="2" height="6" fill="rgba(255,255,255,0.6229514498704761)"/>
<rect x="707" y="489" width="6" height="2" fill="rgba(255,255,255,0.6229514498704761)"/>
</svg>