<svg xmlns="http://www.w3.org/2000/svg" width="100%" height="200" preserveAspectRatio="none" viewBox="0 0 184 40" shape-rendering="crispEdges">
<rect x="0" y="32" width="4.05" height="8.05" fill="#2d132e"/>
<rect x="0" y="34" width="4.05" height="6.05" fill="#1a091a"/>
<rect x="0" y="32" width="4.05" height="2" fill="rgba(255,255,255,0.1)"/>
<rect x="4" y="30" width="4.05" height="10.05" fill="#2d132e"/>
<rect x="4" y="32" width="4.05" height="8.05" fill="#1a091a"/>
<rect x="4" y="30" width="4.05" height="2" fill="rgba(255,255,255,0.1)"/>
<rect x="8" y="26" width="4.05" height="14.05" fill="#2d132e"/>
<rect x="8" y="28" width="4.05" height="12.05" fill="#1a091a"/>
<rect x="8" y="26" width="4.05" height="2" fill="rgba(255,255,255,0.1)"/>
<rect x="12" y="28" width="4.05" height="12.05" fill="#2d132e"/>
<rect x="12" y="30" width="4.05" height="10.05" fill="#1a091a"/>
<rect x="12" y="28" width="4.05" height="2" fill="rgba(255,255,255,0.1)"/>
<rect x="16" y="32" width="4.05" height="8.05" fill="#2d132e"/>
<rect x="16" y="34" width="4.05" height="6.05" fill="#1a091a"/>
<rect x="16" y="32" width="4.05" height="2" fill="rgba(255,255,255,0.1)"/>
<rect x="20" y="30" width="4.05" height="10.05" fill="#2d132e"/>
<rect x="20" y="32" width="4.05" height="8.05" fill="#1a091a"/>
<rect x="20" y="30" width="4.05" height="2" fill="rgba(255,255,255,0.1)"/>
<rect x="24" y="22" width="4.05" height="18.05" fill="#2d132e"/>
<rect x="24" y="24" width="4.05" height="16.05" fill="#1a091a"/>
<rect x="24" y="22" width="4.05" height="2" fill="rgba(255,255,255,0.1)"/>
<rect x="28" y="18" width="4.05" height="22.05" fill="#2d132e"/>
<rect x="28" y="20" width="4.05" height="20.05" fill="#1a091a"/>
<rect x="28" y="18" width="4.05" height="2" fill="rgba(255,255,255,0.1)"/>
<rect x="32" y="20" width="4.05" height="20.05" fill="#2d132e"/>
<rect x="32" y="22" width="4.05" height="18.05" fill="#1a091a"/>
<rect x="32" y="20" width="4.05" height="2" fill="rgba(255,255,255,0.1)"/>
<rect x="36" y="24" width="4.05" height="16.05" fill="#2d132e"/>
<rect x="36" y="26" width="4.05" height="14.05" fill="#1a091a"/>
<rect x="36" y="24" width="4.05" height="2" fill="rgba(255,255,255,0.1)"/>
<rect x="40" y="28" width="4.05" height="12.05" fill="#2d132e"/>
<rect x="40" y="30" width="4.05" height="10.05" fill="#1a091a"/>
<rect x="40" y="28" width="4.05" height="2" fill="rgba(255,255,255,0.1)"/>
<rect x="44" y="30" width="4.05" height="10.05" fill="#2d132e"/>
<rect x="44" y="32" width="4.05" height="8.05" fill="#1a091a"/>
<rect x="44" y="30" width="4.05" height="2" fill="rgba(255,255,255,0.1)"/>
<rect x="48" y="32" width="4.05" height="8.05" fill="#2d132e"/>
<rect x="48" y="34" width="4.05" height="6.05" fill="#1a091a"/>
<rect x="48" y="32" width="4.05" height="2" fill="rgba(255,255,255,0.1)"/>
<rect x="52" y="28" width="4.05" height="12.05" fill="#2d132e"/>
<rect x="52" y="30" width="4.05" height="10.05" fill="#1a091a"/>
<rect x="52" y="28" width="4.05" height="2" fill="rgba(255,255,255,0.1)"/>
<rect x="56" y="24" width="4.05" height="16.05" fill="#2d132e"/>
<rect x="56" y="26" width="4.05" height="14.05" fill="#1a091a"/>
<rect x="56" y="24" width="4.05" height="2" fill="rgba(255,255,255,0.1)"/>
<rect x="60" y="26" width="4.05" height="14.05" fill="#2d132e"/>
<rect x="60" y="28" width="4.05" height="12.05" fill="#1a091a"/>
<rect x="60" y="26" width="4.05" height="2" fill="rgba(255,255,255,0.1)"/>
<rect x="64" y="30" width="4.05" height="10.05" fill="#2d132e"/>
<rect x="64" y="32" width="4.05" height="8.05" fill="#1a091a"/>
<rect x="64" y="30" width="4.05" height="2" fill="rgba(255,255,255,0.1)"/>
<rect x="68" y="32" width="4.05" height="8.05" fill="#2d132e"/>
<rect x="68" y="34" width="4.05" height="6.05" fill="#1a091a"/>
<rect x="68" y="32" width="4.05" height="2" fill="rgba(255,255,255,0.1)"/>
<rect x="72" y="34" width="4.05" height="6.05" fill="#2d132e"/>
<rect x="72" y="36" width="4.05" height="4.05" fill="#1a091a"/>
<rect x="72" y="34" width="4.05" height="2" fill="rgba(255,255,255,0.1)"/>
<rect x="76" y="30" width="4.05" height="10.05" fill="#2d132e"/>
<rect x="76" y="32" width="4.05" height="8.05" fill="#1a091a"/>
<rect x="76" y="30" width="4.05" height="2" fill="rgba(255,255,255,0.1)"/>
<rect x="80" y="28" width="4.05" height="12.05" fill="#2d132e"/>
<rect x="80" y="30" width="4.05" height="10.05" fill="#1a091a"/>
<rect x="80" y="28" width="4.05" height="2" fill="rgba(255,255,255,0.1)"/>
<rect x="84" y="30" width="4.05" height="10.05" fill="#2d132e"/>
<rect x="84" y="32" width="4.05" height="8.05" fill="#1a091a"/>
<rect x="84" y="30" width="4.05" height="2" fill="rgba(255,255,255,0.1)"/>
<rect x="88" y="32" width="4.05" height="8.05" fill="#2d132e"/>
<rect x="88" y="34" width="4.05" height="6.05" fill="#1a091a"/>
<rect x="88" y="32" width="4.05" height="2" fill="rgba(255,255,255,0.1)"/>
<rect x="92" y="32" width="4.05" height="8.05" fill="#2d132e"/>
<rect x="92" y="34" width="4.05" height="6.05" fill="#1a091a"/>
<rect x="92" y="32" width="4.05" height="2" fill="rgba(255,255,255,0.1)"/>
<rect x="96" y="30" width="4.05" height="10.05" fill="#2d132e"/>
<rect x="96" y="32" width="4.05" height="8.05" fill="#1a091a"/>
<rect x="96" y="30" width="4.05" height="2" fill="rgba(255,255,255,0.1)"/>
<rect x="100" y="26" width="4.05" height="14.05" fill="#2d132e"/>
<rect x="100" y="28" width="4.05" height="12.05" fill="#1a091a"/>
<rect x="100" y="26" width="4.05" height="2" fill="rgba(255,255,255,0.1)"/>
<rect x="104" y="28" width="4.05" height="12.05" fill="#2d132e"/>
<rect x="104" y="30" width="4.05" height="10.05" fill="#1a091a"/>
<rect x="104" y="28" width="4.05" height="2" fill="rgba(255,255,255,0.1)"/>
<rect x="108" y="32" width="4.05" height="8.05" fill="#2d132e"/>
<rect x="108" y="34" width="4.05" height="6.05" fill="#1a091a"/>
<rect x="108" y="32" width="4.05" height="2" fill="rgba(255,255,255,0.1)"/>
<rect x="112" y="30" width="4.05" height="10.05" fill="#2d132e"/>
<rect x="112" y="32" width="4.05" height="8.05" fill="#1a091a"/>
<rect x="112" y="30" width="4.05" height="2" fill="rgba(255,255,255,0.1)"/>
<rect x="116" y="22" width="4.05" height="18.05" fill="#2d132e"/>
<rect x="116" y="24" width="4.05" height="16.05" fill="#1a091a"/>
<rect x="116" y="22" width="4.05" height="2" fill="rgba(255,255,255,0.1)"/>
<rect x="120" y="18" width="4.05" height="22.05" fill="#2d132e"/>
<rect x="120" y="20" width="4.05" height="20.05" fill="#1a091a"/>
<rect x="120" y="18" width="4.05" height="2" fill="rgba(255,255,255,0.1)"/>
<rect x="124" y="20" width="4.05" height="20.05" fill="#2d132e"/>
<rect x="124" y="22" width="4.05" height="18.05" fill="#1a091a"/>
<rect x="124" y="20" width="4.05" height="2" fill="rgba(255,255,255,0.1)"/>
<rect x="128" y="24" width="4.05" height="16.05" fill="#2d132e"/>
<rect x="128" y="26" width="4.05" height="14.05" fill="#1a091a"/>
<rect x="128" y="24" width="4.05" height="2" fill="rgba(255,255,255,0.1)"/>
<rect x="132" y="28" width="4.05" height="12.05" fill="#2d132e"/>
<rect x="132" y="30" width="4.05" height="10.05" fill="#1a091a"/>
<rect x="132" y="28" width="4.05" height="2" fill="rgba(255,255,255,0.1)"/>
<rect x="136" y="30" width="4.05" height="10.05" fill="#2d132e"/>
<rect x="136" y="32" width="4.05" height="8.05" fill="#1a091a"/>
<rect x="136" y="30" width="4.05" height="2" fill="rgba(255,255,255,0.1)"/>
<rect x="140" y="32" width="4.05" height="8.05" fill="#2d132e"/>
<rect x="140" y="34" width="4.05" height="6.05" fill="#1a091a"/>
<rect x="140" y="32" width="4.05" height="2" fill="rgba(255,255,255,0.1)"/>
<rect x="144" y="28" width="4.05" height="12.05" fill="#2d132e"/>
<rect x="144" y="30" width="4.05" height="10.05" fill="#1a091a"/>
<rect x="144" y="28" width="4.05" height="2" fill="rgba(255,255,255,0.1)"/>
<rect x="148" y="24" width="4.05" height="16.05" fill="#2d132e"/>
<rect x="148" y="26" width="4.05" height="14.05" fill="#1a091a"/>
<rect x="148" y="24" width="4.05" height="2" fill="rgba(255,255,255,0.1)"/>
<rect x="152" y="26" width="4.05" height="14.05" fill="#2d132e"/>
<rect x="152" y="28" width="4.05" height="12.05" fill="#1a091a"/>
<rect x="152" y="26" width="4.05" height="2" fill="rgba(255,255,255,0.1)"/>
<rect x="156" y="30" width="4.05" height="10.05" fill="#2d132e"/>
<rect x="156" y="32" width="4.05" height="8.05" fill="#1a091a"/>
<rect x="156" y="30" width="4.05" height="2" fill="rgba(255,255,255,0.1)"/>
<rect x="160" y="32" width="4.05" height="8.05" fill="#2d132e"/>
<rect x="160" y="34" width="4.05" height="6.05" fill="#1a091a"/>
<rect x="160" y="32" width="4.05" height="2" fill="rgba(255,255,255,0.1)"/>
<rect x="164" y="34" width="4.05" height="6.05" fill="#2d132e"/>
<rect x="164" y="36" width="4.05" height="4.05" fill="#1a091a"/>
<rect x="164" y="34" width="4.05" height="2" fill="rgba(255,255,255,0.1)"/>
<rect x="168" y="30" width="4.05" height="10.05" fill="#2d132e"/>
<rect x="168" y="32" width="4.05" height="8.05" fill="#1a091a"/>
<rect x="168" y="30" width="4.05" height="2" fill="rgba(255,255,255,0.1)"/>
<rect x="172" y="28" width="4.05" height="12.05" fill="#2d132e"/>
<rect x="172" y="30" width="4.05" height="10.05" fill="#1a091a"/>
<rect x="172" y="28" width="4.05" height="2" fill="rgba(255,255,255,0.1)"/>
<rect x="176" y="30" width="4.05" height="10.05" fill="#2d132e"/>
<rect x="176" y="32" width="4.05" height="8.05" fill="#1a091a"/>
<rect x="176" y="30" width="4.05" height="2" fill="rgba(255,255,255,0.1)"/>
<rect x="180" y="32" width="4.05" height="8.05" fill="#2d132e"/>
<rect x="180" y="34" width="4.05" height="6.05" fill="#1a091a"/>
<rect x="180" y="32" width="4.05" height="2" fill="rgba(255,255,255,0.1)"/>
</svg>