<svg xmlns="http://www.w3.org/2000/svg" width="100%" height="200" preserveAspectRatio="none" viewBox="0 0 192 40" shape-rendering="crispEdges">
<rect x="0" y="28" width="4.05" height="12.05" fill="#4d2354"/>
<rect x="0" y="30" width="4.05" height="10.05" fill="#34163d"/>
<rect x="0" y="28" width="4.05" height="2" fill="rgba(255,255,255,0.1)"/>
<rect x="4" y="24" width="4.05" height="16.05" fill="#4d2354"/>
<rect x="4" y="26" width="4.05" height="14.05" fill="#34163d"/>
<rect x="4" y="24" width="4.05" height="2" fill="rgba(255,255,255,0.1)"/>
<rect x="8" y="16" width="4.05" height="24.05" fill="#4d2354"/>
<rect x="8" y="18" width="4.05" height="22.05" fill="#34163d"/>
<rect x="8" y="16" width="4.05" height="2" fill="rgba(255,255,255,0.1)"/>
<rect x="12" y="12" width="4.05" height="28.05" fill="#4d2354"/>
<rect x="12" y="14" width="4.05" height="26.05" fill="#34163d"/>
<rect x="12" y="12" width="4.05" height="2" fill="rgba(255,255,255,0.1)"/>
<rect x="16" y="20" width="4.05" height="20.05" fill="#4d2354"/>
<rect x="16" y="22" width="4.05" height="18.05" fill="#34163d"/>
<rect x="16" y="20" width="4.05" height="2" fill="rgba(255,255,255,0.1)"/>
<rect x="20" y="24" width="4.05" height="16.05" fill="#4d2354"/>
<rect x="20" y="26" width="4.05" height="14.05" fill="#34163d"/>
<rect x="20" y="24" width="4.05" height="2" fill="rgba(255,255,255,0.1)"/>
<rect x="24" y="26" width="4.05" height="14.05" fill="#4d2354"/>
<rect x="24" y="28" width="4.05" height="12.05" fill="#34163d"/>
<rect x="24" y="26" width="4.05" height="2" fill="rgba(255,255,255,0.1)"/>
<rect x="28" y="22" width="4.05" height="18.05" fill="#4d2354"/>
<rect x="28" y="24" width="4.05" height="16.05" fill="#34163d"/>
<rect x="28" y="22" width="4.05" height="2" fill="rgba(255,255,255,0.1)"/>
<rect x="32" y="18" width="4.05" height="22.05" fill="#4d2354"/>
<rect x="32" y="20" width="4.05" height="20.05" fill="#34163d"/>
<rect x="32" y="18" width="4.05" height="2" fill="rgba(255,255,255,0.1)"/>
<rect x="36" y="10" width="4.05" height="30.05" fill="#4d2354"/>
<rect x="36" y="12" width="4.05" height="28.05" fill="#34163d"/>
<rect x="36" y="10" width="4.05" height="2" fill="rgba(255,255,255,0.1)"/>
<rect x="40" y="8" width="4.05" height="32.05" fill="#4d2354"/>
<rect x="40" y="10" width="4.05" height="30.05" fill="#34163d"/>
<rect x="40" y="8" width="4.05" height="2" fill="rgba(255,255,255,0.1)"/>
<rect x="44" y="14" width="4.05" height="26.05" fill="#4d2354"/>
<rect x="44" y="16" width="4.05" height="24.05" fill="#34163d"/>
<rect x="44" y="14" width="4.05" height="2" fill="rgba(255,255,255,0.1)"/>
<rect x="48" y="22" width="4.05" height="18.05" fill="#4d2354"/>
<rect x="48" y="24" width="4.05" height="16.05" fill="#34163d"/>
<rect x="48" y="22" width="4.05" height="2" fill="rgba(255,255,255,0.1)"/>
<rect x="52" y="24" width="4.05" height="16.05" fill="#4d2354"/>
<rect x="52" y="26" width="4.05" height="14.05" fill="#34163d"/>
<rect x="52" y="24" width="4.05" height="2" fill="rgba(255,255,255,0.1)"/>
<rect x="56" y="20" width="4.05" height="20.05" fill="#4d2354"/>
<rect x="56" y="22" width="4.05" height="18.05" fill="#34163d"/>
<rect x="56" y="20" width="4.05" height="2" fill="rgba(255,255,255,0.1)"/>
<rect x="60" y="16" width="4.05" height="24.05" fill="#4d2354"/>
<rect x="60" y="18" width="4.05" height="22.05" fill="#34163d"/>
<rect x="60" y="16" width="4.05" height="2" fill="rgba(255,255,255,0.1)"/>
<rect x="64" y="12" width="4.05" height="28.05" fill="#4d2354"/>
<rect x="64" y="14" width="4.05" height="26.05" fill="#34163d"/>
<rect x="64" y="12" width="4.05" height="2" fill="rgba(255,255,255,0.1)"/>
<rect x="68" y="18" width="4.05" height="22.05" fill="#4d2354"/>
<rect x="68" y="20" width="4.05" height="20.05" fill="#34163d"/>
<rect x="68" y="18" width="4.05" height="2" fill="rgba(255,255,255,0.1)"/>
<rect x="72" y="24" width="4.05" height="16.05" fill="#4d2354"/>
<rect x="72" y="26" width="4.05" height="14.05" fill="#34163d"/>
<rect x="72" y="24" width="4.05" height="2" fill="rgba(255,255,255,0.1)"/>
<rect x="76" y="26" width="4.05" height="14.05" fill="#4d2354"/>
<rect x="76" y="28" width="4.05" height="12.05" fill="#34163d"/>
<rect x="76" y="26" width="4.05" height="2" fill="rgba(255,255,255,0.1)"/>
<rect x="80" y="22" width="4.05" height="18.05" fill="#4d2354"/>
<rect x="80" y="24" width="4.05" height="16.05" fill="#34163d"/>
<rect x="80" y="22" width="4.05" height="2" fill="rgba(255,255,255,0.1)"/>
<rect x="84" y="20" width="4.05" height="20.05" fill="#4d2354"/>
<rect x="84" y="22" width="4.05" height="18.05" fill="#34163d"/>
<rect x="84" y="20" width="4.05" height="2" fill="rgba(255,255,255,0.1)"/>
<rect x="88" y="24" width="4.05" height="16.05" fill="#4d2354"/>
<rect x="88" y="26" width="4.05" height="14.05" fill="#34163d"/>
<rect x="88" y="24" width="4.05" height="2" fill="rgba(255,255,255,0.1)"/>
<rect x="92" y="28" width="4.05" height="12.05" fill="#4d2354"/>
<rect x="92" y="30" width="4.05" height="10.05" fill="#34163d"/>
<rect x="92" y="28" width="4.05" height="2" fill="rgba(255,255,255,0.1)"/>
<rect x="96" y="28" width="4.05" height="12.05" fill="#4d2354"/>
<rect x="96" y="30" width="4.05" height="10.05" fill="#34163d"/>
<rect x="96" y="28" width="4.05" height="2" fill="rgba(255,255,255,0.1)"/>
<rect x="100" y="24" width="4.05" height="16.05" fill="#4d2354"/>
<rect x="100" y="26" width="4.05" height="14.05" fill="#34163d"/>
<rect x="100" y="24" width="4.05" height="2" fill="rgba(255,255,255,0.1)"/>
<rect x="104" y="16" width="4.05" height="24.05" fill="#4d2354"/>
<rect x="104" y="18" width="4.05" height="22.05" fill="#34163d"/>
<rect x="104" y="16" width="4.05" height="2" fill="rgba(255,255,255,0.1)"/>
<rect x="108" y="12" width="4.05" height="28.05" fill="#4d2354"/>
<rect x="108" y="14" width="4.05" height="26.05" fill="#34163d"/>
<rect x="108" y="12" width="4.05" height="2" fill="rgba(255,255,255,0.1)"/>
<rect x="112" y="20" width="4.05" height="20.05" fill="#4d2354"/>
<rect x="112" y="22" width="4.05" height="18.05" fill="#34163d"/>
<rect x="112" y="20" width="4.05" height="2" fill="rgba(255,255,255,0.1)"/>
<rect x="116" y="24" width="4.05" height="16.05" fill="#4d2354"/>
<rect x="116" y="26" width="4.05" height="14.05" fill="#34163d"/>
<rect x="116" y="24" width="4.05" height="2" fill="rgba(255,255,255,0.1)"/>
<rect x="120" y="26" width="4.05" height="14.05" fill="#4d2354"/>
<rect x="120" y="28" width="4.05" height="12.05" fill="#34163d"/>
<rect x="120" y="26" width="4.05" height="2" fill="rgba(255,255,255,0.1)"/>
<rect x="124" y="22" width="4.05" height="18.05" fill="#4d2354"/>
<rect x="124" y="24" width="4.05" height="16.05" fill="#34163d"/>
<rect x="124" y="22" width="4.05" height="2" fill="rgba(255,255,255,0.1)"/>
<rect x="128" y="18" width="4.05" height="22.05" fill="#4d2354"/>
<rect x="128" y="20" width="4.05" height="20.05" fill="#34163d"/>
<rect x="128" y="18" width="4.05" height="2" fill="rgba(255,255,255,0.1)"/>
<rect x="132" y="10" width="4.05" height="30.05" fill="#4d2354"/>
<rect x="132" y="12" width="4.05" height="28.05" fill="#34163d"/>
<rect x="132" y="10" width="4.05" height="2" fill="rgba(255,255,255,0.1)"/>
<rect x="136" y="8" width="4.05" height="32.05" fill="#4d2354"/>
<rect x="136" y="10" width="4.05" height="30.05" fill="#34163d"/>
<rect x="136" y="8" width="4.05" height="2" fill="rgba(255,255,255,0.1)"/>
<rect x="140" y="14" width="4.05" height="26.05" fill="#4d2354"/>
<rect x="140" y="16" width="4.05" height="24.05" fill="#34163d"/>
<rect x="140" y="14" width="4.05" height="2" fill="rgba(255,255,255,0.1)"/>
<rect x="144" y="22" width="4.05" height="18.05" fill="#4d2354"/>
<rect x="144" y="24" width="4.05" height="16.05" fill="#34163d"/>
<rect x="144" y="22" width="4.05" height="2" fill="rgba(255,255,255,0.1)"/>
<rect x="148" y="24" width="4.05" height="16.05" fill="#4d2354"/>
<rect x="148" y="26" width="4.05" height="14.05" fill="#34163d"/>
<rect x="148" y="24" width="4.05" height="2" fill="rgba(255,255,255,0.1)"/>
<rect x="152" y="20" width="4.05" height="20.05" fill="#4d2354"/>
<rect x="152" y="22" width="4.05" height="18.05" fill="#34163d"/>
<rect x="152" y="20" width="4.05" height="2" fill="rgba(255,255,255,0.1)"/>
<rect x="156" y="16" width="4.05" height="24.05" fill="#4d2354"/>
<rect x="156" y="18" width="4.05" height="22.05" fill="#34163d"/>
<rect x="156" y="16" width="4.05" height="2" fill="rgba(255,255,255,0.1)"/>
<rect x="160" y="12" width="4.05" height="28.05" fill="#4d2354"/>
<rect x="160" y="14" width="4.05" height="26.05" fill="#34163d"/>
<rect x="160" y="12" width="4.05" height="2" fill="rgba(255,255,255,0.1)"/>
<rect x="164" y="18" width="4.05" height="22.05" fill="#4d2354"/>
<rect x="164" y="20" width="4.05" height="20.05" fill="#34163d"/>
<rect x="164" y="18" width="4.05" height="2" fill="rgba(255,255,255,0.1)"/>
<rect x="168" y="24" width="4.05" height="16.05" fill="#4d2354"/>
<rect x="168" y="26" width="4.05" height="14.05" fill="#34163d"/>
<rect x="168" y="24" width="4.05" height="2" fill="rgba(255,255,255,0.1)"/>
<rect x="172" y="26" width="4.05" height="14.05" fill="#4d2354"/>
<rect x="172" y="28" width="4.05" height="12.05" fill="#34163d"/>
<rect x="172" y="26" width="4.05" height="2" fill="rgba(255,255,255,0.1)"/>
<rect x="176" y="22" width="4.05" height="18.05" fill="#4d2354"/>
<rect x="176" y="24" width="4.05" height="16.05" fill="#34163d"/>
<rect x="176" y="22" width="4.05" height="2" fill="rgba(255,255,255,0.1)"/>
<rect x="180" y="20" width="4.05" height="20.05" fill="#4d2354"/>
<rect x="180" y="22" width="4.05" height="18.05" fill="#34163d"/>
<rect x="180" y="20" width="4.05" height="2" fill="rgba(255,255,255,0.1)"/>
<rect x="184" y="24" width="4.05" height="16.05" fill="#4d2354"/>
<rect x="184" y="26" width="4.05" height="14.05" fill="#34163d"/>
<rect x="184" y="24" width="4.05" height="2" fill="rgba(255,255,255,0.1)"/>
<rect x="188" y="28" width="4.05" height="12.05" fill="#4d2354"/>
<rect x="188" y="30" width="4.05" height="10.05" fill="#34163d"/>
<rect x="188" y="28" width="4.05" height="2" fill="rgba(255,255,255,0.1)"/>
</svg>