<svg xmlns="http://www.w3.org/2000/svg" width="100%" height="200" preserveAspectRatio="none" viewBox="0 0 200 40" shape-rendering="crispEdges">
<rect x="0" y="34" width="4.05" height="6.05" fill="#221c4b"/>
<rect x="0" y="36" width="4.05" height="4.05" fill="#181438"/>
<rect x="0" y="34" width="4.05" height="2" fill="rgba(255,255,255,0.1)"/>
<rect x="4" y="32" width="4.05" height="8.05" fill="#221c4b"/>
<rect x="4" y="34" width="4.05" height="6.05" fill="#181438"/>
<rect x="4" y="32" width="4.05" height="2" fill="rgba(255,255,255,0.1)"/>
<rect x="8" y="34" width="4.05" height="6.05" fill="#221c4b"/>
<rect x="8" y="36" width="4.05" height="4.05" fill="#181438"/>
<rect x="8" y="34" width="4.05" height="2" fill="rgba(255,255,255,0.1)"/>
<rect x="12" y="36" width="4.05" height="4.05" fill="#221c4b"/>
<rect x="12" y="38" width="4.05" height="2.05" fill="#181438"/>
<rect x="12" y="36" width="4.05" height="2" fill="rgba(255,255,255,0.1)"/>
<rect x="16" y="30" width="4.05" height="10.05" fill="#221c4b"/>
<rect x="16" y="32" width="4.05" height="8.05" fill="#181438"/>
<rect x="16" y="30" width="4.05" height="2" fill="rgba(255,255,255,0.1)"/>
<rect x="20" y="26" width="4.05" height="14.05" fill="#221c4b"/>
<rect x="20" y="28" width="4.05" height="12.05" fill="#181438"/>
<rect x="20" y="26" width="4.05" height="2" fill="rgba(255,255,255,0.1)"/>
<rect x="24" y="28" width="4.05" height="12.05" fill="#221c4b"/>
<rect x="24" y="30" width="4.05" height="10.05" fill="#181438"/>
<rect x="24" y="28" width="4.05" height="2" fill="rgba(255,255,255,0.1)"/>
<rect x="28" y="32" width="4.05" height="8.05" fill="#221c4b"/>
<rect x="28" y="34" width="4.05" height="6.05" fill="#181438"/>
<rect x="28" y="32" width="4.05" height="2" fill="rgba(255,255,255,0.1)"/>
<rect x="32" y="34" width="4.05" height="6.05" fill="#221c4b"/>
<rect x="32" y="36" width="4.05" height="4.05" fill="#181438"/>
<rect x="32" y="34" width="4.05" height="2" fill="rgba(255,255,255,0.1)"/>
<rect x="36" y="32" width="4.05" height="8.05" fill="#221c4b"/>
<rect x="36" y="34" width="4.05" height="6.05" fill="#181438"/>
<rect x="36" y="32" width="4.05" height="2" fill="rgba(255,255,255,0.1)"/>
<rect x="40" y="30" width="4.05" height="10.05" fill="#221c4b"/>
<rect x="40" y="32" width="4.05" height="8.05" fill="#181438"/>
<rect x="40" y="30" width="4.05" height="2" fill="rgba(255,255,255,0.1)"/>
<rect x="44" y="28" width="4.05" height="12.05" fill="#221c4b"/>
<rect x="44" y="30" width="4.05" height="10.05" fill="#181438"/>
<rect x="44" y="28" width="4.05" height="2" fill="rgba(255,255,255,0.1)"/>
<rect x="48" y="24" width="4.05" height="16.05" fill="#221c4b"/>
<rect x="48" y="26" width="4.05" height="14.05" fill="#181438"/>
<rect x="48" y="24" width="4.05" height="2" fill="rgba(255,255,255,0.1)"/>
<rect x="52" y="22" width="4.05" height="18.05" fill="#221c4b"/>
<rect x="52" y="24" width="4.05" height="16.05" fill="#181438"/>
<rect x="52" y="22" width="4.05" height="2" fill="rgba(255,255,255,0.1)"/>
<rect x="56" y="26" width="4.05" height="14.05" fill="#221c4b"/>
<rect x="56" y="28" width="4.05" height="12.05" fill="#181438"/>
<rect x="56" y="26" width="4.05" height="2" fill="rgba(255,255,255,0.1)"/>
<rect x="60" y="30" width="4.05" height="10.05" fill="#221c4b"/>
<rect x="60" y="32" width="4.05" height="8.05" fill="#181438"/>
<rect x="60" y="30" width="4.05" height="2" fill="rgba(255,255,255,0.1)"/>
<rect x="64" y="32" width="4.05" height="8.05" fill="#221c4b"/>
<rect x="64" y="34" width="4.05" height="6.05" fill="#181438"/>
<rect x="64" y="32" width="4.05" height="2" fill="rgba(255,255,255,0.1)"/>
<rect x="68" y="36" width="4.05" height="4.05" fill="#221c4b"/>
<rect x="68" y="38" width="4.05" height="2.05" fill="#181438"/>
<rect x="68" y="36" width="4.05" height="2" fill="rgba(255,255,255,0.1)"/>
<rect x="72" y="34" width="4.05" height="6.05" fill="#221c4b"/>
<rect x="72" y="36" width="4.05" height="4.05" fill="#181438"/>
<rect x="72" y="34" width="4.05" height="2" fill="rgba(255,255,255,0.1)"/>
<rect x="76" y="32" width="4.05" height="8.05" fill="#221c4b"/>
<rect x="76" y="34" width="4.05" height="6.05" fill="#181438"/>
<rect x="76" y="32" width="4.05" height="2" fill="rgba(255,255,255,0.1)"/>
<rect x="80" y="28" width="4.05" height="12.05" fill="#221c4b"/>
<rect x="80" y="30" width="4.05" height="10.05" fill="#181438"/>
<rect x="80" y="28" width="4.05" height="2" fill="rgba(255,255,255,0.1)"/>
<rect x="84" y="30" width="4.05" height="10.05" fill="#221c4b"/>
<rect x="84" y="32" width="4.05" height="8.05" fill="#181438"/>
<rect x="84" y="30" width="4.05" height="2" fill="rgba(255,255,255,0.1)"/>
<rect x="88" y="34" width="4.05" height="6.05" fill="#221c4b"/>
<rect x="88" y="36" width="4.05" height="4.05" fill="#181438"/>
<rect x="88" y="34" width="4.05" height="2" fill="rgba(255,255,255,0.1)"/>
<rect x="92" y="32" width="4.05" height="8.05" fill="#221c4b"/>
<rect x="92" y="34" width="4.05" height="6.05" fill="#181438"/>
<rect x="92" y="32" width="4.05" height="2" fill="rgba(255,255,255,0.1)"/>
<rect x="96" y="34" width="4.05" height="6.05" fill="#221c4b"/>
<rect x="96" y="36" width="4.05" height="4.05" fill="#181438"/>
<rect x="96" y="34" width="4.05" height="2" fill="rgba(255,255,255,0.1)"/>
<rect x="100" y="34" width="4.05" height="6.05" fill="#221c4b"/>
<rect x="100" y="36" width="4.05" height="4.05" fill="#181438"/>
<rect x="100" y="34" width="4.05" height="2" fill="rgba(255,255,255,0.1)"/>
<rect x="104" y="32" width="4.05" height="8.05" fill="#221c4b"/>
<rect x="104" y="34" width="4.05" height="6.05" fill="#181438"/>
<rect x="104" y="32" width="4.05" height="2" fill="rgba(255,255,255,0.1)"/>
<rect x="108" y="34" width="4.05" height="6.05" fill="#221c4b"/>
<rect x="108" y="36" width="4.05" height="4.05" fill="#181438"/>
<rect x="108" y="34" width="4.05" height="2" fill="rgba(255,255,255,0.1)"/>
<rect x="112" y="36" width="4.05" height="4.05" fill="#221c4b"/>
<rect x="112" y="38" width="4.05" height="2.05" fill="#181438"/>
<rect x="112" y="36" width="4.05" height="2" fill="rgba(255,255,255,0.1)"/>
<rect x="116" y="30" width="4.05" height="10.05" fill="#221c4b"/>
<rect x="116" y="32" width="4.05" height="8.05" fill="#181438"/>
<rect x="116" y="30" width="4.05" height="2" fill="rgba(255,255,255,0.1)"/>
<rect x="120" y="26" width="4.05" height="14.05" fill="#221c4b"/>
<rect x="120" y="28" width="4.05" height="12.05" fill="#181438"/>
<rect x="120" y="26" width="4.05" height="2" fill="rgba(255,255,255,0.1)"/>
<rect x="124" y="28" width="4.05" height="12.05" fill="#221c4b"/>
<rect x="124" y="30" width="4.05" height="10.05" fill="#181438"/>
<rect x="124" y="28" width="4.05" height="2" fill="rgba(255,255,255,0.1)"/>
<rect x="128" y="32" width="4.05" height="8.05" fill="#221c4b"/>
<rect x="128" y="34" width="4.05" height="6.05" fill="#181438"/>
<rect x="128" y="32" width="4.05" height="2" fill="rgba(255,255,255,0.1)"/>
<rect x="132" y="34" width="4.05" height="6.05" fill="#221c4b"/>
<rect x="132" y="36" width="4.05" height="4.05" fill="#181438"/>
<rect x="132" y="34" width="4.05" height="2" fill="rgba(255,255,255,0.1)"/>
<rect x="136" y="32" width="4.05" height="8.05" fill="#221c4b"/>
<rect x="136" y="34" width="4.05" height="6.05" fill="#181438"/>
<rect x="136" y="32" width="4.05" height="2" fill="rgba(255,255,255,0.1)"/>
<rect x="140" y="30" width="4.05" height="10.05" fill="#221c4b"/>
<rect x="140" y="32" width="4.05" height="8.05" fill="#181438"/>
<rect x="140" y="30" width="4.05" height="2" fill="rgba(255,255,255,0.1)"/>
<rect x="144" y="28" width="4.05" height="12.05" fill="#221c4b"/>
<rect x="144" y="30" width="4.05" height="10.05" fill="#181438"/>
<rect x="144" y="28" width="4.05" height="2" fill="rgba(255,255,255,0.1)"/>
<rect x="148" y="24" width="4.05" height="16.05" fill="#221c4b"/>
<rect x="148" y="26" width="4.05" height="14.05" fill="#181438"/>
<rect x="148" y="24" width="4.05" height="2" fill="rgba(255,255,255,0.1)"/>
<rect x="152" y="22" width="4.05" height="18.05" fill="#221c4b"/>
<rect x="152" y="24" width="4.05" height="16.05" fill="#181438"/>
<rect x="152" y="22" width="4.05" height="2" fill="rgba(255,255,255,0.1)"/>
<rect x="156" y="26" width="4.05" height="14.05" fill="#221c4b"/>
<rect x="156" y="28" width="4.05" height="12.05" fill="#181438"/>
<rect x="156" y="26" width="4.05" height="2" fill="rgba(255,255,255,0.1)"/>
<rect x="160" y="30" width="4.05" height="10.05" fill="#221c4b"/>
<rect x="160" y="32" width="4.05" height="8.05" fill="#181438"/>
<rect x="160" y="30" width="4.05" height="2" fill="rgba(255,255,255,0.1)"/>
<rect x="164" y="32" width="4.05" height="8.05" fill="#221c4b"/>
<rect x="164" y="34" width="4.05" height="6.05" fill="#181438"/>
<rect x="164" y="32" width="4.05" height="2" fill="rgba(255,255,255,0.1)"/>
<rect x="168" y="36" width="4.05" height="4.05" fill="#221c4b"/>
<rect x="168" y="38" width="4.05" height="2.05" fill="#181438"/>
<rect x="168" y="36" width="4.05" height="2" fill="rgba(255,255,255,0.1)"/>
<rect x="172" y="34" width="4.05" height="6.05" fill="#221c4b"/>
<rect x="172" y="36" width="4.05" height="4.05" fill="#181438"/>
<rect x="172" y="34" width="4.05" height="2" fill="rgba(255,255,255,0.1)"/>
<rect x="176" y="32" width="4.05" height="8.05" fill="#221c4b"/>
<rect x="176" y="34" width="4.05" height="6.05" fill="#181438"/>
<rect x="176" y="32" width="4.05" height="2" fill="rgba(255,255,255,0.1)"/>
<rect x="180" y="28" width="4.05" height="12.05" fill="#221c4b"/>
<rect x="180" y="30" width="4.05" height="10.05" fill="#181438"/>
<rect x="180" y="28" width="4.05" height="2" fill="rgba(255,255,255,0.1)"/>
<rect x="184" y="30" width="4.05" height="10.05" fill="#221c4b"/>
<rect x="184" y="32" width="4.05" height="8.05" fill="#181438"/>
<rect x="184" y="30" width="4.05" height="2" fill="rgba(255,255,255,0.1)"/>
<rect x="188" y="34" width="4.05" height="6.05" fill="#221c4b"/>
<rect x="188" y="36" width="4.05" height="4.05" fill="#181438"/>
<rect x="188" y="34" width="4.05" height="2" fill="rgba(255,255,255,0.1)"/>
<rect x="192" y="32" width="4.05" height="8.05" fill="#221c4b"/>
<rect x="192" y="34" width="4.05" height="6.05" fill="#181438"/>
<rect x="192" y="32" width="4.05" height="2" fill="rgba(255,255,255,0.1)"/>
<rect x="196" y="34" width="4.05" height="6.05" fill="#221c4b"/>
<rect x="196" y="36" width="4.05" height="4.05" fill="#181438"/>
<rect x="196" y="34" width="4.05" height="2" fill="rgba(255,255,255,0.1)"/>
</svg>