<svg xmlns="http://www.w3.org/2000/svg" width="800" height="600" shape-rendering="crispEdges">
<rect x="245" y="251" width="4" height="6" fill="#f23c7a" transform="rotate(38 245 251)"/>
<rect x="146" y="136" width="4" height="8" fill="#3cc7f2" transform="rotate(3 146 136)"/>
<rect x="599" y="55" width="8" height="8" fill="#4bd964" transform="rotate(20 599 55)"/>
<rect x="8" y="397" width="8" height="6" fill="#f23c7a" transform="rotate(22 8 397)"/>
<rect x="634" y="415" width="6" height="6" fill="#4bd964" transform="rotate(36 634 415)"/>
<rect x="142" y="322" width="4" height="8" fill="#3cc7f2" transform="rotate(12 142 322)"/>
<rect x="582" y="332" width="6" height="6" fill="#963cf2" transform="rotate(14 582 332)"/>
<rect x="312" y="498" width="4" height="4" fill="#963cf2" transform="rotate(9 312 498)"/>
<rect x="341" y="529" width="6" height="4" fill="#f2c73c" transform="rotate(20 341 529)"/>
<rect x="527" y="385" width="8" height="8" fill="#4bd964" transform="rotate(28 527 385)"/>
<rect x="475" y="160" width="4" height="6" fill="#4bd964" transform="rotate(45 475 160)"/>
<rect x="75" y="176" width="8" height="8" fill="#3cc7f2" transform="rotate(6 75 176)"/>
<rect x="780" y="477" width="4" height="8" fill="#4bd964" transform="rotate(8 780 477)"/>
<rect x="610" y="99" width="6" height="8" fill="#f23c7a" transform="rotate(13 610 99)"/>
<rect x="245" y="544" width="6" height="4" fill="#3cc7f2" transform="rotate(22 245 544)"/>
<rect x="356" y="521" width="6" height="4" fill="#f23c7a" transform="rotate(21 356 521)"/>
<rect x="611" y="276" width="6" height="6" fill="#f2c73c" transform="rotate(27 611 276)"/>
<rect x="245" y="322" width="8" height="8" fill="#3cc7f2" transform="rotate(41 245 322)"/>
<rect x="692" y="48" width="8" height="4" fill="#4bd964" transform="rotate(15 692 48)"/>
<rect x="594" y="162" width="6" height="4" fill="#3cc7f2" transform="rotate(40 594 162)"/>
<rect x="186" y="386" width="4" height="8" fill="#3cc7f2" transform="rotate(23 186 386)"/>
<rect x="383" y="597" width="6" height="8" fill="#4bd964" transform="rotate(5 383 597)"/>
<rect x="419" y="197" width="8" height="6" fill="#f23c7a" transform="rotate(41 419 197)"/>
<rect x="683" y="237" width="8" height="6" fill="#4bd964" transform="rotate(23 683 237)"/>
<rect x="412" y="65" width="4" height="4" fill="#f23c7a" transform="rotate(20 412 65)"/>
<rect x="537" y="8" width="8" height="6" fill="#4bd964" transform="rotate(41 537 8)"/>
<rect x="715" y="507" width="8" height="4" fill="#f23c7a" transform="rotate(17 715 507)"/>
<rect x="269" y="341" width="4" height="8" fill="#f23c7a" transform="rotate(8 269 341)"/>
<rect x="106" y="244" width="6" height="8" fill="#4bd964" transform="rotate(34 106 244)"/>
<rect x="772" y="366" width="4" height="8" fill="#3cc7f2" transform="rotate(26 772 366)"/>
<rect x="137" y="21" width="4" height="8" fill="#3cc7f2" transform="rotate(45 137 21)"/>
<rect x="493" y="209" width="8" height="6" fill="#3cc7f2" transform="rotate(15 493 209)"/>
<rect x="431" y="568" width="8" height="6" fill="#f23c7a" transform="rotate(43 431 568)"/>
<rect x="589" y="309" width="8" height="8" fill="#963cf2" transform="rotate(42 589 309)"/>
<rect x="651" y="154" width="6" height="4" fill="#3cc7f2" transform="rotate(27 651 154)"/>
<rect x="359" y="469" width="6" height="8" fill="#f23c7a" transform="rotate(45 359 469)"/>
<rect x="425" y="321" width="8" height="8" fill="#3cc7f2" transform="rotate(35 425 321)"/>
<rect x="166" y="359" width="6" height="4" fill="#963cf2" transform="rotate(39 166 359)"/>
<rect x="8" y="45" width="6" height="6" fill="#f23c7a" transform="rotate(44 8 45)"/>
<rect x="558" y="568" width="6" height="8" fill="#3cc7f2" transform="rotate(23 558 568)"/>
</svg>