<svg xmlns="http://www.w3.org/2000/svg" width="300" height="300" fill="none" shape-rendering="crispEdges">
<g transform="translate(100,80) scale(2)">
<rect x="6" y="0" width="1.05" height="1.05" fill="#000000"/>
<rect x="5" y="1" width="1.05" height="1.05" fill="#000000"/>
<rect x="6" y="1" width="1.05" height="1.05" fill="#FFFFFF"/>
<rect x="7" y="1" width="1.05" height="1.05" fill="#000000"/>
<rect x="4" y="2" width="1.05" height="1.05" fill="#000000"/>
<rect x="5" y="2" width="1.05" height="1.05" fill="#92D5E6"/>
<rect x="6" y="2" width="1.05" height="1.05" fill="#FFFFFF"/>
<rect x="7" y="2" width="1.05" height="1.05" fill="#FFE56C"/>
<rect x="8" y="2" width="1.05" height="1.05" fill="#000000"/>
<rect x="0" y="3" width="1.05" height="1.05" fill="#000000"/>
<rect x="1" y="3" width="1.05" height="1.05" fill="#000000"/>
<rect x="2" y="3" width="1.05" height="1.05" fill="#000000"/>
<rect x="3" y="3" width="1.05" height="1.05" fill="#000000"/>
<rect x="4" y="3" width="1.05" height="1.05" fill="#92D5E6"/>
<rect x="5" y="3" width="1.05" height="1.05" fill="#92D5E6"/>
<rect x="6" y="3" width="1.05" height="1.05" fill="#FFFFFF"/>
<rect x="7" y="3" width="1.05" height="1.05" fill="#FFE56C"/>
<rect x="8" y="3" width="1.05" height="1.05" fill="#FFE56C"/>
<rect x="9" y="3" width="1.05" height="1.05" fill="#000000"/>
<rect x="10" y="3" width="1.05" height="1.05" fill="#000000"/>
<rect x="11" y="3" width="1.05" height="1.05" fill="#000000"/>
<rect x="12" y="3" width="1.05" height="1.05" fill="#000000"/>
<rect x="0" y="4" width="1.05" height="1.05" fill="#000000"/>
<rect x="1" y="4" width="1.05" height="1.05" fill="#92D5E6"/>
<rect x="2" y="4" width="1.05" height="1.05" fill="#92D5E6"/>
<rect x="3" y="4" width="1.05" height="1.05" fill="#92D5E6"/>
<rect x="4" y="4" width="1.05" height="1.05" fill="#92D5E6"/>
<rect x="5" y="4" width="1.05" height="1.05" fill="#FFFFFF"/>
<rect x="6" y="4" width="1.05" height="1.05" fill="#FFE56C"/>
<rect x="7" y="4" width="1.05" height="1.05" fill="#FFE56C"/>
<rect x="8" y="4" width="1.05" height="1.05" fill="#FFE56C"/>
<rect x="9" y="4" width="1.05" height="1.05" fill="#FFE56C"/>
<rect x="10" y="4" width="1.05" height="1.05" fill="#FFE56C"/>
<rect x="11" y="4" width="1.05" height="1.05" fill="#FFE56C"/>
<rect x="12" y="4" width="1.05" height="1.05" fill="#000000"/>
<rect x="1" y="5" width="1.05" height="1.05" fill="#000000"/>
<rect x="2" y="5" width="1.05" height="1.05" fill="#92D5E6"/>
<rect x="3" y="5" width="1.05" height="1.05" fill="#92D5E6"/>
<rect x="4" y="5" width="1.05" height="1.05" fill="#92D5E6"/>
<rect x="5" y="5" width="1.05" height="1.05" fill="#FFFFFF"/>
<rect x="6" y="5" width="1.05" height="1.05" fill="#FFE56C"/>
<rect x="7" y="5" width="1.05" height="1.05" fill="#FFE56C"/>
<rect x="8" y="5" width="1.05" height="1.05" fill="#FFE56C"/>
<rect x="9" y="5" width="1.05" height="1.05" fill="#FFE56C"/>
<rect x="10" y="5" width="1.05" height="1.05" fill="#FFE56C"/>
<rect x="11" y="5" width="1.05" height="1.05" fill="#000000"/>
<rect x="2" y="6" width="1.05" height="1.05" fill="#000000"/>
<rect x="3" y="6" width="1.05" height="1.05" fill="#92D5E6"/>
<rect x="4" y="6" width="1.05" height="1.05" fill="#92D5E6"/>
<rect x="5" y="6" width="1.05" height="1.05" fill="#FFFFFF"/>
<rect x="6" y="6" width="1.05" height="1.05" fill="#FFE56C"/>
<rect x="7" y="6" width="1.05" height="1.05" fill="#FFE56C"/>
<rect x="8" y="6" width="1.05" height="1.05" fill="#FFE56C"/>
<rect x="9" y="6" width="1.05" height="1.05" fill="#FFE56C"/>
<rect x="10" y="6" width="1.05" height="1.05" fill="#000000"/>
<rect x="2" y="7" width="1.05" height="1.05" fill="#000000"/>
<rect x="3" y="7" width="1.05" height="1.05" fill="#92D5E6"/>
<rect x="4" y="7" width="1.05" height="1.05" fill="#92D5E6"/>
<rect x="5" y="7" width="1.05" height="1.05" fill="#FFE56C"/>
<rect x="6" y="7" width="1.05" height="1.05" fill="#000000"/>
<rect x="7" y="7" width="1.05" height="1.05" fill="#000000"/>
<rect x="8" y="7" width="1.05" height="1.05" fill="#FFE56C"/>
<rect x="9" y="7" width="1.05" height="1.05" fill="#FFE56C"/>
<rect x="10" y="7" width="1.05" height="1.05" fill="#000000"/>
<rect x="1" y="8" width="1.05" height="1.05" fill="#000000"/>
<rect x="2" y="8" width="1.05" height="1.05" fill="#92D5E6"/>
<rect x="3" y="8" width="1.05" height="1.05" fill="#92D5E6"/>
<rect x="4" y="8" width="1.05" height="1.05" fill="#000000"/>
<rect x="9" y="8" width="1.05" height="1.05" fill="#000000"/>
<rect x="10" y="8" width="1.05" height="1.05" fill="#FFE56C"/>
<rect x="11" y="8" width="1.05" height="1.05" fill="#FFE56C"/>
<rect x="12" y="8" width="1.05" height="1.05" fill="#000000"/>
<rect x="1" y="9" width="1.05" height="1.05" fill="#000000"/>
<rect x="2" y="9" width="1.05" height="1.05" fill="#92D5E6"/>
<rect x="3" y="9" width="1.05" height="1.05" fill="#000000"/>
<rect x="10" y="9" width="1.05" height="1.05" fill="#000000"/>
<rect x="11" y="9" width="1.05" height="1.05" fill="#FFE56C"/>
<rect x="12" y="9" width="1.05" height="1.05" fill="#000000"/>
<rect x="1" y="10" width="1.05" height="1.05" fill="#000000"/>
<rect x="2" y="10" width="1.05" height="1.05" fill="#000000"/>
<rect x="11" y="10" width="1.05" height="1.05" fill="#000000"/>
<rect x="12" y="10" width="1.05" height="1.05" fill="#000000"/>
</g>
<g transform="translate(180,160) scale(2)">
<rect x="6" y="0" width="1.05" height="1.05" fill="#000000"/>
<rect x="5" y="1" width="1.05" height="1.05" fill="#000000"/>
<rect x="6" y="1" width="1.05" height="1.05" fill="#FFFFFF"/>
<rect x="7" y="1" width="1.05" height="1.05" fill="#000000"/>
<rect x="4" y="2" width="1.05" height="1.05" fill="#000000"/>
<rect x="5" y="2" width="1.05" height="1.05" fill="#92D5E6"/>
<rect x="6" y="2" width="1.05" height="1.05" fill="#FFFFFF"/>
<rect x="7" y="2" width="1.05" height="1.05" fill="#FFE56C"/>
<rect x="8" y="2" width="1.05" height="1.05" fill="#000000"/>
<rect x="0" y="3" width="1.05" height="1.05" fill="#000000"/>
<rect x="1" y="3" width="1.05" height="1.05" fill="#000000"/>
<rect x="2" y="3" width="1.05" height="1.05" fill="#000000"/>
<rect x="3" y="3" width="1.05" height="1.05" fill="#000000"/>
<rect x="4" y="3" width="1.05" height="1.05" fill="#92D5E6"/>
<rect x="5" y="3" width="1.05" height="1.05" fill="#92D5E6"/>
<rect x="6" y="3" width="1.05" height="1.05" fill="#FFFFFF"/>
<rect x="7" y="3" width="1.05" height="1.05" fill="#FFE56C"/>
<rect x="8" y="3" width="1.05" height="1.05" fill="#FFE56C"/>
<rect x="9" y="3" width="1.05" height="1.05" fill="#000000"/>
<rect x="10" y="3" width="1.05" height="1.05" fill="#000000"/>
<rect x="11" y="3" width="1.05" height="1.05" fill="#000000"/>
<rect x="12" y="3" width="1.05" height="1.05" fill="#000000"/>
<rect x="0" y="4" width="1.05" height="1.05" fill="#000000"/>
<rect x="1" y="4" width="1.05" height="1.05" fill="#92D5E6"/>
<rect x="2" y="4" width="1.05" height="1.05" fill="#92D5E6"/>
<rect x="3" y="4" width="1.05" height="1.05" fill="#92D5E6"/>
<rect x="4" y="4" width="1.05" height="1.05" fill="#92D5E6"/>
<rect x="5" y="4" width="1.05" height="1.05" fill="#FFFFFF"/>
<rect x="6" y="4" width="1.05" height="1.05" fill="#FFE56C"/>
<rect x="7" y="4" width="1.05" height="1.05" fill="#FFE56C"/>
<rect x="8" y="4" width="1.05" height="1.05" fill="#FFE56C"/>
<rect x="9" y="4" width="1.05" height="1.05" fill="#FFE56C"/>
<rect x="10" y="4" width="1.05" height="1.05" fill="#FFE56C"/>
<rect x="11" y="4" width="1.05" height="1.05" fill="#FFE56C"/>
<rect x="12" y="4" width="1.05" height="1.05" fill="#000000"/>
<rect x="1" y="5" width="1.05" height="1.05" fill="#000000"/>
<rect x="2" y="5" width="1.05" height="1.05" fill="#92D5E6"/>
<rect x="3" y="5" width="1.05" height="1.05" fill="#92D5E6"/>
<rect x="4" y="5" width="1.05" height="1.05" fill="#92D5E6"/>
<rect x="5" y="5" width="1.05" height="1.05" fill="#FFFFFF"/>
<rect x="6" y="5" width="1.05" height="1.05" fill="#FFE56C"/>
<rect x="7" y="5" width="1.05" height="1.05" fill="#FFE56C"/>
<rect x="8" y="5" width="1.05" height="1.05" fill="#FFE56C"/>
<rect x="9" y="5" width="1.05" height="1.05" fill="#FFE56C"/>
<rect x="10" y="5" width="1.05" height="1.05" fill="#FFE56C"/>
<rect x="11" y="5" width="1.05" height="1.05" fill="#000000"/>
<rect x="2" y="6" width="1.05" height="1.05" fill="#000000"/>
<rect x="3" y="6" width="1.05" height="1.05" fill="#92D5E6"/>
<rect x="4" y="6" width="1.05" height="1.05" fill="#92D5E6"/>
<rect x="5" y="6" width="1.05" height="1.05" fill="#FFFFFF"/>
<rect x="6" y="6" width="1.05" height="1.05" fill="#FFE56C"/>
<rect x="7" y="6" width="1.05" height="1.05" fill="#FFE56C"/>
<rect x="8" y="6" width="1.05" height="1.05" fill="#FFE56C"/>
<rect x="9" y="6" width="1.05" height="1.05" fill="#FFE56C"/>
<rect x="10" y="6" width="1.05" height="1.05" fill="#000000"/>
<rect x="2" y="7" width="1.05" height="1.05" fill="#000000"/>
<rect x="3" y="7" width="1.05" height="1.05" fill="#92D5E6"/>
<rect x="4" y="7" width="1.05" height="1.05" fill="#92D5E6"/>
<rect x="5" y="7" width="1.05" height="1.05" fill="#FFE56C"/>
<rect x="6" y="7" width="1.05" height="1.05" fill="#000000"/>
<rect x="7" y="7" width="1.05" height="1.05" fill="#000000"/>
<rect x="8" y="7" width="1.05" height="1.05" fill="#FFE56C"/>
<rect x="9" y="7" width="1.05" height="1.05" fill="#FFE56C"/>
<rect x="10" y="7" width="1.05" height="1.05" fill="#000000"/>
<rect x="1" y="8" width="1.05" height="1.05" fill="#000000"/>
<rect x="2" y="8" width="1.05" height="1.05" fill="#92D5E6"/>
<rect x="3" y="8" width="1.05" height="1.05" fill="#92D5E6"/>
<rect x="4" y="8" width="1.05" height="1.05" fill="#000000"/>
<rect x="9" y="8" width="1.05" height="1.05" fill="#000000"/>
<rect x="10" y="8" width="1.05" height="1.05" fill="#FFE56C"/>
<rect x="11" y="8" width="1.05" height="1.05" fill="#FFE56C"/>
<rect x="12" y="8" width="1.05" height="1.05" fill="#000000"/>
<rect x="1" y="9" width="1.05" height="1.05" fill="#000000"/>
<rect x="2" y="9" width="1.05" height="1.05" fill="#92D5E6"/>
<rect x="3" y="9" width="1.05" height="1.05" fill="#000000"/>
<rect x="10" y="9" width="1.05" height="1.05" fill="#000000"/>
<rect x="11" y="9" width="1.05" height="1.05" fill="#FFE56C"/>
<rect x="12" y="9" width="1.05" height="1.05" fill="#000000"/>
<rect x="1" y="10" width="1.05" height="1.05" fill="#000000"/>
<rect x="2" y="10" width="1.05" height="1.05" fill="#000000"/>
<rect x="11" y="10" width="1.05" height="1.05" fill="#000000"/>
<rect x="12" y="10" width="1.05" height="1.05" fill="#000000"/>
</g>
<g transform="translate(210,60) scale(2)">
<rect x="3" y="0" width="1.05" height="1.05" fill="#000000"/>
<rect x="2" y="1" width="1.05" height="1.05" fill="#000000"/>
<rect x="3" y="1" width="1.05" height="1.05" fill="#FFFFFF"/>
<rect x="4" y="1" width="1.05" height="1.05" fill="#000000"/>
<rect x="1" y="2" width="1.05" height="1.05" fill="#000000"/>
<rect x="2" y="2" width="1.05" height="1.05" fill="#92D5E6"/>
<rect x="3" y="2" width="1.05" height="1.05" fill="#FFFFFF"/>
<rect x="4" y="2" width="1.05" height="1.05" fill="#FFE56C"/>
<rect x="5" y="2" width="1.05" height="1.05" fill="#000000"/>
<rect x="0" y="3" width="1.05" height="1.05" fill="#000000"/>
<rect x="1" y="3" width="1.05" height="1.05" fill="#92D5E6"/>
<rect x="2" y="3" width="1.05" height="1.05" fill="#92D5E6"/>
<rect x="3" y="3" width="1.05" height="1.05" fill="#FFFFFF"/>
<rect x="4" y="3" width="1.05" height="1.05" fill="#FFE56C"/>
<rect x="5" y="3" width="1.05" height="1.05" fill="#FFE56C"/>
<rect x="6" y="3" width="1.05" height="1.05" fill="#000000"/>
<rect x="1" y="4" width="1.05" height="1.05" fill="#000000"/>
<rect x="2" y="4" width="1.05" height="1.05" fill="#92D5E6"/>
<rect x="3" y="4" width="1.05" height="1.05" fill="#92D5E6"/>
<rect x="4" y="4" width="1.05" height="1.05" fill="#FFE56C"/>
<rect x="5" y="4" width="1.05" height="1.05" fill="#000000"/>
<rect x="2" y="5" width="1.05" height="1.05" fill="#000000"/>
<rect x="3" y="5" width="1.05" height="1.05" fill="#FFE56C"/>
<rect x="4" y="5" width="1.05" height="1.05" fill="#000000"/>
<rect x="3" y="6" width="1.05" height="1.05" fill="#000000"/>
</g>
<g transform="translate(90,180) scale(2)">
<rect x="3" y="0" width="1.05" height="1.05" fill="#000000"/>
<rect x="2" y="1" width="1.05" height="1.05" fill="#000000"/>
<rect x="3" y="1" width="1.05" height="1.05" fill="#FFFFFF"/>
<rect x="4" y="1" width="1.05" height="1.05" fill="#000000"/>
<rect x="1" y="2" width="1.05" height="1.05" fill="#000000"/>
<rect x="2" y="2" width="1.05" height="1.05" fill="#92D5E6"/>
<rect x="3" y="2" width="1.05" height="1.05" fill="#FFFFFF"/>
<rect x="4" y="2" width="1.05" height="1.05" fill="#FFE56C"/>
<rect x="5" y="2" width="1.05" height="1.05" fill="#000000"/>
<rect x="0" y="3" width="1.05" height="1.05" fill="#000000"/>
<rect x="1" y="3" width="1.05" height="1.05" fill="#92D5E6"/>
<rect x="2" y="3" width="1.05" height="1.05" fill="#92D5E6"/>
<rect x="3" y="3" width="1.05" height="1.05" fill="#FFFFFF"/>
<rect x="4" y="3" width="1.05" height="1.05" fill="#FFE56C"/>
<rect x="5" y="3" width="1.05" height="1.05" fill="#FFE56C"/>
<rect x="6" y="3" width="1.05" height="1.05" fill="#000000"/>
<rect x="1" y="4" width="1.05" height="1.05" fill="#000000"/>
<rect x="2" y="4" width="1.05" height="1.05" fill="#92D5E6"/>
<rect x="3" y="4" width="1.05" height="1.05" fill="#92D5E6"/>
<rect x="4" y="4" width="1.05" height="1.05" fill="#FFE56C"/>
<rect x="5" y="4" width="1.05" height="1.05" fill="#000000"/>
<rect x="2" y="5" width="1.05" height="1.05" fill="#000000"/>
<rect x="3" y="5" width="1.05" height="1.05" fill="#FFE56C"/>
<rect x="4" y="5" width="1.05" height="1.05" fill="#000000"/>
<rect x="3" y="6" width="1.05" height="1.05" fill="#000000"/>
</g>
<g transform="translate(60,60) scale(2)">
<rect x="1" y="0" width="1.05" height="1.05" fill="#000000"/>
<rect x="0" y="1" width="1.05" height="1.05" fill="#000000"/>
<rect x="1" y="1" width="1.05" height="1.05" fill="#000000"/>
<rect x="2" y="1" width="1.05" height="1.05" fill="#000000"/>
<rect x="1" y="2" width="1.05" height="1.05" fill="#000000"/>
</g>
<g transform="translate(180,70) scale(2)">
<rect x="1" y="0" width="1.05" height="1.05" fill="#000000"/>
<rect x="0" y="1" width="1.05" height="1.05" fill="#000000"/>
<rect x="1" y="1" width="1.05" height="1.05" fill="#000000"/>
<rect x="2" y="1" width="1.05" height="1.05" fill="#000000"/>
<rect x="1" y="2" width="1.05" height="1.05" fill="#000000"/>
</g>
<g transform="translate(60,180) scale(2)">
<rect x="1" y="0" width="1.05" height="1.05" fill="#000000"/>
<rect x="0" y="1" width="1.05" height="1.05" fill="#000000"/>
<rect x="1" y="1" width="1.05" height="1.05" fill="#000000"/>
<rect x="2" y="1" width="1.05" height="1.05" fill="#000000"/>
<rect x="1" y="2" width="1.05" height="1.05" fill="#000000"/>
</g>
<g transform="translate(230,200) scale(2)">
<rect x="0" y="0" width="1.05" height="1.05" fill="#000000"/>
<rect x="1" y="0" width="1.05" height="1.05" fill="#000000"/>
<rect x="0" y="1" width="1.05" height="1.05" fill="#000000"/>
<rect x="1" y="1" width="1.05" height="1.05" fill="#000000"/>
</g>
<g transform="translate(90,140) scale(2)">
<rect x="0" y="0" width="1.05" height="1.05" fill="#000000"/>
<rect x="1" y="0" width="1.05" height="1.05" fill="#000000"/>
<rect x="0" y="1" width="1.05" height="1.05" fill="#000000"/>
<rect x="1" y="1" width="1.05" height="1.05" fill="#000000"/>
</g>
<g transform="translate(200,120) scale(2)">
<rect x="0" y="0" width="1.05" height="1.05" fill="#000000"/>
<rect x="1" y="0" width="1.05" height="1.05" fill="#000000"/>
<rect x="0" y="1" width="1.05" height="1.05" fill="#000000"/>
<rect x="1" y="1" width="1.05" height="1.05" fill="#92D5E6"/>
</g>
</svg>