<svg xmlns="http://www.w3.org/2000/svg" width="24" height="24" viewBox="0 0 24 24">
  <rect x="0" y="0" width="2" height="2" fill="#fff"/>
  <rect x="0" y="2" width="2" height="2" fill="#fff"/>
  <rect x="2" y="2" width="2" height="2" fill="#fff"/>
  <rect x="0" y="4" width="2" height="2" fill="#fff"/>
  <rect x="2" y="4" width="2" height="2" fill="#0b0c16"/>
  <rect x="4" y="4" width="2" height="2" fill="#fff"/>
  <rect x="0" y="6" width="2" height="2" fill="#fff"/>
  <rect x="2" y="6" width="2" height="2" fill="#0b0c16"/>
  <rect x="4" y="6" width="2" height="2" fill="#0b0c16"/>
  <rect x="6" y="6" width="2" height="2" fill="#fff"/>
  <rect x="0" y="8" width="2" height="2" fill="#fff"/>
  <rect x="2" y="8" width="2" height="2" fill="#0b0c16"/>
  <rect x="4" y="8" width="2" height="2" fill="#38bdf8"/>
  <rect x="6" y="8" width="2" height="2" fill="#0b0c16"/>
  <rect x="8" y="8" width="2" height="2" fill="#fff"/>
  <rect x="0" y="10" width="2" height="2" fill="#fff"/>
  <rect x="2" y="10" width="2" height="2" fill="#0b0c16"/>
  <rect x="4" y="10" width="2" height="2" fill="#38bdf8"/>
  <rect x="6" y="10" width="2" height="2" fill="#0b0c16"/>
  <rect x="8" y="10" width="2" height="2" fill="#0b0c16"/>
  <rect x="10" y="10" width="2" height="2" fill="#fff"/>
  <rect x="0" y="12" width="2" height="2" fill="#fff"/>
  <rect x="2" y="12" width="2" height="2" fill="#0b0c16"/>
  <rect x="4" y="12" width="2" height="2" fill="#0b0c16"/>
  <rect x="6" y="12" width="2" height="2" fill="#38bdf8"/>
  <rect x="8" y="12" width="2" height="2" fill="#0b0c16"/>
  <rect x="10" y="12" width="2" height="2" fill="#0b0c16"/>
  <rect x="12" y="12" width="2" height="2" fill="#fff"/>
  <rect x="0" y="14" width="2" height="2" fill="#fff"/>
  <rect x="2" y="14" width="2" height="2" fill="#0b0c16"/>
  <rect x="4" y="14" width="2" height="2" fill="#0b0c16"/>
  <rect x="6" y="14" width="2" height="2" fill="#0b0c16"/>
  <rect x="8" y="14" width="2" height="2" fill="#0b0c16"/>
  <rect x="10" y="14" width="2" height="2" fill="#0b0c16"/>
  <rect x="12" y="14" width="2" height="2" fill="#0b0c16"/>
  <rect x="14" y="14" width="2" height="2" fill="#fff"/>
  <rect x="0" y="16" width="2" height="2" fill="#fff"/>
  <rect x="2" y="16" width="2" height="2" fill="#0b0c16"/>
  <rect x="4" y="16" width="2" height="2" fill="#0b0c16"/>
  <rect x="6" y="16" width="2" height="2" fill="#fff"/>
  <rect x="8" y="16" width="2" height="2" fill="#fff"/>
  <rect x="10" y="16" width="2" height="2" fill="#fff"/>
  <rect x="12" y="16" width="2" height="2" fill="#fff"/>
  <rect x="14" y="16" width="2" height="2" fill="#fff"/>
  <rect x="0" y="18" width="2" height="2" fill="#fff"/>
  <rect x="2" y="18" width="2" height="2" fill="#0b0c16"/>
  <rect x="4" y="18" width="2" height="2" fill="#fff"/>
  <rect x="0" y="20" width="2" height="2" fill="#fff"/>
  <rect x="2" y="20" width="2" height="2" fill="#fff"/>
</svg>
